<?xml version="1.0" encoding="UTF-8" standalone="no"?>
<!-- Created with Inkscape (http://www.inkscape.org/) -->

<svg
   version="1.1"
   id="svg368"
   width="561.55731"
   height="359.62485"
   viewBox="0 0 561.55731 359.62485"
   sodipodi:docname="arete.svg"
   inkscape:version="1.1 (c4e8f9ed74, 2021-05-24)"
   inkscape:export-filename="/home/fin/Documents/research/vector_figures/amr/arete.png"
   inkscape:export-xdpi="300"
   inkscape:export-ydpi="300"
   xmlns:inkscape="http://www.inkscape.org/namespaces/inkscape"
   xmlns:sodipodi="http://sodipodi.sourceforge.net/DTD/sodipodi-0.dtd"
   xmlns="http://www.w3.org/2000/svg"
   xmlns:svg="http://www.w3.org/2000/svg">
  <defs
     id="defs372">
    <clipPath
       clipPathUnits="userSpaceOnUse"
       id="clipPath107625">
      <rect
         style="fill:#1b9e77;stroke:none;stroke-width:9.91805;stroke-linecap:square;stroke-miterlimit:4;stroke-dasharray:none;stroke-opacity:1;paint-order:markers fill stroke"
         id="rect107627"
         width="105.94025"
         height="116.34221"
         x="3115.5713"
         y="569.30658" />
    </clipPath>
    <clipPath
       clipPathUnits="userSpaceOnUse"
       id="clipPath107625-6">
      <rect
         style="fill:#1b9e77;stroke:none;stroke-width:9.91805;stroke-linecap:square;stroke-miterlimit:4;stroke-dasharray:none;stroke-opacity:1;paint-order:markers fill stroke"
         id="rect107627-7"
         width="105.94025"
         height="116.34221"
         x="3115.5713"
         y="569.30658" />
    </clipPath>
    <clipPath
       clipPathUnits="userSpaceOnUse"
       id="clipPath119924">
      <g
         id="g119930"
         style="stroke-width:0.999998">
        <rect
           style="fill:#d95f02;stroke:none;stroke-width:587.601;stroke-linecap:square;stroke-miterlimit:4;stroke-dasharray:none;stroke-opacity:1;paint-order:markers fill stroke"
           id="rect119926"
           width="4106.9292"
           height="10598.452"
           x="18870.648"
           y="-11803.829"
           transform="scale(1,-1)" />
        <rect
           style="fill:#d95f02;stroke:none;stroke-width:587.602;stroke-linecap:square;stroke-miterlimit:4;stroke-dasharray:none;stroke-opacity:1;paint-order:markers fill stroke"
           id="rect119928"
           width="1088.0509"
           height="644.96948"
           x="18352.799"
           y="-1828.163"
           transform="scale(1,-1)" />
      </g>
    </clipPath>
  </defs>
  <sodipodi:namedview
     id="namedview370"
     pagecolor="#ffffff"
     bordercolor="#666666"
     borderopacity="1.0"
     inkscape:pageshadow="2"
     inkscape:pageopacity="0.0"
     inkscape:pagecheckerboard="0"
     showgrid="false"
     inkscape:zoom="0.59843704"
     inkscape:cx="533.89075"
     inkscape:cy="243.13335"
     inkscape:window-width="956"
     inkscape:window-height="1040"
     inkscape:window-x="0"
     inkscape:window-y="18"
     inkscape:window-maximized="1"
     inkscape:current-layer="g110131" />
  <g
     inkscape:groupmode="layer"
     inkscape:label="Image"
     id="g374"
     transform="translate(-62.081259,-30.589212)">
    <g
       id="g1030"
       transform="translate(-471.2282,-198.27173)">
      <g
         id="g4409"
         transform="matrix(0.93063981,0,0,0.93063981,-644.20602,-231.67336)"
         style="stroke-width:0.265458">
        <path
           style="fill:none;stroke-width:0.0702706"
           d="m 1990.61,669.47849 32.3737,-32.37423 c 11.2612,-11.26119 29.5192,-11.26119 40.7802,0 11.2612,11.26118 11.2612,29.51956 0,40.781 l -32.3731,32.37423 c -11.2613,11.26119 -29.5193,11.26119 -40.7802,0 -11.2617,-11.26145 -11.2617,-29.51981 -6e-4,-40.781 z"
           id="path4330" />
        <g
           id="g4348"
           style="stroke-width:0.265458" />
        <g
           id="g4350"
           style="stroke-width:0.265458" />
        <g
           id="g4352"
           style="stroke-width:0.265458" />
        <g
           id="g4354"
           style="stroke-width:0.265458" />
        <g
           id="g4356"
           style="stroke-width:0.265458" />
        <g
           id="g4358"
           style="stroke-width:0.265458" />
        <g
           id="g4360"
           style="stroke-width:0.265458" />
        <g
           id="g4362"
           style="stroke-width:0.265458" />
        <g
           id="g4364"
           style="stroke-width:0.265458" />
        <g
           id="g4366"
           style="stroke-width:0.265458" />
        <g
           id="g4368"
           style="stroke-width:0.265458" />
        <g
           id="g4370"
           style="stroke-width:0.265458" />
        <g
           id="g4372"
           style="stroke-width:0.265458" />
        <g
           id="g4374"
           style="stroke-width:0.265458" />
        <g
           id="g4376"
           style="stroke-width:0.265458" />
        <g
           id="g132825"
           transform="matrix(0.96059121,0,0,0.96059121,63.042787,27.329804)"
           style="stroke-width:0.276349">
          <g
             id="g110131"
             transform="matrix(0.61718764,0,0,0.61718763,303.03175,156.58776)"
             style="stroke-width:0.447754">
            <g
               id="g134472"
               transform="translate(-30.23987)">
              <path
                 style="color:#000000;fill:#7570b3;stroke:#000000;stroke-width:7.61223;stroke-linecap:square;stroke-miterlimit:4;stroke-dasharray:none;stroke-opacity:1;paint-order:markers fill stroke"
                 d="m 2078.8886,549.39337 c -41.5093,0 -75.4473,33.93793 -75.4473,75.44726 0,41.50934 33.938,75.44727 75.4473,75.44727 41.5093,0 75.4473,-33.93793 75.4473,-75.44727 0,-41.50933 -33.938,-75.44726 -75.4473,-75.44726 z m 0,26.86328 c 26.9914,0 48.584,21.59261 48.584,48.58398 0,26.99138 -21.5926,48.58399 -48.584,48.58399 -26.9914,0 -48.584,-21.59261 -48.584,-48.58399 0,-26.99137 21.5926,-48.58398 48.584,-48.58398 z"
                 id="path91325" />
              <path
                 id="path91325-3"
                 clip-path="url(#clipPath107625)"
                 style="color:#000000;fill:#e7298a;stroke:none;stroke-width:7.61223;stroke-linecap:square;stroke-miterlimit:4;stroke-dasharray:none;stroke-opacity:1;paint-order:markers fill stroke"
                 d="m 3113.6982,607.17547 c -14.1714,0.33829 -28.1807,5.13095 -39.6123,13.5084 -13.1284,9.51259 -22.8604,23.63008 -26.9498,39.32953 -1.1269,4.29847 -2.0922,8.37495 -2.3861,12.80887 h 17.4629 c 1.0137,-12.32165 6.5119,-24.20882 15.2627,-32.94521 8.5661,-8.65665 22.2536,-13.41428 34.3721,-14.59917 11.8708,-1.23213 20.3063,2.80725 31.4737,8.64754 11.0819,6.99395 19.4412,18.43387 22.8115,31.10012 0.835,3.06731 1.151,5.06186 1.4237,8.22872 l 19.2321,-0.22888 c -0.9216,-14.49878 -6.2885,-28.90871 -15.4899,-40.13955 -10.0871,-12.41842 -24.7199,-21.86182 -40.3912,-25.15624 -5.4261,-1.16017 -11.3137,-1.80791 -16.8598,-1.6688 z"
                 transform="rotate(-45.000001,2533.4531,1902.2977)"
                 sodipodi:nodetypes="ccccccccccccccc" />
            </g>
          </g>
          <g
             id="g125482"
             transform="matrix(1.0745296,0,0,1.0745296,675.49568,248.93988)"
             style="stroke-width:0.276349">
            <path
               style="fill:#000000;fill-opacity:1;stroke-width:1.04102"
               d="m 843.86749,372.45264 c -0.27901,-1.04124 -0.50324,-5.86879 -0.4982,-10.72789 0.008,-6.60439 0.43711,-10.10922 1.70393,-13.88315 1.08297,-3.22592 1.54288,-6.26342 1.27422,-8.41403 l -0.42053,-3.36562 0.90947,3.22836 c 0.75314,2.67331 0.60244,4.26458 -0.87683,9.25543 -1.89845,6.4054 -2.3619,16.81517 -1.00808,22.6448 0.7751,3.33796 -0.21784,4.49411 -1.08398,1.2621 z"
               id="path14435" />
            <path
               style="fill:#000000;fill-opacity:1;stroke-width:1.04102"
               d="m 818.5294,396.78409 c -0.51772,-1.19581 0.20816,-2.34564 3.23536,-5.12496 2.56662,-2.35642 3.90403,-4.27725 3.90605,-5.61022 0,-1.11484 0.84771,-3.35219 1.87994,-4.97189 1.03214,-1.6197 2.52412,-4.45943 3.31546,-6.31052 0.79126,-1.85109 1.45151,-2.79767 1.46724,-2.10351 0.0278,1.2138 -1.99842,5.68793 -4.57176,10.09684 -0.67531,1.15693 -1.23333,2.99917 -1.24022,4.09386 -0.008,1.22166 -1.28289,3.17144 -3.30209,5.04842 -1.80935,1.68194 -3.45463,3.81533 -3.65607,4.74087 -0.34548,1.58673 -0.40454,1.59478 -1.03391,0.14111 z"
               id="path14433" />
            <path
               style="fill:#000000;fill-opacity:1;stroke-width:1.04102"
               d="m 847.23167,404.81138 c -0.72882,-1.17932 1.96215,-10.27191 3.03999,-10.27191 0.40564,0 0.52487,0.34393 0.26513,0.76428 -0.25983,0.42035 -0.97039,2.95702 -1.57906,5.63705 -0.63375,2.79064 -1.37132,4.44455 -1.72606,3.87058 z"
               id="path14431" />
            <path
               style="fill:#000000;fill-opacity:1;stroke-width:1.04102"
               d="m 790.39624,427.3542 c -0.0589,-1.46127 3.82653,-10.09684 4.54316,-10.09684 0.26453,0 -0.13698,1.19497 -0.89223,2.65549 -0.75524,1.46053 -1.87422,4.01629 -2.48651,5.67947 -0.61229,1.66319 -1.13632,2.45604 -1.16442,1.76188 z"
               id="path14429" />
            <path
               id="path14397"
               style="fill:#000000;fill-opacity:1;stroke-width:1.04102"
               d="m 359.93945,75.267578 c -2.28839,-0.137199 -5.19535,2.118099 -5.99218,5.292969 -0.28203,1.12352 -1.80385,3.028082 -3.38282,4.232422 -3.34845,2.55402 -5.7769,6.945691 -6.61133,11.957031 -0.32554,1.95485 -2.02983,5.77925 -3.7871,8.49805 -1.75727,2.7188 -3.67141,6.41946 -4.25391,8.22461 -2.15812,6.68794 -2.78681,8.03117 -5.16016,11.01757 -1.3348,1.67967 -3.61033,5.1201 -5.05468,7.64454 -1.45403,2.54148 -3.84741,5.31069 -5.36329,6.20507 -1.50569,0.88838 -3.19177,2.71042 -3.74609,4.04883 -0.5544,1.3384 -1.55897,2.64513 -2.23437,2.9043 -0.67539,0.25918 -1.99757,2.27488 -2.9375,4.47851 -4.07037,9.54348 -4.08511,9.56427 -8.70508,11.60743 -4.7212,2.08796 -6.74848,4.34155 -9.44922,10.51171 -1.14439,2.61456 -6.1464,8.42235 -15.94336,18.51172 -7.8513,8.08567 -16.33272,16.93277 -18.84961,19.66211 -2.51689,2.72935 -6.48643,6.19488 -8.82031,7.69922 -5.02099,3.23629 -5.70933,4.01737 -7.16992,8.14258 -1.29694,3.66305 -8.63036,11.55865 -14.74414,15.875 l -4.2793,3.02148 -1.11524,0.7461 c 0,0.57278 -3.88159,3.59961 -8.625,6.72461 -10.43004,6.8714 -17.75064,14.08815 -26.23046,25.86133 -5.16665,7.17306 -7.45678,9.56527 -12.05665,12.5957 -3.12337,2.05767 -9.2763,7.16592 -13.67187,11.34961 -4.39566,4.1837 -8.03956,7.54897 -8.09766,7.48047 l -0.46289,0.71679 -1.79297,3.20899 c -2.21162,3.95686 -8.33718,9.59751 -17.22265,15.85937 -8.11963,5.72217 -13.73907,12.32953 -23.50196,27.63086 -8.33148,13.05802 -12.800921,18.05837 -23.384761,26.17578 -11.248745,8.62732 -18.238798,14.21884 -22.78711,18.22657 170.934781,-34.68807 411.493201,-38.82923 617.634761,0 -0.63838,-0.43514 -1.0646,-0.76851 -1.77148,-1.23047 l -7.45898,-4.875 -13.88282,-0.53125 c -10.7973,-0.4136 -15.00534,-0.91827 -18.93164,-2.26758 -5.7732,-1.98402 -12.67883,-5.49546 -15.14453,-7.70117 -0.9256,-0.82794 -3.76525,-1.98661 -6.31055,-2.57422 -9.38809,-2.1674 -29.66214,-11.26715 -34.49804,-15.48438 -3.2106,-2.79992 -8.591,-6.13764 -10.9375,-6.78515 -3.275,-0.90375 -9.279,-5.36078 -13.75,-10.20899 l -4.07031,-4.41601 -0.41016,-1.00196 c -0.174,0.20252 -2.0585,-1.31161 -4.1875,-3.36523 -2.6871,-2.59198 -5.17417,-6.42588 -8.13477,-12.53516 -2.8899,-5.96311 -6.99964,-12.33878 -12.74414,-19.77343 -4.66287,-6.0348 -9.79253,-12.94855 -11.39843,-15.36524 -1.6059,-2.41671 -3.35016,-4.50036 -3.87696,-4.6289 -1.68743,-0.41182 -23.04492,-21.05251 -23.04492,-22.27149 0,-0.64555 -1.91225,-2.93447 -4.25,-5.08789 -2.68189,-2.47048 -5.50418,-6.3236 -7.64648,-10.44141 -2.13564,-4.10501 -4.85035,-7.81605 -7.31836,-10.0039 -12.51343,-11.09285 -17.32352,-18.01314 -22.09571,-31.78906 l -1.55078,-4.47657 c -0.487,0 -1.2122,-3.37983 -2.00976,-5.59765 -0.86412,-2.40321 -3.49825,-6.30258 -6.52149,-9.65235 -8.09346,-8.96743 -11.67488,-14.17612 -13.10156,-19.05273 -0.85916,-2.93651 -2.31788,-5.47349 -4.11133,-7.15234 -3.56048,-3.33315 -7.81109,-9.13282 -10.48633,-14.3086 -1.26682,-2.45096 -5.03416,-6.78629 -9.47265,-10.89844 -4.05337,-3.75538 -7.57956,-7.48916 -7.83594,-8.29687 -0.25629,-0.80769 -1.5643,-2.5662 -2.90625,-3.9082 -1.83376,-1.83372 -2.75839,-3.9648 -3.7207,-8.58008 -1.35113,-6.48007 -5.0476,-12.86042 -11.42383,-19.714846 -1.72194,-1.85108 -4.20077,-5.258406 -5.50781,-7.572266 -1.30703,-2.31385 -3.63111,-5.874742 -5.16407,-7.914062 -1.53303,-2.03933 -2.62856,-3.865644 -2.43554,-4.058594 l -2.10938,-1.59961 c -0.5244,-0.631867 -1.21767,-0.944501 -1.98047,-0.990234 z m -0.76172,0.679688 c 1.80818,0 6.38575,5.572088 9.89844,12.048828 1.80228,3.32303 5.27515,8.209545 7.71875,10.859375 2.44369,2.649811 4.68711,5.584821 4.98438,6.521481 0.29727,0.93666 0.84963,1.70313 1.22851,1.70313 1.40405,0 3.73165,6.55219 5.17188,14.56054 1.51259,8.41095 5.73508,19.09571 7.54687,19.09571 0.68894,0 0.72867,-0.31978 0.12891,-1.05274 -1.22264,-1.49414 -5.23438,-11.59878 -5.23438,-13.18359 0,-0.72859 1.23037,0.38777 2.73438,2.48242 1.50401,2.09464 5.85062,6.77607 9.66015,10.40235 4.28131,4.07535 7.75113,8.24372 9.08594,10.91406 3.05227,6.10594 6.59595,10.86784 10.04688,13.5 1.63258,1.24526 2.96875,2.88131 2.96875,3.63476 0,2.45277 1.97264,7.31506 4.16601,10.27149 1.18007,1.59074 2.52355,3.55058 2.98633,4.35547 0.46277,0.80489 3.19079,3.89457 6.0625,6.86718 5.12919,5.30931 8.07031,14.95313 8.07031,14.95313 l 1.1875,1.95703 c -0.21505,-0.44519 3.9678,8.45144 5.83008,13.46484 2.05698,5.53751 6.04234,10.70481 15.00977,19.45704 6.8571,6.69258 9.09861,9.48873 10.95508,13.66992 1.39715,3.14668 3.75531,6.56551 5.87304,8.51758 1.94574,1.79355 4.34155,4.53886 5.32422,6.10156 1.88996,3.00549 20.37249,20.87812 22.7832,22.03125 0.77964,0.37291 2.72943,2.62566 4.33399,5.00586 3.43132,5.08989 12.39518,17.11638 16.77148,22.50195 1.6923,2.08247 4.56803,7.13449 6.39063,11.22656 2.327,5.22453 4.76851,9.02863 8.19531,12.77344 l 4.87891,5.33399 1.03515,0.69335 5.20703,5.52344 c 4.384,4.65028 10.95304,9.04492 13.52344,9.04492 0.8578,0 9.43242,5.77841 10.04492,6.76953 0.2855,0.46193 2.66773,1.97001 5.29493,3.35157 2.6273,1.38156 5.34496,2.83321 6.03906,3.22461 5.6064,3.16112 16.88961,7.46155 22.72461,8.66211 3.6933,0.7599 6.00858,1.75355 7.14648,3.0664 0.9255,1.06794 3.95387,2.89545 6.73047,4.06055 9.6084,4.03172 15.40639,5.18875 28.27539,5.64648 l 12.28906,0.4375 7.35547,4.7461 c 0.1447,0.0933 0.23767,0.1389 0.38086,0.23047 H 66.076172 c 2.179158,-1.91288 4.30761,-3.79223 7.58789,-6.36133 1.94322,-1.52193 5.774926,-4.55217 8.515626,-6.73242 2.74071,-2.18026 5.959483,-4.56424 7.152343,-5.29883 4.92423,-3.0325 19.417969,-18.98272 19.417969,-21.36914 0,-0.95432 12.12258,-18.3888 15.67188,-22.53907 2.2839,-2.67068 7.72603,-7.31939 12.09374,-10.33203 9.57375,-6.60347 11.195,-8.06158 14.65821,-13.16406 l 2.68164,-3.94922 0.55859,-1.11523 7.08008,-6.79688 c 3.89435,-3.73875 9.03475,-8.14767 11.42383,-9.79687 6.21183,-4.28801 12.24489,-10.50874 16.7793,-17.30274 6.05785,-9.07652 24.15854,-25.66211 28.00585,-25.66211 0.53816,0 1.85614,-0.93546 2.92969,-2.07812 1.07346,-1.14267 2.25239,-1.88999 2.6211,-1.66211 l 0.76757,-1.71289 c 0,-0.10636 2.17892,-1.73236 4.83985,-3.61328 6.70859,-4.74207 12.44087,-10.84383 14.42969,-15.35742 1.72219,-3.90842 3.72144,-6.09895 7.98828,-8.75586 1.33934,-0.83396 4.74666,-4.00409 7.57226,-7.04492 2.82569,-3.04084 7.79912,-8.20085 11.05274,-11.46876 3.25354,-3.26791 7.85721,-8.05976 10.23047,-10.64843 2.37318,-2.58866 5.82755,-5.90535 7.67578,-7.36914 3.10267,-2.45736 6.89062,-8.15764 6.89062,-10.3711 0,-1.63913 5.9424,-8.26548 7.41797,-8.27148 3.1487,-0.0123 6.30996,-3.25567 8.74414,-8.9707 1.34658,-3.16146 3.31748,-6.69465 4.37891,-7.85157 1.06135,-1.15693 2.16777,-2.77871 2.45898,-3.60547 0.29112,-0.82676 1.65549,-2.15071 3.03321,-2.9414 1.3777,-0.7907 3.75083,-3.45774 5.27343,-5.92578 1.52269,-2.46805 4.02267,-6.1675 5.55469,-8.22266 1.53203,-2.05516 3.55319,-6.09708 4.49219,-8.98047 0.93909,-2.88338 3.0177,-7.22881 4.61914,-9.65625 3.08879,-4.68178 4.05533,-7.088581 4.91406,-12.251951 0.38814,-2.33368 1.77644,-4.498003 5.11328,-7.970703 2.51924,-2.62187 4.58008,-5.314105 4.58008,-5.984375 0,-1.57805 2.46534,-4.296875 3.89648,-4.296875 z"
               transform="translate(471.2282,198.27173)"
               sodipodi:nodetypes="ssssssssscscsssssscccscsscccssscccccssssscccsssssssssscccscssssssssccssscsssssssscsssssccssssssssscccsssscssscccccssssssccccssscccsssssssscsscscsccssss" />
            <path
               style="fill:#000000;fill-opacity:1;stroke-width:1.04102"
               d="m 763.06477,425.88174 c 2.57116,-5.74855 5.56227,-14.00298 7.39366,-20.40402 2.13902,-7.4762 3.79297,-9.42014 10.94338,-12.86187 3.5471,-1.70736 7.89194,-4.52877 9.6551,-6.2698 6.20139,-6.12342 16.48544,-14.91683 14.58194,-12.46835 -1.05899,1.36225 -3.51715,3.80217 -5.46256,5.42207 -1.94532,1.61989 -5.63774,4.90821 -8.20536,7.30739 -2.56763,2.39918 -6.92189,5.38695 -9.67614,6.6395 -6.98524,3.17665 -8.5893,4.95866 -10.59756,11.7734 -2.69611,9.14899 -5.50412,16.8187 -7.85912,21.46593 -2.92102,5.7645 -3.44042,5.35875 -0.77334,-0.60425 z"
               id="path14427" />
            <path
               style="fill:#000000;fill-opacity:1;stroke-width:1.04102"
               d="m 826.48402,429.92526 c 0.48154,-0.89977 1.29139,-1.89296 1.79967,-2.2071 0.50829,-0.31413 0.27337,0.42204 -0.522,1.63595 -1.68415,2.57037 -2.55626,2.96022 -1.27767,0.57115 z"
               id="path14425" />
            <path
               style="fill:#000000;fill-opacity:1;stroke-width:1.04102"
               d="m 755.41053,437.45104 c 0.28599,-0.46278 0.7093,-0.84141 0.94069,-0.84141 0.23138,0 0.1867,0.37863 -0.0993,0.84141 -0.28599,0.46277 -0.7093,0.8414 -0.94069,0.8414 -0.23138,0 -0.1867,-0.37863 0.0993,-0.8414 z"
               id="path14423" />
            <path
               style="fill:#000000;fill-opacity:1;stroke-width:1.04102"
               d="m 753.72772,439.97525 c 0.28599,-0.46278 0.7093,-0.84141 0.94069,-0.84141 0.23139,0 0.18671,0.37863 -0.0993,0.84141 -0.28599,0.46277 -0.7093,0.8414 -0.94068,0.8414 -0.23139,0 -0.18671,-0.37863 0.0993,-0.8414 z"
               id="path14421" />
            <path
               style="fill:#000000;fill-opacity:1;stroke-width:1.04102"
               d="m 752.46562,442.07875 c 0,-0.23138 0.18931,-0.4207 0.4207,-0.4207 0.23138,0 0.4207,0.18932 0.4207,0.4207 0,0.23139 -0.18932,0.4207 -0.4207,0.4207 -0.23139,0 -0.4207,-0.18931 -0.4207,-0.4207 z"
               id="path14419" />
            <path
               style="fill:#000000;fill-opacity:1;stroke-width:1.04102"
               d="m 751.20351,444.18226 c 0.286,-0.46277 0.70931,-0.8414 0.94069,-0.8414 0.23139,0 0.18671,0.37863 -0.0993,0.8414 -0.286,0.46277 -0.70931,0.8414 -0.94069,0.8414 -0.23139,0 -0.18671,-0.37863 0.0993,-0.8414 z"
               id="path14417" />
            <path
               style="fill:#000000;fill-opacity:1;stroke-width:1.04102"
               d="m 747.52776,458.84918 c -0.10307,-3.97651 2.077,-13.60127 2.89535,-12.78284 0.20202,0.20199 -0.0421,1.54169 -0.54254,2.97713 -0.50038,1.43543 -1.2096,5.18849 -1.57603,8.34012 -0.64712,5.56606 -0.66933,5.60805 -0.77678,1.46559 z"
               id="path14415" />
            <path
               style="fill:#000000;fill-opacity:1;stroke-width:1.04102"
               d="m 868.96368,490.24909 c -1.84805,-1.96678 -4.21946,-4.96906 -5.2697,-6.67173 -1.05033,-1.70267 -2.1821,-3.21719 -2.51513,-3.36562 -1.49954,-0.66835 -6.06205,-7.41617 -6.06205,-8.96565 0,-0.94733 -0.37863,-1.95643 -0.84141,-2.24243 -0.46277,-0.28601 -0.8414,-1.9646 -0.8414,-3.73019 0,-1.76559 -0.57199,-4.83136 -1.27111,-6.81282 -0.69904,-1.98146 -1.08272,-3.79104 -0.85242,-4.02129 0.61649,-0.61653 3.05513,5.5841 3.55829,9.04764 1.16938,8.04932 2.67474,10.65375 14.39422,24.90306 5.02924,6.11487 4.83479,7.3229 -0.29929,1.85903 z"
               id="path14413" />
            <path
               style="fill:#000000;fill-opacity:1;stroke-width:1.04102"
               d="m 617.18902,568.83808 c 0.32428,-1.1136 0.92874,-4.24186 1.3433,-6.95169 0.92849,-6.06878 2.06001,-7.61679 1.3189,-1.80427 -1.03408,8.10957 -1.37662,9.6218 -2.31041,10.1989 -0.64872,0.40098 -0.7581,-0.0475 -0.35179,-1.44294 z"
               id="path14409" />
            <path
               style="fill:#000000;fill-opacity:1;stroke-width:1.04102"
               d="m 596.14894,583.20421 c 0.17964,-0.53878 1.91209,-1.50812 3.84993,-2.15407 1.93783,-0.64595 3.52337,-1.71085 3.52337,-2.36644 0,-0.6556 0.4064,-1.19199 0.90308,-1.19199 2.43788,0 -0.15566,2.96751 -4.12195,4.71635 -2.51722,1.10989 -4.33785,1.54646 -4.15443,0.99615 z"
               id="path14407" />
            <path
               style="fill:#000000;fill-opacity:1;stroke-width:1.04102"
               d="m 715.46597,458.93245 c 0.69189,-4.45701 7.88176,-16.52934 13.25252,-22.25204 2.65699,-2.8311 4.60433,-4.48485 4.32734,-3.675 -0.27699,0.80986 -0.80161,1.47246 -1.16585,1.47246 -0.89332,0 -9.31854,11.21497 -12.19075,16.22734 -1.26918,2.21484 -2.83957,5.62252 -3.48981,7.57262 -1.07236,3.21614 -1.14052,3.27698 -0.73345,0.65462 z"
               id="path14401" />
            <path
               style="fill:#000000;fill-opacity:1;stroke-width:1.04102"
               d="m 880.86382,417.96478 c 0.0246,0.21547 6.47847,18.10324 8.77482,22.20965 1.00843,1.80324 1.06598,3.41982 0.10047,2.82311 -0.39412,-0.24359 -1.39892,-2.25374 -2.23283,-4.46702 -0.83392,-2.21328 -2.3455,-5.9173 -3.35914,-8.23116 -1.01355,-2.31386 -2.32648,-5.43757 -2.91765,-6.94157 -0.59108,-1.50401 -2.026,-4.61366 -2.1384,-4.83362"
               id="path14399" />
            <path
               style="fill:#000000;fill-opacity:1;stroke-width:1.04102"
               d="m 879.09109,418.52417 c 0,0 -0.27045,-2.13159 -1.21728,-4.53381 -1.38941,-3.52492 -1.7216,-6.27742 -1.7216,-14.26508 0,-5.44358 -0.33286,-10.25711 -0.73976,-10.69674 -0.4069,-0.43964 -1.20506,-2.31386 -1.77376,-4.16495 -1.76922,-5.75838 -11.00581,-25.00243 -13.06295,-27.21599 -0.83232,-0.89565 -1.18849,-0.91246 -1.70275,-0.0804 -0.44039,0.71258 -0.30762,0.84041 0.41128,0.39608 0.18357,1.33767 -1.09379,-5.22722 -0.4865,-4.0213 0.24106,0.80985 0.24114,-0.23138 1.7e-4,-2.31386 -0.24098,-2.08247 -0.62525,-4.44892 -0.85403,-5.25877 -0.22878,-0.80985 -0.0118,-1.47245 0.48213,-1.47245 0.49398,0 0.89811,0.69798 0.89811,1.55108 0,2.7239 3.00701,10.35005 8.34621,21.1668 7.89178,15.98821 9.32326,20.90829 9.32326,32.04541 0,7.64471 0.32461,10.0656 1.8308,13.65509 1.00691,2.39965 2.0394,4.64946 2.0394,4.64946"
               id="path14395" />
            <path
               style="fill:#000000;fill-opacity:1;stroke-width:1.04102"
               d="m 853.01329,432.10244 -0.4207,9.74468 c -0.40859,9.46341 -0.49971,9.84291 -3.15922,13.14752 -3.54592,4.40622 -4.41341,6.81768 -4.41341,12.26904 0,4.21543 -1.32513,8.56275 -5.16378,16.94078 -0.8621,1.88151 -1.56745,3.71277 -1.56745,4.06947 0,0.35671 -1.18023,2.29205 -2.62282,4.30079 -2.49922,3.48003 -2.58058,3.84354 -1.7274,7.71017 0.49247,2.23187 1.06395,6.45476 1.26993,9.38419 0.33656,4.78594 0.67169,5.59838 3.30335,8.00893 2.16375,1.98188 3.08677,3.66774 3.53339,6.45341 1.08356,6.75777 3.16207,14.66766 4.36276,16.60211 0.64628,1.04124 0.80101,1.89316 0.34379,1.89316 -0.45713,0 -1.17947,-0.66261 -1.60514,-1.47246 -0.91402,-1.73876 -3.89309,-12.70188 -4.7127,-17.34274 -0.37947,-2.14853 -1.5433,-4.14376 -3.43553,-5.88982 -2.77891,-2.56413 -2.88686,-2.90857 -3.72986,-11.89602 -1.14288,-12.18423 -1.17544,-11.78366 1.16072,-14.30442 3.12194,-3.36855 8.6635,-18.39313 9.1548,-24.82083 0.46942,-6.14086 1.2255,-8.19877 4.79162,-13.04175 2.37183,-3.22114 2.47836,-3.74487 2.48063,-12.20035 0.15902,-13.37123 -9.55903,-6.40657 -8.77424,-4.41736 0.78267,1.89651 2.11108,6.77202 2.57907,9.46578 0.73236,4.21587 -2.32429,-3.67884 -5.20181,-13.4351 l -2.84587,-9.64878 1.2584,-6.09206 c 0.69205,-3.35063 1.25832,-6.98107 1.25832,-8.06765 0,-1.08658 0.78999,-4.3149 1.7555,-7.17404 1.46269,-4.33122 1.70838,-6.77977 1.47246,-14.67759 -0.24056,-8.05528 -0.55331,-9.8583 -2.08223,-12.00335 -4.11059,-5.76706 -5.96748,-20.5491 -3.36401,-26.77998 0.82887,-1.98386 1.08751,-6.12124 0.93194,-14.90788 -0.23879,-13.48247 -0.96122,-16.4632 -5.96404,-24.6082 -2.44831,-3.98607 -2.80464,-5.10114 -1.95668,-6.12289 0.72075,-0.86842 1.01002,-4.76935 0.9491,-12.79584 -0.048,-6.35061 0.22508,-12.30383 0.60741,-13.22938 0.41355,-1.00108 0.72942,3.52385 0.77965,11.16965 0.0513,7.82433 -0.28162,13.65586 -0.85125,14.90603 -0.80009,1.75604 -0.60202,2.49095 1.36703,5.0726 4.71463,6.18113 6.0947,11.46122 6.59517,25.23149 0.35768,9.8418 0.20278,13.08949 -0.70215,14.72456 -1.53716,2.77721 -1.57368,15.38188 -0.0589,20.41396 0.63871,2.12251 1.98403,5.01437 2.98942,6.42637 1.70948,2.40073 1.80632,3.31893 1.49307,14.15444 -0.18654,6.45156 -0.92226,14.01117 -1.65992,17.05629 -3.5572,14.68417 -3.63419,18.57215 -0.52924,26.73883 1.17956,4.18274 10.04552,-4.2133 10.11282,-4.77113 0.0581,-1.90126 0.19984,-3.83546 0.31553,-4.29823 0.11569,-0.46277 0.26916,-1.3147 0.3411,-1.89316 0.0766,-0.61242 0.51116,-0.39718 1.04132,0.51528 0.50081,0.86188 0.70241,2.84969 0.44805,4.41737 -0.25444,1.56769 -0.30316,2.84993 -0.10829,2.85033"
               id="path14393" />
            <path
               style="fill:#000000;fill-opacity:1;stroke-width:1.04102"
               d="m 863.02179,599.75412 -2.99637,-5.81668 c -1.76676,-3.42971 1.95083,3.48625 1.3117,1.04457 -0.63913,-2.44168 -1.73741,-5.31755 -2.44057,-6.39082 -0.70325,-1.07328 -2.28408,-4.37639 -3.51294,-7.34024 -2.11336,-5.09696 -2.24394,-6.23185 -2.41138,-20.95477 -0.0974,-8.56128 -0.57291,-17.22788 -1.05664,-19.25912 -0.72217,-3.03216 -0.68473,-3.48393 0.20918,-2.5242 2.16526,2.32472 2.87482,8.62414 2.3858,21.18058 -0.54456,13.98276 0.31182,18.52073 5.27433,27.94834 1.4616,2.77663 2.90924,6.37363 3.21711,7.99333 0.30778,1.6197 -3.43986,-5.3433 -1.33198,-1.17331 l 2.82316,5.44874 z"
               id="path1032"
               sodipodi:nodetypes="cssssssssssscc" />
            <g
               aria-label="ἀρετή"
               transform="rotate(-48.898585,10.532908,26.423676)"
               id="text8713"
               style="font-size:33.3493px;line-height:0;-inkscape-font-specification:'sans-serif, Normal';text-align:justify;letter-spacing:0px;word-spacing:0px;stroke-width:1.04102">
              <path
                 d="m 183.79264,802.25593 -0.71649,-3.76157 q -0.73277,-3.85927 -3.6313,-3.85927 -2.18203,0 -3.17535,1.79122 -1.25385,2.24717 -1.25385,5.21083 0,3.58245 1.22129,5.29225 1.23757,1.74237 3.20791,1.74237 2.18204,0 3.35447,-3.46846 z m 1.67723,-4.98286 1.6121,-4.77116 h 2.67055 l -3.33819,9.88429 0.65136,3.56616 q 0.14655,0.79791 0.71649,1.46554 0.66763,0.78163 1.18872,0.78163 h 1.43298 v 2.54028 h -1.79123 q -1.53068,0 -2.89852,-1.36785 -0.66764,-0.68392 -0.94446,-2.11689 -0.74906,1.8075 -2.27974,3.2242 -0.71649,0.66763 -3.04508,0.66763 -3.8267,0 -5.68306,-2.47514 -1.90521,-2.55656 -1.90521,-7.03462 0,-4.78745 2.06805,-7.03462 2.29602,-2.50771 5.52022,-2.50771 5.06428,0 6.02502,5.17826 z m -3.33818,-10.71476 q 0,4.34778 -3.94069,4.34778 v -1.67723 q 2.18203,0.0488 2.18203,-2.50771 h -2.16575 v -2.57285 h 3.92441 z"
                 id="path111204"
                 style="stroke-width:1.04102" />
              <path
                 d="m 196.49403,795.75868 q 0.99331,-1.66096 3.45217,-3.1265 0.96075,-0.56994 3.92441,-0.56994 3.3219,0 5.38995,2.63799 2.08433,2.63798 2.08433,6.93691 0,4.29893 -2.08433,6.93692 -2.06805,2.63798 -5.38995,2.63798 -2.00291,0 -3.45217,-0.78163 -1.43298,-0.7979 -2.37745,-2.42629 v 9.6726 h -3.01251 v -15.87674 q 0,-3.76157 1.46555,-6.0413 z m 11.74065,5.87846 q 0,-3.30562 -1.36784,-5.17826 -1.35156,-1.88892 -3.729,-1.88892 -2.37744,0 -3.74529,1.88892 -1.35156,1.87264 -1.35156,5.17826 0,3.30562 1.35156,5.19455 1.36785,1.87264 3.74529,1.87264 2.37744,0 3.729,-1.87264 1.36784,-1.88893 1.36784,-5.19455 z"
                 id="path111206"
                 style="stroke-width:1.04102" />
              <path
                 d="m 219.60079,800.90437 q -1.82379,-0.39081 -2.80082,-1.44926 -0.97703,-1.04217 -0.97703,-2.55657 0,-2.29602 1.85636,-3.58244 1.84008,-1.27014 5.03171,-1.27014 1.23757,0 2.6217,0.19541 1.38412,0.1954 2.97994,0.58622 v 2.7194 q -1.57953,-0.47224 -2.88224,-0.68392 -1.31899,-0.21169 -2.47515,-0.21169 -1.93777,0 -3.06136,0.74905 -1.13987,0.74906 -1.13987,1.79122 0,1.13987 1.10731,1.87265 1.09101,0.71648 2.97994,0.71648 h 2.52399 v 2.47515 h -2.41001 q -2.23088,0 -3.40332,0.83047 -1.27014,0.9119 -1.27014,2.34488 0,1.46554 1.36785,2.37744 1.38412,0.91189 3.84298,0.91189 1.5144,0 2.89852,-0.29311 1.38413,-0.30939 2.54028,-0.91189 v 2.78453 q -1.46554,0.45595 -2.83338,0.68392 -1.38413,0.22798 -2.68684,0.22798 -3.87555,0 -5.97617,-1.48183 -2.10061,-1.48183 -2.10061,-4.29893 0,-1.75866 1.12358,-2.94738 1.12359,-1.18872 3.14278,-1.57953 z"
                 id="path111208"
                 style="stroke-width:1.04102" />
              <path
                 d="m 243.2775,807.4179 q 0.58622,0.78163 2.34487,0.78163 h 1.44926 v 2.54028 h -1.8075 q -2.9311,0 -4.26637,-1.56325 -1.33528,-1.59582 -1.33528,-5.04799 v -8.63044 h -6.83921 v -2.99622 h 16.82121 v 2.99622 h -6.92063 v 8.80956 q 0,2.36116 0.55365,3.11021 z"
                 id="path111210"
                 style="stroke-width:1.04102" />
              <path
                 d="m 265.09784,784.06688 h 3.24048 l -5.30853,6.12272 h -2.49143 z m 4.47805,15.66505 -0.0547,17.00257 -2.78669,-0.0245 -0.15485,-16.88034 c -0.0158,-1.72601 -0.33653,-3.01794 -1.0096,-3.87556 -0.67307,-0.85761 -1.68267,-1.28642 -3.0288,-1.28642 -1.61753,0 -2.89309,0.51565 -3.8267,1.54696 -0.93361,1.03131 -1.40041,2.43715 -1.40041,4.21752 v 10.30767 h -3.01251 v -18.2379 h 3.01251 v 2.83339 c 0.71649,-1.09645 1.55782,-1.91607 2.524,-2.45886 0.97703,-0.5428 2.10061,-0.8142 3.37075,-0.8142 2.09519,0 3.68015,0.64593 4.75488,1.93778 1.07473,1.30271 1.6121,3.21334 1.6121,5.73191 z"
                 id="path111212"
                 sodipodi:nodetypes="cccccsccsssssccccccscs"
                 style="stroke-width:1.04102" />
            </g>
            <path
               style="fill:#a6761d;stroke:none;stroke-width:4.37231;stroke-linecap:square;stroke-miterlimit:4;stroke-dasharray:none;stroke-opacity:1;paint-order:markers fill stroke"
               d="m 127.7486,393.02911 0.001,-8.6097 2.14697,-1.1021 c 2.45985,-1.26273 4.20761,-2.87202 3.92344,-3.61254 -0.24726,-0.64436 -0.83684,-0.41995 -1.27952,0.487 -0.51724,1.05974 -1.21242,1.60632 -3.11091,2.44592 l -1.6825,0.74408 v -23.95158 -23.95157 l 2.64345,-2.19199 c 1.45391,-1.2056 5.26229,-4.06258 8.46307,-6.34885 7.06973,-5.04979 9.25992,-7.16825 12.64817,-12.23399 1.99874,-2.9883 3.42893,-4.70221 6.26888,-7.51251 6.49381,-6.42603 10.27204,-9.70669 17.84134,-15.49171 1.27095,-0.97135 3.77025,-3.22552 5.55401,-5.00926 3.09631,-3.09628 4.80537,-5.17707 9.66618,-11.76862 6.9276,-9.39424 21.96367,-22.94881 26.72292,-24.08991 0.42214,-0.10122 1.71906,-0.98098 2.88203,-1.95504 1.16298,-0.97405 2.22842,-1.771 2.36764,-1.771 0.13923,0 0.51945,-0.45136 0.84493,-1.00301 0.3363,-0.56999 1.96082,-1.99962 3.76284,-3.31143 6.34942,-4.62215 11.2524,-9.24995 13.87205,-13.09347 0.48104,-0.70578 1.49995,-2.50019 2.26425,-3.98757 1.58104,-3.07685 3.48988,-5.22646 6.35295,-7.15426 3.13514,-2.11099 4.61356,-3.51986 14.51952,-13.83648 5.2075,-5.42337 13.44227,-13.84613 18.2995,-18.71724 9.42667,-9.45362 10.86846,-11.25912 11.77725,-14.74818 0.46612,-1.78956 1.78959,-3.71867 4.27654,-6.23354 1.85343,-1.87424 3.09821,-2.68464 4.12592,-2.68615 1.1236,-0.002 3.31118,-1.52511 4.68428,-3.26222 0.66884,-0.84614 2.2617,-3.68181 3.5397,-6.30148 1.32814,-2.72245 3.11886,-5.84807 4.1798,-7.29566 1.02089,-1.39294 2.16031,-3.03812 2.53205,-3.65595 0.37173,-0.61783 1.47019,-1.70487 2.44101,-2.41564 2.36642,-1.73252 3.71804,-3.31024 6.58143,-7.68241 1.32532,-2.02365 3.1748,-4.73902 4.10996,-6.03415 1.67682,-2.32227 4.16975,-7.12377 4.89041,-9.41916 0.77404,-2.46542 2.93183,-6.91235 5.13235,-10.57713 2.61447,-4.35418 3.38013,-6.208423 4.23861,-10.264876 0.77633,-3.668267 1.51343,-4.996819 4.77647,-8.60908 3.53195,-3.909948 4.77814,-5.591574 5.40414,-7.29243 0.5889,-1.600073 2.15636,-3.333346 3.26641,-3.61195 1.96655,-0.493572 5.78212,3.870312 10.57791,12.097989 2.29621,3.939392 4.73626,7.363365 7.65637,10.743727 2.89967,3.3567 5.15294,6.39175 5.15294,6.94076 0,0.22018 0.41104,0.70233 0.91342,1.07143 1.78741,1.31322 3.37088,5.51246 4.97031,13.18092 1.12535,5.39548 1.87004,8.21739 3.10293,11.75827 1.84162,5.28914 3.72082,8.84614 4.67351,8.84614 0.24521,0 -0.12046,-1.00689 -1.00921,-2.77898 -1.64309,-3.27614 -4.11485,-9.84202 -4.11485,-10.93051 0,-0.47808 0.13729,-0.71775 0.36794,-0.64231 0.20236,0.0662 1.49139,1.49406 2.86451,3.17304 1.37312,1.67899 5.28165,5.9076 8.68564,9.39693 6.62793,6.79411 8.37017,8.95117 10.5922,13.11425 2.42549,4.54426 4.21864,6.92645 8.13508,10.80747 2.5282,2.50533 3.82887,4.01402 3.9333,4.5624 1.02966,5.40667 2.22778,7.81189 7.5157,15.08808 0.56803,0.78158 2.43788,2.95012 4.15526,4.81898 1.71735,1.86887 3.62066,4.14851 4.22958,5.06587 1.40152,2.11144 3.68207,6.72367 4.64901,9.40213 0.40911,1.13324 1.09279,2.67941 1.51931,3.43593 1.05477,1.87089 3.7047,7.78864 5.64319,12.60223 2.91729,7.24404 5.25798,10.40839 15.172,20.51079 7.75129,7.89858 9.05964,9.5077 11.20806,13.78468 2.0157,4.01276 3.39938,5.97194 6.62391,9.37894 1.51127,1.59679 3.56038,3.98102 4.55357,5.29827 0.99319,1.31726 4.79762,5.3753 8.45434,9.01786 5.74669,5.72449 8.88206,8.60907 15.32386,14.09821 0.72851,0.62077 2.11471,2.23928 3.08044,3.59668 4.97968,6.99927 9.25977,12.79633 13.60439,18.426 5.44274,7.05264 6.49051,8.71605 10.07885,16.00074 1.40148,2.84516 3.29226,6.29135 4.20171,7.6582 2.66963,4.01221 15.15896,17.17267 19.74727,20.8084 2.61529,2.07233 5.69844,3.93401 7.42121,4.48111 0.64756,0.20565 1.57476,0.51603 2.06044,0.68974 1.1771,0.421 7.2526,4.50507 9.22238,6.19945 1.93346,1.66315 3.66567,2.68571 10.79333,6.37142 8.10565,4.19141 16.31498,7.39478 23.00697,8.97749 4.29431,1.01568 5.91458,1.70599 7.79797,3.32234 2.02921,1.74155 5.70004,3.65637 10.40388,5.42706 7.01468,2.64054 12.2595,3.54134 23.42115,4.02254 3.79321,0.16354 8.33925,0.3642 10.10231,0.44594 l 3.20554,0.14858 3.78436,2.43291 c 2.0814,1.33811 3.78473,2.53226 3.78523,2.65368 0,0.12141 -64.50222,0.22076 -143.33937,0.22076 h -143.34 l -0.41043,-0.80946 c -0.22573,-0.4452 -0.83679,-2.20026 -1.3579,-3.90012 -0.52111,-1.69987 -2.11692,-5.54112 -3.54624,-8.53611 -4.68944,-9.82622 -4.88317,-10.90874 -4.76722,-26.63856 0.0874,-11.85296 -0.11303,-15.70885 -0.96565,-18.57994 -0.40728,-1.37146 -1.53767,-3.23982 -1.80089,-2.9766 -0.06,0.06 0.0817,1.09352 0.3148,2.29671 0.454,2.34299 0.88339,10.48041 1.32691,25.1468 0.18697,6.18277 0.41583,9.69423 0.70979,10.8909 0.5525,2.24909 2.75609,7.51481 4.47576,10.69531 1.02731,1.89999 4.53421,11.3724 4.53421,12.24726 0,0.0901 -55.76437,0.16381 -123.92081,0.16381 -68.15644,0 -123.9208,-0.10597 -123.9208,-0.23548 0,-0.12952 0.16557,-0.42557 0.36793,-0.65787 0.20237,-0.23233 0.0283,-0.12637 -0.3869,0.23548 -0.74004,0.64494 -0.90607,0.65787 -8.46253,0.65787 h -7.70768 z m 19.41523,-22.84655 c 0.45407,-1.68629 1.48492,-9.06655 1.45697,-10.431 -0.0248,-1.20864 -0.0311,-1.21611 -0.29883,-0.35179 -0.15044,0.48567 -0.59307,2.67121 -0.98362,4.85675 -0.39056,2.18554 -0.84891,4.56976 -1.01855,5.29828 -0.16965,0.72851 -0.31169,1.57259 -0.31565,1.87571 -0.0118,0.90297 0.82215,0.006 1.15968,-1.24795 z m 227.88758,-27.61227 c -1.18636,-2.33521 -2.66293,-7.8384 -4.16265,-15.51422 -0.77758,-3.97978 -1.27044,-4.95328 -3.9682,-7.838 -2.50811,-2.68193 -2.5829,-2.90019 -3.26335,-9.52288 -0.24723,-2.40619 -0.72007,-5.7769 -1.05075,-7.49047 -0.33215,-1.72114 -0.52135,-3.54146 -0.42274,-4.06711 0.0982,-0.52333 1.17345,-2.4509 2.38948,-4.28348 1.21604,-1.83258 2.28995,-3.6631 2.38647,-4.06783 0.0965,-0.40473 0.87394,-2.32536 1.72761,-4.26806 3.86975,-8.80641 4.50151,-10.96549 4.99468,-17.06937 0.44237,-5.47517 0.85936,-6.79614 3.17134,-10.04646 0.84258,-1.18454 1.95333,-2.75517 2.46833,-3.49029 0.51501,-0.73512 1.07633,-2.03065 1.24738,-2.87897 0.37548,-1.86209 0.83159,-10.22375 1.07375,-19.68417 0.16192,-6.32604 0.13033,-7.04633 -0.34854,-7.94742 l -0.52661,-0.99089 -0.35346,1.47174 c -0.1944,0.80946 -0.36618,2.27013 -0.38172,3.24593 -0.0344,2.15907 -0.26714,2.51658 -3.14622,4.83269 -2.83491,2.28056 -4.26996,3.01837 -5.6452,2.90241 -1.32264,-0.11154 -1.7713,-0.80842 -2.90062,-4.50536 -0.72636,-2.37783 -0.81013,-3.10132 -0.81801,-7.06437 -0.009,-4.64756 0.2062,-6.16225 1.92384,-13.52616 1.48286,-6.35733 2.34422,-14.18585 1.02171,-9.28586 -0.37141,1.37608 -1.02775,3.7603 -1.45855,5.29827 -0.4308,1.53798 -0.9197,3.98714 -1.08645,5.44259 -0.16674,1.45546 -0.76972,5.01323 -1.33994,7.90617 l -1.03677,5.25988 1.82395,6.22258 c 2.43565,8.30946 5.58823,17.555 5.98599,17.555 0.29218,0 -1.78217,-8.14956 -2.64997,-10.41101 -0.21661,-0.56446 1.22123,-2.16804 2.55327,-2.84759 1.5949,-0.81366 3.25122,-0.75291 4.33494,0.15899 1.56713,1.31865 1.91646,2.69426 2.05583,8.09568 0.18366,7.11758 -0.011,7.91604 -3.043,12.48491 -2.802,4.22222 -3.46407,5.96256 -3.94395,10.36732 -0.67436,6.18984 -2.31085,11.99041 -5.46852,19.38323 -1.44587,3.38512 -2.69295,5.62406 -4.10075,7.3623 -1.44846,1.78843 -1.63382,2.29556 -1.63359,4.46946 2.5e-4,2.35939 1.04459,13.59105 1.49909,16.12245 0.4251,2.36763 0.89197,3.18682 3.21629,5.64344 1.40546,1.48545 2.16781,2.58538 2.60878,3.76399 0.34267,0.91587 0.62304,1.83563 0.62304,2.04391 0,0.73971 2.38515,10.10302 3.4442,13.52081 0.67849,2.18963 1.34698,3.76469 1.80975,4.26402 0.93626,1.01025 1.14426,0.4672 0.38984,-1.0178 z m 25.50905,-48.88387 c -0.52769,-0.76899 -3.09116,-4.0473 -5.69658,-7.28513 -8.60707,-10.69624 -9.91285,-13.13833 -11.44509,-21.40483 -0.49996,-2.69728 -1.97527,-7.13149 -2.68419,-8.06762 -0.40193,-0.53076 -0.4177,-0.5278 -0.42671,0.0802 -0.005,0.3472 0.24907,1.47309 0.56494,2.50196 0.86224,2.80856 1.18899,4.47734 1.48098,7.56356 0.19151,2.02431 0.42674,3.0179 0.84998,3.59036 0.32185,0.43533 0.67871,1.30629 0.79302,1.93546 0.40368,2.22184 2.70896,5.92958 5.36414,8.62753 0.8829,0.89712 2.14188,2.42814 2.79774,3.40227 0.65585,0.97413 1.79636,2.56589 2.53446,3.53724 1.56646,2.0615 6.17159,6.9172 6.56024,6.9172 0.14659,0 -0.16523,-0.62917 -0.69293,-1.39816 z M 277.14685,257.84946 c 0.24266,-1.7808 0.78087,-4.59143 1.19602,-6.24582 0.87881,-3.50211 0.77676,-4.71944 -0.14265,-1.70159 -0.86696,2.84572 -1.81498,8.66604 -1.7667,10.84656 0.0435,1.96358 0.0597,1.89782 0.71333,-2.89915 z m -29.97008,-3.23783 c 2.42708,-4.80443 10.38228,-15.91486 12.90529,-18.02383 1.61381,-1.34898 1.99718,-2.21355 0.43176,-0.97371 -4.72932,3.74569 -13.38035,16.61064 -15.58921,23.18272 -0.8995,2.67634 -0.7244,2.95387 0.23801,0.37722 0.45352,-1.21418 1.35989,-3.26727 2.01415,-4.5624 z m 33.63189,-9.04972 c 0,-0.1642 -0.19523,-0.13232 -0.44152,0.0721 -0.24284,0.20154 -0.44152,0.49889 -0.44152,0.66078 0,0.1642 0.19523,0.13233 0.44152,-0.0721 0.24284,-0.20154 0.44152,-0.49889 0.44152,-0.66078 z m 137.66174,-3.05857 c -0.40298,-0.94935 -1.52192,-3.5805 -2.48654,-5.84698 -0.96462,-2.26649 -2.78498,-6.90248 -4.04524,-10.30221 -1.26026,-3.39972 -2.33206,-6.23034 -2.38177,-6.29026 -0.0497,-0.0599 -0.42894,-0.024 -0.84273,0.0799 l -0.75235,0.18883 0.55842,1.0975 c 0.60099,1.18119 3.87964,8.96354 7.1222,16.90556 2.18262,5.34593 2.85177,6.60272 3.28484,6.16964 0.17159,-0.17158 -0.001,-0.92834 -0.45683,-2.00197 z m -136.63152,1.36456 c 0.10006,-0.16189 0.0417,-0.29435 -0.1298,-0.29435 -0.17144,0 -0.31172,0.13246 -0.31172,0.29435 0,0.16189 0.0584,0.29435 0.1298,0.29435 0.0714,0 0.21167,-0.13246 0.31172,-0.29435 z m 1.61892,-2.71213 c 0,-0.41436 -0.54903,0.0262 -0.92429,0.74167 -0.33641,0.64141 -0.33438,0.642 0.29276,0.0852 0.34734,-0.3084 0.63153,-0.68047 0.63153,-0.82683 z m 1.40344,-1.99745 c 0.20365,-0.3261 0.23985,-0.5887 0.0812,-0.5887 -0.15757,0 -0.42827,0.26492 -0.60155,0.5887 -0.17328,0.32379 -0.20981,0.5887 -0.0812,0.5887 0.12864,0 0.39934,-0.26491 0.60155,-0.5887 z m 71.31492,-7.82093 c 0.50906,-0.73989 0.85632,-1.41449 0.77169,-1.49912 -0.17078,-0.17078 -1.96331,2.19775 -1.96331,2.5942 0,0.48854 0.27757,0.23347 1.19162,-1.09508 z m -63.3014,-4.10019 c 2.05607,-4.24007 4.35914,-10.42781 6.62814,-17.8081 0.92079,-2.995 2.05833,-6.25897 2.52787,-7.25326 1.16271,-2.46217 3.57504,-4.65129 6.92583,-6.28501 5.77024,-2.81335 8.32276,-4.62499 15.30471,-10.8624 7.99884,-7.14588 8.95136,-8.03511 9.28157,-8.66486 0.31496,-0.60067 0.30207,-0.61108 -0.22373,-0.18067 -2.65956,2.17708 -7.45749,6.40168 -10.96859,9.65791 -4.51897,4.19093 -7.32111,6.19016 -11.81268,8.42792 -3.69366,1.84024 -6.54252,3.74891 -7.60018,5.09194 -1.40974,1.79012 -2.23813,3.73412 -4.16498,9.77408 -2.10915,6.61141 -4.57913,13.40565 -6.25994,17.2194 -2.87999,6.53466 -2.65029,7.09499 0.36198,0.88305 z m 27.67505,-0.80946 c 0.52892,-1.33561 1.40666,-3.31915 1.95054,-4.40788 0.54388,-1.08873 0.98217,-2.14839 0.97398,-2.35479 -0.0361,-0.90876 -4.10599,7.91643 -4.10599,8.90342 0,0.65135 0.26824,0.16533 1.18147,-2.14075 z m 88.8195,-6.83497 c 0.0426,-0.036 -0.37706,-1.06275 -0.93257,-2.28173 -2.31256,-5.07457 -2.51466,-6.20764 -2.82351,-15.82935 -0.40679,-12.67283 -1.08334,-14.98802 -9.5236,-32.58993 -5.33023,-11.11604 -7.67588,-16.97562 -8.04578,-20.09891 -0.1761,-1.48687 -0.74037,-2.38394 -1.11661,-1.77517 -0.10654,0.17239 0.0329,1.60273 0.30989,3.17854 0.27697,1.57581 0.49866,3.93936 0.49264,5.25233 -0.0117,2.54598 0.0444,2.73527 0.95769,3.22989 0.95612,0.51784 2.33792,2.8323 5.69676,9.54184 3.65813,7.30738 6.56736,13.83715 8.13084,18.24962 0.60231,1.69987 1.28983,3.39792 1.52781,3.77346 0.6117,0.96527 0.9688,4.9497 0.98082,10.94398 0.0145,7.22992 0.36007,10.01198 1.83689,14.78803 1.13181,3.66028 1.30661,4.02714 1.84092,3.86355 0.32471,-0.0994 0.62522,-0.21018 0.66781,-0.24615 z m -31.59817,-17.71283 c 0.55521,-2.0808 1.14904,-4.14752 1.31962,-4.59272 0.43314,-1.13045 -0.13145,-1.03651 -0.73029,0.12151 -1.15333,2.23031 -2.69974,8.18429 -2.29554,8.8383 0.30981,0.50128 0.61698,-0.28492 1.70621,-4.36709 z m -29.26375,-4.07456 c 0.35185,-0.72683 1.74463,-2.50255 3.09505,-3.94604 2.76689,-2.95757 3.27794,-3.78994 3.67862,-5.99146 0.16588,-0.9114 1.30882,-3.59754 2.78661,-6.54908 3.02011,-6.03196 3.6673,-8.3366 0.82659,-2.94349 -1.10855,2.1046 -2.37346,4.43074 -2.8109,5.1692 -0.43745,0.73846 -1.05144,2.3674 -1.36443,3.61986 -0.65556,2.62332 -1.24305,3.49293 -4.61976,6.83816 -1.32217,1.30984 -2.49775,2.67709 -2.6124,3.03832 -0.19169,0.60398 -0.003,2.08605 0.26558,2.08605 0.0634,0 0.40318,-0.59468 0.75504,-1.32152 z m 22.87926,-2.28425 c -0.0653,-0.52615 -0.11872,-0.0957 -0.11872,0.95663 0,1.0523 0.0534,1.48278 0.11872,0.95663 0.0653,-0.52615 0.0653,-1.38711 0,-1.91326 z m 0.2307,-15.41325 c -0.0953,-0.666 -0.7633,-2.18926 -1.48436,-3.38501 -1.57319,-2.60884 -2.8908,-5.89444 -3.40975,-8.50259 -0.24516,-1.23211 -0.38022,-4.3235 -0.37937,-8.68328 0.001,-6.76284 0.002,-6.77252 0.86796,-9.12481 l 0.86664,-2.35479 -0.0355,-7.35872 c -0.0584,-12.10993 -0.88596,-19.21084 -2.79568,-23.98942 -0.48524,-1.21419 -1.9332,-3.78322 -3.2177,-5.70897 -1.28451,-1.92575 -2.33546,-3.8068 -2.33546,-4.18011 0,-0.37331 0.21036,-1.44684 0.46748,-2.38562 0.87052,-3.17837 0.93736,-26.844939 0.0693,-24.525613 -0.1501,0.40103 -0.37841,5.831764 -0.50736,12.068297 -0.20321,9.828486 -0.3039,11.506886 -0.7558,12.598186 -0.71815,1.73426 -0.49843,2.50069 1.86407,6.50211 3.29974,5.58884 4.07112,7.36898 4.91784,11.34902 0.71131,3.34354 1.08182,10.73728 0.93039,18.56647 -0.13562,7.01201 -0.1803,7.4766 -0.94835,9.86068 -0.66854,2.07522 -0.8313,3.20484 -0.95423,6.62285 -0.26316,7.31738 0.99378,13.28969 4.05045,19.24555 1.96908,3.83672 2.34583,5.66623 2.34583,11.39149 0,1.64105 0.0993,3.63137 0.22076,4.42296 0.14653,0.95533 0.25025,-0.68855 0.30848,-4.88926 0.0482,-3.48067 0.01,-6.87341 -0.0856,-7.53942 z m 1.75288,-8.61205 c -0.41237,-2.51405 -0.47586,-4.20059 -0.33876,-8.99814 0.17492,-6.12116 0.48803,-8.24379 2.10611,-14.27758 0.72725,-2.7119 0.90749,-5.28022 0.4762,-6.78556 -0.14374,-0.50172 -0.27029,0.10707 -0.39771,1.91327 -0.11665,1.65373 -0.58135,4.03164 -1.23673,6.3285 -1.45307,5.09248 -1.71452,7.85152 -1.56884,16.55573 0.10812,6.45971 0.19615,7.58795 0.67185,8.61108 0.5034,1.08273 0.55739,1.11988 0.67139,0.46202 0.0682,-0.39345 -0.1044,-2.10765 -0.38351,-3.80932 z"
               id="path124560"
               transform="translate(471.2282,198.27173)" />
            <path
               style="fill:#a6761d;stroke:none;stroke-width:4.37231;stroke-linecap:square;stroke-miterlimit:4;stroke-dasharray:none;stroke-opacity:1;paint-order:markers fill stroke"
               d="m 127.70475,401.52923 c 0,-0.12648 -1.62422,-0.13969 -17.17593,-0.13969 H 93.352884 l 1.02429,-1.05481 c 1.098003,-1.13072 1.66818,-1.88746 1.66818,-2.21402 v -0.20308 l -0.333491,0.17309 c -0.478121,0.24818 -1.593953,1.16921 -2.799685,2.31092 l -1.043301,0.9879 H 78.972262 c -7.093139,0 -12.896615,-0.0152 -12.896615,-0.0338 0,-0.0583 2.461354,-2.19008 4.232108,-3.66539 0.933668,-0.77789 2.994641,-2.43787 4.579941,-3.68882 1.585299,-1.25096 4.222995,-3.33305 5.861546,-4.62688 4.446714,-3.51119 6.872131,-5.33172 8.537365,-6.40818 2.01901,-1.30516 5.187134,-4.19281 9.061249,-8.25906 5.536754,-5.81134 9.876944,-11.21384 10.290914,-12.80973 0.0584,-0.22527 0.21575,-0.62611 0.3496,-0.89074 0.9901,-1.95757 7.67459,-11.71649 12.29923,-17.95608 2.1859,-2.94921 3.26447,-4.24065 4.87737,-5.83993 0.84688,-0.83974 1.53978,-1.56841 1.53978,-1.61927 0,-0.0939 1.93032,-1.74005 3.4683,-2.95767 1.28495,-1.01729 4.866,-3.68839 7.2034,-5.37301 4.43881,-3.19915 6.35633,-4.7182 8.12738,-6.43848 1.8344,-1.78182 2.84497,-3.02577 4.98853,-6.14059 0.7237,-1.05161 1.58033,-2.24915 1.90364,-2.66121 0.3233,-0.41206 0.68787,-0.9323 0.81015,-1.1561 0.14257,-0.26093 1.31486,-1.48364 3.26778,-3.40832 l 3.04544,-3.00142 h 26.72417 26.72417 v 48.60073 48.60073 l -4.29092,-0.003 c -16.75128,-0.0125 -65.42478,-0.18189 -65.58883,-0.2283 l -0.20241,-0.0572 0.18282,-0.30986 0.18282,-0.30985 -0.3688,0.29209 c -0.71999,0.57025 -0.52034,0.55665 -8.72968,0.59454 -6.72467,0.0311 -7.44796,0.0208 -7.44796,-0.10529 z m -1.02062,-16.71468 c 0.8889,-0.28398 3.70583,-1.73863 4.87982,-2.51993 1.37307,-0.91379 2.27703,-1.89355 2.27703,-2.46796 0,-0.1485 -0.30568,-0.49198 -0.43783,-0.49198 -0.19084,0 -0.64571,0.49494 -0.9092,0.9893 -0.33396,0.62656 -1.02715,1.28939 -1.79398,1.7154 -0.90584,0.50324 -2.82073,1.31493 -2.96841,1.25826 -0.19821,-0.0761 -1.86217,0.76974 -2.36125,1.20023 -0.58937,0.50838 -0.56727,0.65582 0.0889,0.59332 0.28125,-0.0268 0.83245,-0.15127 1.22489,-0.27664 z m 19.76439,-13.23935 c 0.32849,-0.34965 0.65637,-1.20449 0.87257,-2.27492 0.51546,-2.55213 1.17996,-7.52954 1.24265,-9.30806 0.0392,-1.11147 0.0353,-1.14423 -0.101,-0.84844 -0.17527,0.38042 -0.5265,1.9941 -1.01701,4.67246 -0.20602,1.12498 -0.61008,3.23703 -0.8979,4.69344 -0.51238,2.59267 -0.58388,3.08674 -0.46403,3.20659 0.0969,0.0969 0.16641,0.07 0.36472,-0.14107 z"
               id="path124673"
               transform="translate(471.2282,198.27173)" />
          </g>
          <g
             id="g91295"
             transform="matrix(0.25093242,-1.2043653,1.2043653,0.25093242,134.64555,3093.4728)"
             style="stroke-width:0.224631">
            <path
               style="fill:#000000;fill-opacity:1;stroke:none;stroke-width:1.99788;stroke-miterlimit:4;stroke-dasharray:none;stroke-opacity:1"
               d="m 2045.4643,634.22627 c -1.341,0 -2.4453,1.10403 -2.4453,2.44532 v 2.24218 c -4.9516,0.47942 -9.5876,2.3995 -13.4277,5.5625 l -1.5859,-1.58594 c -0.9487,-0.94819 -2.5085,-0.94911 -3.4571,0 -0.9486,0.94866 -0.9488,2.50855 0,3.45704 l 1.4688,1.4707 -9.2364,9.23633 -1.4687,-1.47071 c -0.9487,-0.9484 -2.5086,-0.94859 -3.457,0 -0.9485,0.9487 -0.9486,2.50849 0,3.45704 l 1.4687,1.4707 -9.2363,9.23633 -1.4688,-1.47071 c -0.949,-0.94888 -2.5089,-0.94669 -3.457,0.002 -0.9487,0.94865 -0.9488,2.50854 0,3.45703 l 1.5879,1.58789 c -3.2333,3.9352 -5.0863,8.61567 -5.5547,13.42383 h -2.2519 c -1.3421,0 -2.4454,1.10592 -2.4454,2.44726 0,1.34134 1.1043,2.44531 2.4454,2.44531 h 2.2519 c 0.4685,4.80831 2.3217,9.4904 5.5547,13.42579 l -5.5859,5.58398 c -2.38,2.37987 -3.6973,5.55822 -3.6973,8.92383 0,3.36521 1.3173,6.54394 3.6973,8.92383 2.3796,2.37949 5.558,3.69922 8.9238,3.69922 3.3657,0 6.5441,-1.31951 8.9238,-3.69922 l 1.5996,-1.59766 c 3.0189,-3.01902 7.9147,-3.01866 10.9336,0 3.0188,3.01904 3.0188,7.91498 0,10.93359 -0.9484,0.94871 -0.9485,2.5085 0,3.45704 0.4746,0.47461 1.1047,0.71679 1.7285,0.71679 0.624,0 1.254,-0.24223 1.7285,-0.71679 4.916,-4.91616 4.916,-12.9313 0,-17.84766 -4.9159,-4.91595 -12.9312,-4.91615 -17.8476,0 l -1.5996,1.59766 c -1.4641,1.46421 -3.3966,2.26367 -5.4668,2.26367 -2.0704,0 -4.0029,-0.79951 -5.4668,-2.26367 -1.4641,-1.4638 -2.2617,-3.39583 -2.2617,-5.4668 0,-2.07111 0.7979,-4.00292 2.2617,-5.4668 l 5.584,-5.58203 c 3.8401,3.16274 8.4761,5.08128 13.4277,5.56055 v 2.24414 c 0,1.34129 1.1043,2.44531 2.4453,2.44531 1.3411,0 2.4453,-1.10402 2.4453,-2.44531 v -2.24414 c 4.952,-0.47916 9.5874,-2.39931 13.4278,-5.5625 l 1.5859,1.58594 c 0.4735,0.47354 1.1024,0.71874 1.7285,0.71874 0.6258,1e-5 1.2547,-0.24464 1.7285,-0.71874 0.9487,-0.94865 0.9488,-2.50854 0,-3.45704 l -1.4687,-1.46875 9.2363,-9.23632 1.4688,1.46875 c 0.4745,0.47454 1.1045,0.71679 1.7285,0.71679 0.6235,0 1.2536,-0.2415 1.7285,-0.71679 0.9486,-0.9486 0.9486,-2.50843 0,-3.45704 l -1.4688,-1.46875 9.2364,-9.23632 1.4687,1.46875 c 0.4746,0.47454 1.1046,0.71679 1.7285,0.71679 0.6236,0 1.2537,-0.24178 1.7286,-0.71679 0.9486,-0.94866 0.9487,-2.50855 0,-3.45704 l -1.5879,-1.58789 c 3.2333,-3.93543 5.0861,-8.6175 5.5546,-13.42578 h 2.252 c 1.3411,0 2.4473,-1.10301 2.4473,-2.44531 0,-1.34151 -1.1061,-2.44531 -2.4473,-2.44531 h -2.252 c -0.4684,-4.80833 -2.3215,-9.49054 -5.5546,-13.42578 l 1.5879,-1.58789 c 0.9487,-0.94864 0.9489,-2.50857 0,-3.45704 -0.9485,-0.94886 -2.5083,-0.94858 -3.4571,0 l -1.5859,1.58594 c -3.84,-3.16282 -8.476,-5.08306 -13.4277,-5.5625 v -2.24218 c 0,-1.3413 -1.1042,-2.44532 -2.4454,-2.44532 z"
               id="path4334" />
            <path
               style="fill:#7570b3;fill-opacity:1;stroke:none;stroke-width:1.99788;stroke-miterlimit:4;stroke-dasharray:none;stroke-opacity:1"
               d="m 2045.4643,643.64033 c 5.3986,6.3e-4 10.4536,2.09355 14.2657,5.90626 7.868,7.86796 7.868,20.6533 0,28.52148 l -25.3868,25.38672 c -3.8131,3.81318 -8.8689,5.90625 -14.2617,5.90625 -5.3924,0 -10.4489,-2.09312 -14.2617,-5.90625 -7.868,-7.86798 -7.868,-20.65351 0,-28.52149 l 25.3867,-25.38671 c 3.8123,-3.81258 8.866,-5.90504 14.2578,-5.90626 z"
               id="path63680" />
          </g>
        </g>
        <g
           id="g134480"
           transform="translate(-16.063718)">
          <g
             id="g133295"
             transform="matrix(1.1760661,0,0,1.1727045,-198.67122,38.854799)"
             style="stroke-width:0.22604">
            <path
               style="fill:none;fill-rule:evenodd;stroke:#000000;stroke-width:3.2925;stroke-linecap:butt;stroke-linejoin:miter;stroke-miterlimit:4;stroke-dasharray:none;stroke-opacity:1"
               d="m 1612.6943,659.3681 h -16.5509 v -25.2684 l 14.099,-0.0511 v 0"
               id="path1131"
               inkscape:connector-curvature="0"
               sodipodi:nodetypes="ccccc" />
            <path
               style="fill:none;fill-rule:evenodd;stroke:#000000;stroke-width:3.2925;stroke-linecap:butt;stroke-linejoin:miter;stroke-miterlimit:4;stroke-dasharray:none;stroke-opacity:1"
               d="m 1595.405,646.29877 h -14.5076 v -25.2684 h 20.2289 v -0.0511"
               id="path1131-7"
               inkscape:connector-curvature="0" />
            <path
               style="fill:none;fill-rule:evenodd;stroke:#000000;stroke-width:3.2925;stroke-linecap:butt;stroke-linejoin:miter;stroke-miterlimit:4;stroke-dasharray:none;stroke-opacity:1"
               d="m 1613.8436,626.83344 h -11.8514 v -25.26839 l 14.712,-0.0511 v 0"
               id="path1131-7-5"
               inkscape:connector-curvature="0"
               sodipodi:nodetypes="ccccc" />
            <path
               style="fill:none;fill-rule:evenodd;stroke:#000000;stroke-width:3.2925;stroke-linecap:butt;stroke-linejoin:miter;stroke-miterlimit:4;stroke-dasharray:none;stroke-opacity:1"
               d="m 1580.0969,633.25072 h -11.8513 v -40.97911 l 48.4493,0.007"
               id="path1131-7-5-9"
               inkscape:connector-curvature="0"
               sodipodi:nodetypes="cccc" />
            <ellipse
               cy="-626.9812"
               cx="1615.0608"
               id="path3394-6"
               style="opacity:0.99;fill:#e7298a;fill-opacity:0.99;fill-rule:evenodd;stroke:#000000;stroke-width:2.18038;stroke-miterlimit:4;stroke-dasharray:none;stroke-dashoffset:0;stroke-opacity:1"
               transform="scale(1,-1)"
               rx="4.6235256"
               ry="4.6484408" />
          </g>
        </g>
      </g>
      <g
         id="g115636"
         transform="matrix(0.00714769,0,0,-0.00714769,805.54451,292.4801)"
         style="stroke-width:18.654" />
    </g>
  </g>
</svg>
