<?xml version="1.0" encoding="UTF-8" standalone="no"?>
<!-- Created with Inkscape (http://www.inkscape.org/) -->
<svg xmlns:dc="http://purl.org/dc/elements/1.1/" xmlns:cc="http://creativecommons.org/ns#" xmlns:rdf="http://www.w3.org/1999/02/22-rdf-syntax-ns#" xmlns:svg="http://www.w3.org/2000/svg" xmlns="http://www.w3.org/2000/svg" xmlns:sodipodi="http://sodipodi.sourceforge.net/DTD/sodipodi-0.dtd" xmlns:inkscape="http://www.inkscape.org/namespaces/inkscape" width="210.00819mm" height="175.40967mm" viewBox="0 0 210.00819 175.40967" version="1.1" id="svg8" inkscape:version="0.92.4 5da689c313, 2019-01-14" sodipodi:docname="drawing.svg" inkscape:export-filename="/home/fin/etd.png" inkscape:export-xdpi="300" inkscape:export-ydpi="300">
  <defs id="defs2">
    <style id="style6" type="text/css">path { fill-rule: evenodd; }</style>
    <inkscape:perspective id="perspective10" inkscape:persp3d-origin="372.04724 : 350.78737 : 1" inkscape:vp_z="744.09449 : 526.18106 : 1" inkscape:vp_y="0 : 999.99995 : 0" inkscape:vp_x="0 : 526.18106 : 1" sodipodi:type="inkscape:persp3d"/>
    <inkscape:perspective sodipodi:type="inkscape:persp3d" inkscape:vp_x="0 : 0.49999997 : 1" inkscape:vp_y="0 : 999.99995 : 0" inkscape:vp_z="1 : 0.49999997 : 1" inkscape:persp3d-origin="0.50000001 : 0.33333331 : 1" id="perspective2824"/>
  </defs>
  <sodipodi:namedview id="base" pagecolor="#ffffff" bordercolor="#666666" borderopacity="1.0" inkscape:pageopacity="0.0" inkscape:pageshadow="2" inkscape:zoom="4" inkscape:cx="-12.351819" inkscape:cy="563.95133" inkscape:document-units="mm" inkscape:current-layer="g1005" showgrid="false" inkscape:window-width="1366" inkscape:window-height="768" inkscape:window-x="0" inkscape:window-y="0" inkscape:window-maximized="0" fit-margin-top="0" fit-margin-left="0" fit-margin-right="0" fit-margin-bottom="0"/>
  <metadata id="metadata5">
    <rdf:RDF>
      <cc:Work rdf:about="">
        <dc:format>image/svg+xml</dc:format>
        <dc:type rdf:resource="http://purl.org/dc/dcmitype/StillImage"/>
        <dc:title/>
      </cc:Work>
    </rdf:RDF>
  </metadata>
  <g inkscape:label="Layer 1" inkscape:groupmode="layer" id="layer1" transform="translate(-0.00494269,-1.4944514)">
    <g id="g1005" transform="translate(0,1.6036172)">
      <rect style="opacity:1;fill:#ffffff;fill-opacity:0.99215686;stroke:none;stroke-width:0.88586777;stroke-miterlimit:4;stroke-dasharray:none;stroke-dashoffset:0;stroke-opacity:1" id="rect1011" width="210.05792" height="175.40141" x="0.014013791" y="-0.10260793"/>
      <rect style="opacity:1;fill:#ececec;fill-opacity:0.99215686;stroke:#000000;stroke-width:0.88828534;stroke-miterlimit:4;stroke-dasharray:none;stroke-dashoffset:0;stroke-opacity:1" id="rect3973-0-7" width="209.16603" height="24.051994" x="0.44908535" y="87.920784"/>
      <rect y="96.555717" x="60.287487" height="6.4869046" width="19.460714" id="rect815-6-7-6-2-8" style="opacity:0.98999999;fill:#ff001e;fill-opacity:1;stroke:#000000;stroke-width:0.98069745;stroke-miterlimit:4;stroke-dasharray:none;stroke-dashoffset:0;stroke-opacity:1"/>
      <text id="text1266" y="102.5113" x="164.53668" style="font-style:normal;font-weight:normal;font-size:8.64920616px;line-height:1.25;font-family:sans-serif;letter-spacing:0px;word-spacing:0px;fill:#000000;fill-opacity:1;stroke:none;stroke-width:0.21623014" xml:space="preserve"><tspan id="tspan1268" style="stroke-width:0.21623014" y="102.5113" x="164.53668" sodipodi:role="line">New ARG</tspan></text>
      <text xml:space="preserve" style="font-style:normal;font-weight:normal;font-size:10.58333302px;line-height:1.25;font-family:sans-serif;letter-spacing:0px;word-spacing:0px;fill:#000000;fill-opacity:1;stroke:none;stroke-width:0.26458332" x="167.82143" y="25.899359" id="text1223"><tspan sodipodi:role="line" x="167.82143" y="35.263126" style="stroke-width:0.26458332" id="tspan1225"/></text>
      <rect style="opacity:1;fill:#ececec;fill-opacity:0.99215686;stroke:#000000;stroke-width:1.0099889;stroke-miterlimit:4;stroke-dasharray:none;stroke-dashoffset:0;stroke-opacity:1" id="rect3973-0" width="209.04192" height="31.112658" x="0.5132392" y="40.59454"/>
      <rect y="46.422947" x="4.174427" height="1.1773311" width="123.87294" id="rect868" style="opacity:0.98999999;fill:#262626;fill-opacity:1;stroke:none;stroke-width:0.98069745;stroke-miterlimit:4;stroke-dasharray:0.98069739, 1.96139479;stroke-dashoffset:0;stroke-opacity:1"/>
      <rect y="43.768162" x="13.090899" height="6.4869046" width="19.460714" id="rect815" style="opacity:0.98999999;fill:#7fc97f;fill-opacity:1;stroke:#000000;stroke-width:0.98069745;stroke-miterlimit:4;stroke-dasharray:none;stroke-dashoffset:0;stroke-opacity:1"/>
      <rect y="43.768162" x="42.487907" height="6.4869046" width="19.460714" id="rect815-3" style="opacity:0.98999999;fill:#beaed4;fill-opacity:1;stroke:#000000;stroke-width:0.98069745;stroke-miterlimit:4;stroke-dasharray:none;stroke-dashoffset:0;stroke-opacity:1"/>
      <rect y="43.768162" x="71.079041" height="6.4869046" width="19.460714" id="rect815-6" style="opacity:0.98999999;fill:#fdc086;fill-opacity:1;stroke:#000000;stroke-width:0.98069745;stroke-miterlimit:4;stroke-dasharray:none;stroke-dashoffset:0;stroke-opacity:1"/>
      <rect y="43.768162" x="100.92153" height="6.4869046" width="19.460714" id="rect815-7" style="opacity:0.98999999;fill:#ffff99;fill-opacity:1;stroke:#000000;stroke-width:0.98069745;stroke-miterlimit:4;stroke-dasharray:none;stroke-dashoffset:0;stroke-opacity:1"/>
      <rect y="55.579617" x="4.174427" height="1.1773311" width="123.87294" id="rect868-9" style="opacity:0.98999999;fill:#262626;fill-opacity:1;stroke:none;stroke-width:0.98069745;stroke-miterlimit:4;stroke-dasharray:0.98069739, 1.96139479;stroke-dashoffset:0;stroke-opacity:1"/>
      <rect y="52.924831" x="13.090899" height="6.4869046" width="19.460714" id="rect815-1" style="opacity:0.98999999;fill:#7fc97f;fill-opacity:1;stroke:#000000;stroke-width:0.98069745;stroke-miterlimit:4;stroke-dasharray:none;stroke-dashoffset:0;stroke-opacity:1"/>
      <rect y="52.924831" x="42.487907" height="6.4869046" width="19.460714" id="rect815-3-2" style="opacity:0.98999999;fill:#beaed4;fill-opacity:1;stroke:#000000;stroke-width:0.98069745;stroke-miterlimit:4;stroke-dasharray:none;stroke-dashoffset:0;stroke-opacity:1"/>
      <rect y="52.924831" x="71.079041" height="6.4869046" width="19.460714" id="rect815-6-7" style="opacity:0.98999999;fill:#fdc086;fill-opacity:1;stroke:#000000;stroke-width:0.98069745;stroke-miterlimit:4;stroke-dasharray:none;stroke-dashoffset:0;stroke-opacity:1"/>
      <rect y="52.924831" x="100.92153" height="6.4869046" width="19.460714" id="rect815-7-0" style="opacity:0.98999999;fill:#ffff99;fill-opacity:1;stroke:#000000;stroke-width:0.98069745;stroke-miterlimit:4;stroke-dasharray:none;stroke-dashoffset:0;stroke-opacity:1"/>
      <rect y="64.736282" x="4.174427" height="1.1773311" width="123.87294" id="rect868-9-3" style="opacity:0.98999999;fill:#262626;fill-opacity:1;stroke:none;stroke-width:0.98069745;stroke-miterlimit:4;stroke-dasharray:0.98069739, 1.96139479;stroke-dashoffset:0;stroke-opacity:1"/>
      <rect y="62.08149" x="13.090899" height="6.4869046" width="19.460714" id="rect815-1-6" style="opacity:0.98999999;fill:#7fc97f;fill-opacity:1;stroke:#000000;stroke-width:0.98069745;stroke-miterlimit:4;stroke-dasharray:none;stroke-dashoffset:0;stroke-opacity:1"/>
      <rect y="62.08149" x="42.487907" height="6.4869046" width="19.460714" id="rect815-3-2-0" style="opacity:0.98999999;fill:#beaed4;fill-opacity:1;stroke:#000000;stroke-width:0.98069745;stroke-miterlimit:4;stroke-dasharray:none;stroke-dashoffset:0;stroke-opacity:1"/>
      <rect y="62.08149" x="71.079041" height="6.4869046" width="19.460714" id="rect815-6-7-6" style="opacity:0.98999999;fill:#fdc086;fill-opacity:1;stroke:#000000;stroke-width:0.98069745;stroke-miterlimit:4;stroke-dasharray:none;stroke-dashoffset:0;stroke-opacity:1"/>
      <rect y="62.08149" x="100.92153" height="6.4869046" width="19.460714" id="rect815-7-0-2" style="opacity:0.98999999;fill:#ffff99;fill-opacity:1;stroke:#000000;stroke-width:0.98069745;stroke-miterlimit:4;stroke-dasharray:none;stroke-dashoffset:0;stroke-opacity:1"/>
      <text xml:space="preserve" style="font-style:normal;font-weight:normal;font-size:8.64920616px;line-height:1.25;font-family:sans-serif;letter-spacing:0px;word-spacing:0px;fill:#000000;fill-opacity:1;stroke:none;stroke-width:0.21623014" x="162.26384" y="53.586357" id="text1231"><tspan sodipodi:role="line" id="tspan1229" x="162.26384" y="53.586357" style="stroke-width:0.21623014">Closest</tspan><tspan sodipodi:role="line" x="162.26384" y="64.397865" style="stroke-width:0.21623014" id="tspan1233">Relatives</tspan></text>
      <rect style="opacity:1;fill:#ececec;fill-opacity:0.99215686;stroke:#000000;stroke-width:0.88815194;stroke-miterlimit:4;stroke-dasharray:none;stroke-dashoffset:0;stroke-opacity:1" id="rect3973" width="209.14815" height="24.046827" x="0.46523875" y="0.33454871"/>
      <rect y="11.162887" x="4.6699204" height="1.1773311" width="152.52289" id="rect868-9-3-1" style="opacity:0.98999999;fill:#262626;fill-opacity:1;stroke:none;stroke-width:1.08821404;stroke-miterlimit:4;stroke-dasharray:1.08821396, 2.17642793;stroke-dashoffset:0;stroke-opacity:1"/>
      <rect y="8.6178665" x="70.86898" height="6.4869046" width="19.490248" id="rect815-6-7-6-2" style="opacity:0.98999999;fill:#ff001e;fill-opacity:1;stroke:#000000;stroke-width:0.98144132;stroke-miterlimit:4;stroke-dasharray:none;stroke-dashoffset:0;stroke-opacity:1"/>
      <rect y="8.5081005" x="12.792833" height="6.4869046" width="19.490248" id="rect815-1-6-8" style="opacity:0.98999999;fill:#7fc97f;fill-opacity:1;stroke:#000000;stroke-width:0.98144132;stroke-miterlimit:4;stroke-dasharray:none;stroke-dashoffset:0;stroke-opacity:1"/>
      <rect y="8.5081005" x="42.234455" height="6.4869046" width="19.490248" id="rect815-3-2-0-7" style="opacity:0.98999999;fill:#beaed4;fill-opacity:1;stroke:#000000;stroke-width:0.98144132;stroke-miterlimit:4;stroke-dasharray:none;stroke-dashoffset:0;stroke-opacity:1"/>
      <rect y="8.5081005" x="100.75676" height="6.4869046" width="19.490248" id="rect815-6-7-6-9" style="opacity:0.98999999;fill:#fdc086;fill-opacity:1;stroke:#000000;stroke-width:0.98144132;stroke-miterlimit:4;stroke-dasharray:none;stroke-dashoffset:0;stroke-opacity:1"/>
      <rect y="8.5081005" x="130.19838" height="6.4869046" width="19.490248" id="rect815-7-0-2-2" style="opacity:0.98999999;fill:#ffff99;fill-opacity:1;stroke:#000000;stroke-width:0.98144132;stroke-miterlimit:4;stroke-dasharray:none;stroke-dashoffset:0;stroke-opacity:1"/>
      <text xml:space="preserve" style="font-style:normal;font-weight:normal;font-size:8.65576649px;line-height:1.25;font-family:sans-serif;letter-spacing:0px;word-spacing:0px;fill:#000000;fill-opacity:1;stroke:none;stroke-width:0.21639416" x="162.06923" y="9.5775061" id="text1245" transform="scale(1.0007585,0.99924206)"><tspan sodipodi:role="line" id="tspan1243" x="162.06923" y="9.5775061" style="stroke-width:0.21639416">Predicted</tspan><tspan sodipodi:role="line" x="162.06923" y="20.397215" style="stroke-width:0.21639416" id="tspan1247">ARGs</tspan></text>
      <text xml:space="preserve" style="font-style:normal;font-weight:normal;font-size:10.58333302px;line-height:1.25;font-family:sans-serif;letter-spacing:0px;word-spacing:0px;fill:#000000;fill-opacity:1;stroke:none;stroke-width:0.26458332" x="81.131783" y="35.348763" id="text4061"><tspan sodipodi:role="line" id="tspan4059" x="81.131783" y="35.348763" style="stroke-width:0.26458332">Compare</tspan></text>
      <text xml:space="preserve" style="font-style:normal;font-weight:normal;font-size:10.58333302px;line-height:1.25;font-family:sans-serif;letter-spacing:0px;word-spacing:0px;fill:#000000;fill-opacity:1;stroke:none;stroke-width:0.26458332" x="84.813728" y="83.184372" id="text4075"><tspan sodipodi:role="line" id="tspan4073" x="84.813728" y="83.184372" style="stroke-width:0.26458332">Identify</tspan></text>
      <text xml:space="preserve" style="font-style:normal;font-weight:normal;font-size:10.58333302px;line-height:1.25;font-family:sans-serif;letter-spacing:0px;word-spacing:0px;fill:#000000;fill-opacity:1;stroke:none;stroke-width:0.26458332" x="84.560516" y="123.00754" id="text4079"><tspan sodipodi:role="line" id="tspan4077" x="84.560516" y="123.00754" style="stroke-width:0.26458332">Analyse</tspan></text>
      <rect style="opacity:1;fill:#ececec;fill-opacity:0.99215686;stroke:#000000;stroke-width:1.23242033;stroke-miterlimit:4;stroke-dasharray:none;stroke-dashoffset:0;stroke-opacity:1" id="rect3973-0-7-8" width="208.76643" height="46.386791" x="0.66657054" y="128.29767"/>
      <text id="text1266-4" y="154.6395" x="166.42157" style="font-style:normal;font-weight:normal;font-size:8.64920616px;line-height:1.25;font-family:sans-serif;letter-spacing:0px;word-spacing:0px;fill:#000000;fill-opacity:1;stroke:none;stroke-width:0.21623014" xml:space="preserve"><tspan id="tspan1268-3" style="stroke-width:0.21623014" y="154.6395" x="166.42157" sodipodi:role="line">Context</tspan></text>
      <text id="text3719" y="168.32782" x="53.331264" style="font-style:normal;font-weight:normal;font-size:8.64920616px;line-height:1.25;font-family:sans-serif;letter-spacing:0px;word-spacing:0px;fill:#000000;fill-opacity:1;stroke:none;stroke-width:0.21623014" xml:space="preserve"><tspan style="stroke-width:0.21623014" y="168.32782" x="53.331264" id="tspan3717" sodipodi:role="line">Mobility</tspan></text>
      <circle r="9.0831051" style="opacity:0.98999999;fill:none;fill-opacity:1;stroke:#000000;stroke-width:1.04190278;stroke-miterlimit:4;stroke-dasharray:none;stroke-dashoffset:0;stroke-opacity:1" id="path1195" cx="70.608559" cy="150.35756"/>
      <rect y="140.7117" x="65.641296" height="3.253993" width="9.7619781" id="rect815-6-7-6-2-3-2" style="opacity:0.98999999;fill:#ff001e;fill-opacity:1;stroke:#000000;stroke-width:0.49194229;stroke-miterlimit:4;stroke-dasharray:none;stroke-dashoffset:0;stroke-opacity:1"/>
      <text id="text3715" y="169.16612" x="4.2737694" style="font-style:normal;font-weight:normal;font-size:8.64920616px;line-height:1.25;font-family:sans-serif;letter-spacing:0px;word-spacing:0px;fill:#000000;fill-opacity:1;stroke:none;stroke-width:0.21623014" xml:space="preserve"><tspan style="stroke-width:0.21623014" y="169.16612" x="4.2737694" id="tspan3713" sodipodi:role="line">Evolution</tspan></text>
      <path style="fill:none;fill-rule:evenodd;stroke:#000000;stroke-width:0.95209372;stroke-linecap:butt;stroke-linejoin:miter;stroke-miterlimit:4;stroke-dasharray:none;stroke-opacity:1" d="m 32.373547,133.63431 h -6.255229 v 9.49868 l 5.328529,0.0193 v 0" id="path1131" inkscape:connector-curvature="0" sodipodi:nodetypes="ccccc"/>
      <path style="fill:none;fill-rule:evenodd;stroke:#000000;stroke-width:0.95209372;stroke-linecap:butt;stroke-linejoin:miter;stroke-miterlimit:4;stroke-dasharray:none;stroke-opacity:1" d="m 25.839262,138.54722 h -5.482979 v 9.4987 h 7.64528 v 0.0193" id="path1131-7" inkscape:connector-curvature="0"/>
      <path style="fill:none;fill-rule:evenodd;stroke:#000000;stroke-width:0.95209372;stroke-linecap:butt;stroke-linejoin:miter;stroke-miterlimit:4;stroke-dasharray:none;stroke-opacity:1" d="m 32.807864,145.86447 h -4.479052 v 9.49869 l 5.560204,0.0193 v 0" id="path1131-7-5" inkscape:connector-curvature="0" sodipodi:nodetypes="ccccc"/>
      <path style="fill:none;fill-rule:evenodd;stroke:#000000;stroke-width:0.95209372;stroke-linecap:butt;stroke-linejoin:miter;stroke-miterlimit:4;stroke-dasharray:none;stroke-opacity:1" d="m 20.053765,143.45215 h -4.479052 v 15.40452 l 18.310789,-0.002" id="path1131-7-5-9" inkscape:connector-curvature="0" sodipodi:nodetypes="cccc"/>
      <circle r="1.7474035" cy="142.91969" cx="31.434586" id="path3394-6" style="opacity:0.98999999;fill:#ff001e;fill-opacity:0.99215686;fill-rule:evenodd;stroke:#000000;stroke-width:0.39227897;stroke-miterlimit:4;stroke-dasharray:none;stroke-dashoffset:0;stroke-opacity:1"/>
      <text xml:space="preserve" style="font-style:normal;font-weight:normal;font-size:8.64920616px;line-height:1.25;font-family:sans-serif;letter-spacing:0px;word-spacing:0px;fill:#000000;fill-opacity:1;stroke:none;stroke-width:0.21623014" x="101.93642" y="168.32782" id="text3723"><tspan sodipodi:role="line" id="tspan3721" x="101.93642" y="168.32782" style="stroke-width:0.21623014">Geography</tspan></text>
      <path id="path2830" d="m 109.94501,159.10825 c -0.23141,-0.0866 -0.29613,-0.17139 -0.24117,-0.31597 0.0255,-0.067 0.0744,-0.12177 0.1087,-0.12177 0.0343,0 0.18454,0.0789 0.33383,0.17543 0.14928,0.0965 0.33183,0.19737 0.40566,0.22418 l 0.13423,0.0487 -0.16514,0.004 c -0.0908,0.002 -0.22407,0.0121 -0.2961,0.0226 -0.072,0.0104 -0.19804,-0.006 -0.28001,-0.0368 z m -0.52522,-0.44452 c -0.0436,-0.0244 -0.11621,-0.0326 -0.16142,-0.0182 -0.0569,0.0181 -0.10091,-0.009 -0.14304,-0.0876 -0.0335,-0.0625 -0.0934,-0.12487 -0.13326,-0.13857 -0.0914,-0.0314 -0.28297,-0.34183 -0.38961,-0.63123 -0.0538,-0.14616 -0.12628,-0.2472 -0.21226,-0.2961 -0.15257,-0.0868 -0.1635,-0.12615 -0.0454,-0.16363 0.13511,-0.0429 0.16024,-0.28104 0.0465,-0.44075 -0.0543,-0.0762 -0.0828,-0.16572 -0.0665,-0.20834 0.0193,-0.0503 -0.034,-0.13853 -0.16293,-0.26993 -0.16278,-0.16586 -0.19288,-0.22615 -0.20016,-0.40092 -0.005,-0.11313 -0.0323,-0.23424 -0.0612,-0.26913 -0.0365,-0.0439 -0.0439,-0.20169 -0.0242,-0.51356 0.0213,-0.33798 0.009,-0.54659 -0.0499,-0.83733 -0.0873,-0.43178 -0.13194,-1.23626 -0.10925,-1.97022 0.005,-0.15659 -0.0155,-0.37158 -0.0451,-0.47775 -0.0722,-0.25855 -0.40438,-0.5849 -0.81493,-0.80064 -0.29363,-0.1543 -0.33493,-0.19386 -0.44971,-0.43086 -0.0695,-0.14353 -0.20237,-0.35805 -0.29523,-0.4767 -0.0929,-0.11865 -0.19382,-0.2929 -0.22436,-0.38721 -0.0969,-0.29935 -0.26777,-0.60013 -0.38424,-0.67644 -0.062,-0.0406 -0.13267,-0.14621 -0.1571,-0.23467 -0.0395,-0.14312 -0.0291,-0.18308 0.0946,-0.36288 0.13413,-0.19495 0.13571,-0.2029 0.0451,-0.22661 -0.22274,-0.0582 -0.12906,-0.35595 0.27074,-0.86045 0.26572,-0.33531 0.34356,-0.59075 0.26995,-0.88586 -0.0281,-0.11246 -0.0532,-0.23009 -0.0558,-0.26141 -0.003,-0.0313 -0.0226,-0.0569 -0.0444,-0.0569 -0.0218,0 -0.0176,-0.0411 0.009,-0.0913 0.0414,-0.0774 0.031,-0.0995 -0.0686,-0.14481 -0.14504,-0.0661 -0.36404,-7.6e-4 -0.36489,0.10885 -10e-4,0.13144 -0.0588,0.14112 -0.2494,0.0418 -0.10207,-0.0532 -0.2081,-0.0967 -0.23561,-0.0967 -0.0275,0 -0.1345,-0.0728 -0.23775,-0.16173 -0.10326,-0.089 -0.21336,-0.182 -0.24468,-0.20679 -0.0313,-0.0248 -0.057,-0.0923 -0.057,-0.15009 0,-0.0578 -0.0402,-0.14143 -0.0894,-0.18593 -0.0492,-0.0445 -0.11288,-0.15205 -0.14158,-0.23902 -0.0377,-0.11431 -0.066,-0.14434 -0.10193,-0.10838 -0.0751,0.075 -0.18617,0.0608 -0.45586,-0.0585 -0.14099,-0.0624 -0.28788,-0.16884 -0.34655,-0.25123 -0.056,-0.0787 -0.16301,-0.17465 -0.23779,-0.21332 -0.1234,-0.0638 -0.15426,-0.0633 -0.33401,0.005 l -0.19806,0.0756 -0.60764,-0.29445 c -0.37378,-0.18112 -0.66386,-0.3539 -0.75371,-0.44892 -0.13931,-0.14732 -0.14382,-0.16332 -0.0975,-0.34595 0.0425,-0.1673 0.0353,-0.21906 -0.0571,-0.40986 -0.0581,-0.12011 -0.18518,-0.3046 -0.2823,-0.40997 -0.0971,-0.10537 -0.16555,-0.20943 -0.15207,-0.23125 0.0135,-0.0218 -0.0549,-0.16885 -0.15203,-0.32674 -0.11031,-0.17938 -0.18816,-0.37152 -0.2075,-0.51213 -0.0248,-0.18025 -0.0537,-0.2354 -0.14512,-0.27707 -0.0969,-0.0442 -0.124043,-0.0385 -0.179546,0.0373 -0.07817,0.10679 -0.05595,0.21953 0.116896,0.59305 0.0702,0.15178 0.14283,0.3768 0.16131,0.50003 0.0185,0.12322 0.0731,0.3014 0.12129,0.39595 0.11424,0.22393 0.0405,0.21998 -0.13968,-0.007 -0.10626,-0.13416 -0.13495,-0.20773 -0.11384,-0.29187 0.0225,-0.0898 3.8e-4,-0.13309 -0.110086,-0.21476 -0.167494,-0.12383 -0.202943,-0.20372 -0.141417,-0.31868 0.03588,-0.067 0.01943,-0.14056 -0.07169,-0.32037 -0.09253,-0.1826 -0.111884,-0.27105 -0.08898,-0.40666 0.03745,-0.22166 -0.062,-0.42229 -0.247398,-0.49908 -0.107042,-0.0443 -0.143942,-0.0939 -0.165752,-0.2228 -0.01543,-0.0912 -0.04498,-0.23222 -0.06567,-0.31346 -0.02152,-0.0845 -0.01996,-0.1586 0.0037,-0.1732 0.0227,-0.014 0.0078,-0.0765 -0.03301,-0.13888 -0.06018,-0.0918 -0.0643,-0.13531 -0.02169,-0.22881 0.02893,-0.0635 0.03984,-0.13607 0.02426,-0.16128 -0.01558,-0.0252 0.02325,-0.10055 0.08629,-0.16741 0.06304,-0.0669 0.146975,-0.20022 0.186515,-0.29635 0.03954,-0.0961 0.161389,-0.27431 0.270777,-0.39597 0.109387,-0.12167 0.248063,-0.33479 0.308171,-0.4736 0.0834,-0.19269 0.13233,-0.25258 0.20672,-0.25317 0.0536,-4.4e-4 0.0946,0.0248 0.0911,0.0562 -0.0145,0.13051 0.0887,0.0903 0.2046,-0.0797 0.0683,-0.10022 0.10519,-0.18905 0.0819,-0.1974 -0.0233,-0.008 -0.0423,-0.0461 -0.0423,-0.0838 0,-0.0377 -0.0943,-0.16025 -0.20957,-0.27228 -0.19118,-0.1858 -0.20345,-0.21043 -0.13988,-0.28068 0.0515,-0.0569 0.0576,-0.0987 0.0232,-0.16004 -0.0604,-0.10786 0.0349,-0.34939 0.13816,-0.35036 0.0426,-4.4e-4 0.0548,-0.0149 0.0286,-0.0342 -0.0588,-0.0432 -0.0854,-0.1412 -0.0771,-0.28401 0.0132,-0.2281 -0.0367,-0.32352 -0.20632,-0.39438 -0.0915,-0.0382 -0.231053,-0.11886 -0.310175,-0.17921 -0.07912,-0.0603 -0.179505,-0.10973 -0.223076,-0.10973 -0.04357,0 -0.24162,-0.0415 -0.440112,-0.0921 -0.319119,-0.0815 -0.375363,-0.0847 -0.485909,-0.0278 -0.229088,0.1179 -0.4718,0.16596 -0.570749,0.113 -0.07422,-0.0397 -0.155216,-0.0152 -0.437653,0.13255 -0.190615,0.0997 -0.418322,0.19676 -0.506013,0.21567 -0.08769,0.0189 -0.255514,0.0828 -0.37294,0.14196 -0.333068,0.16783 -0.81019,0.33701 -0.942168,0.33408 -0.08517,-0.002 -0.02759,-0.0393 0.19903,-0.12912 0.385139,-0.15273 0.780888,-0.35163 0.817495,-0.41086 0.04508,-0.0729 -0.05278,-0.0991 -0.170345,-0.0456 -0.08655,0.0394 -0.139896,0.0358 -0.239774,-0.0166 l -0.12846,-0.0673 0.139734,-0.0723 c 0.157963,-0.0817 0.207653,-0.1741 0.17136,-0.3187 -0.03515,-0.14005 0.15865,-0.24295 0.576148,-0.30591 0.224327,-0.0338 0.394863,-0.0901 0.509679,-0.16831 0.202464,-0.13782 0.16768,-0.24199 -0.05061,-0.15157 -0.103339,0.0428 -0.178611,0.0433 -0.33165,0.002 -0.185986,-0.0501 -0.192612,-0.0572 -0.109423,-0.11806 0.139198,-0.10178 0.427088,-0.163 0.616238,-0.13105 0.119691,0.0202 0.217732,0.006 0.318355,-0.046 l 0.145396,-0.0752 -0.09571,-0.10188 c -0.05264,-0.056 -0.09571,-0.11393 -0.09571,-0.12866 0,-0.0423 0.274239,-0.12679 0.411363,-0.12679 0.06844,0 0.25607,-0.0496 0.416953,-0.1101 0.160881,-0.0606 0.532056,-0.14323 0.824833,-0.18372 0.474863,-0.0657 0.575413,-0.0665 0.931493,-0.007 0.21954,0.0364 0.52216,0.0798 0.67248,0.0965 0.15033,0.0167 0.41641,0.0695 0.59129,0.11753 0.40617,0.11143 0.67071,0.11007 1.12446,-0.006 0.20037,-0.0512 0.40288,-0.0808 0.45002,-0.0658 0.0472,0.015 0.12731,0.005 0.17814,-0.0223 0.07,-0.0375 0.12435,-0.0329 0.22428,0.0187 0.0903,0.0467 0.20172,0.06 0.35345,0.0423 0.16008,-0.0187 0.30025,6.7e-4 0.50488,0.0699 0.1558,0.0527 0.32884,0.0958 0.38453,0.0958 0.0986,0 0.099,0.002 0.0128,0.0651 -0.0845,0.0622 -0.0847,0.0665 -0.005,0.0973 0.0457,0.0177 0.2042,0.0195 0.35228,0.004 0.26744,-0.028 0.26975,-0.0272 0.34433,0.11705 l 0.0751,0.14519 0.0975,-0.12223 c 0.056,-0.0702 0.18909,-0.1498 0.31289,-0.18706 0.18711,-0.0563 0.2439,-0.0561 0.43183,0.001 0.13266,0.0406 0.29143,0.0554 0.41035,0.0383 0.15141,-0.0219 0.22172,-0.008 0.32051,0.0621 0.12473,0.0888 0.12818,0.0889 0.2388,0.003 0.0617,-0.0478 0.18877,-0.10831 0.2823,-0.13437 0.22391,-0.0624 0.29986,-0.19532 0.16539,-0.2895 -0.0951,-0.0666 -0.0909,-0.0717 0.15902,-0.19428 0.18642,-0.0914 0.27037,-0.11219 0.3067,-0.0759 0.0363,0.0363 0.036,0.0763 -10e-4,0.14603 -0.0636,0.11884 0.0156,0.29847 0.11476,0.2604 0.0357,-0.0137 0.0948,-0.0134 0.13146,6.8e-4 0.0576,0.0221 0.0566,0.0408 -0.007,0.13758 -0.17515,0.26731 0.21752,0.19157 0.48335,-0.0932 0.10808,-0.11579 0.27554,-0.1509 0.43249,-0.0907 0.10137,0.0389 0.0919,0.0707 -0.076,0.25479 -0.20004,0.21935 -0.30241,0.26421 -0.60286,0.26421 -0.14522,0 -0.31664,0.0315 -0.39652,0.0728 -0.11057,0.0572 -0.16449,0.0619 -0.2517,0.0222 -0.16259,-0.0741 -0.21919,-0.0124 -0.10256,0.11173 l 0.0995,0.10597 -0.19862,0.0564 c -0.10925,0.031 -0.29088,0.0594 -0.40362,0.063 -0.16351,0.005 -0.20506,0.0231 -0.20531,0.0877 -2.5e-4,0.0553 -0.0798,0.11351 -0.25055,0.18332 -0.55339,0.22621 -1.02283,0.63407 -0.85287,0.741 0.0318,0.02 0.0824,0.0922 0.11234,0.16044 0.0345,0.0786 0.10093,0.13333 0.18126,0.14941 0.0697,0.014 0.24982,0.086 0.40014,0.15999 0.15033,0.074 0.33483,0.148 0.40999,0.16438 0.20694,0.0451 0.20875,0.0498 0.11237,0.29436 -0.0825,0.20918 -0.0841,0.23904 -0.0202,0.3626 0.0383,0.0741 0.0947,0.13392 0.1254,0.13303 0.14927,-0.004 0.28923,-0.14207 0.3762,-0.37026 0.0829,-0.21749 0.12066,-0.25806 0.35856,-0.38513 0.35111,-0.18754 0.49712,-0.37224 0.45822,-0.57964 -0.0254,-0.1351 -0.0122,-0.1668 0.10345,-0.24914 0.0729,-0.0519 0.16934,-0.17607 0.21439,-0.27597 0.10069,-0.2233 0.2625,-0.3007 0.53534,-0.2561 0.24197,0.0396 0.52811,0.19318 0.56268,0.30208 0.0142,0.0447 0.002,0.12499 -0.0262,0.17841 -0.0433,0.0809 -0.0351,0.11507 0.049,0.2046 l 0.10097,0.10747 0.16487,-0.0855 c 0.0907,-0.047 0.23602,-0.1387 0.32298,-0.20377 l 0.1581,-0.11831 0.0371,0.10042 c 0.0204,0.0552 0.0262,0.12885 0.0129,0.16362 -0.0133,0.0348 -0.003,0.10301 0.0231,0.15163 0.0293,0.0547 0.0316,0.11658 0.006,0.16229 -0.0288,0.0515 -0.01,0.12983 0.0638,0.25891 0.10503,0.18491 0.10504,0.18506 0.0128,0.24966 -0.12137,0.085 -0.0435,0.17517 0.0897,0.10388 0.13231,-0.0708 0.28375,-0.0616 0.37716,0.0229 0.13806,0.12495 0.0233,0.27443 -0.34323,0.44685 -0.39861,0.18754 -0.57627,0.22468 -1.09656,0.22929 -0.38419,0.003 -0.43507,0.0156 -0.80859,0.1947 -0.21923,0.1051 -0.3986,0.20912 -0.3986,0.23116 0,0.094 0.0691,0.0858 0.33411,-0.0396 0.15616,-0.0739 0.35744,-0.13289 0.4533,-0.13291 0.16375,-3e-5 0.16972,0.005 0.11859,0.10058 -0.0296,0.0553 -0.0935,0.13272 -0.14196,0.17196 -0.0762,0.0617 -0.0806,0.0877 -0.033,0.19241 0.0715,0.15698 0.25832,0.23252 0.48174,0.19482 l 0.17658,-0.0298 -0.13577,0.0937 c -0.0747,0.0515 -0.19767,0.10703 -0.27332,0.12337 -0.0757,0.0163 -0.23114,0.0768 -0.34552,0.13448 -0.11611,0.0585 -0.23276,0.0894 -0.26409,0.0701 -0.0721,-0.0445 0.004,-0.1114 0.23823,-0.20927 0.20831,-0.087 0.17501,-0.1795 -0.0495,-0.13739 -0.0874,0.0164 -0.371,0.12322 -0.63013,0.23735 -0.40445,0.17816 -0.47501,0.2252 -0.49856,0.33241 -0.0289,0.13177 -0.12769,0.1941 -0.47486,0.29973 -0.11075,0.0337 -0.25424,0.11512 -0.31888,0.18094 -0.0646,0.0658 -0.1884,0.16439 -0.27502,0.21902 -0.0866,0.0546 -0.16957,0.15035 -0.18432,0.21271 -0.0243,0.10276 -0.03,0.1052 -0.0604,0.026 -0.057,-0.14833 -0.14289,-0.003 -0.14783,0.24961 -0.005,0.25914 -0.13642,0.43591 -0.42451,0.57127 -0.29537,0.13878 -0.71567,0.46672 -0.80083,0.62485 -0.0752,0.1396 -0.0783,0.19399 -0.032,0.55282 0.0432,0.33475 0.0406,0.41875 -0.0162,0.52872 -0.0425,0.0821 -0.092,0.12138 -0.13325,0.10556 -0.0977,-0.0375 -0.2173,-0.43973 -0.18379,-0.61834 0.0233,-0.12406 0.008,-0.17107 -0.0846,-0.25792 -0.0745,-0.07 -0.14329,-0.0966 -0.20175,-0.0781 -0.0488,0.0155 -0.18678,-0.0139 -0.30677,-0.0653 -0.18384,-0.0788 -0.24251,-0.0854 -0.37376,-0.0421 -0.089,0.0294 -0.1774,0.099 -0.20635,0.16256 -0.0431,0.0945 -0.0716,0.10667 -0.19057,0.0811 -0.0769,-0.0165 -0.19526,-0.0584 -0.26291,-0.0929 -0.16664,-0.0851 -0.25996,-0.0792 -0.44713,0.0284 -0.0873,0.0502 -0.26545,0.14627 -0.39588,0.2135 -0.1499,0.0773 -0.25288,0.16519 -0.27988,0.239 -0.0235,0.0642 -0.10749,0.31456 -0.18666,0.55632 l -0.14394,0.43955 0.0735,0.28373 c 0.13508,0.52129 0.32302,0.67734 0.71461,0.59336 0.2952,-0.0633 0.47248,-0.19159 0.53765,-0.38905 0.0414,-0.12541 0.086,-0.16686 0.21966,-0.20398 0.20112,-0.0559 0.28512,-0.0579 0.36237,-0.009 0.0637,0.0404 0.0413,0.10702 -0.24408,0.72496 -0.19584,0.42401 -0.18174,0.46193 0.15378,0.41354 0.30568,-0.0441 0.5851,-0.0103 0.61774,0.0748 0.0127,0.0332 -0.008,0.25691 -0.046,0.49722 -0.068,0.42991 -0.0675,0.43953 0.0304,0.59795 0.0547,0.0886 0.15735,0.19093 0.22804,0.22748 0.11285,0.0584 0.14826,0.0582 0.29024,-0.001 0.22563,-0.0943 0.34816,-0.0843 0.50486,0.0411 0.1253,0.10025 0.14302,0.10308 0.24149,0.0386 0.0584,-0.0383 0.13818,-0.13321 0.17718,-0.21091 0.088,-0.17522 0.23615,-0.29838 0.36064,-0.29972 0.052,-5.5e-4 0.1427,-0.0523 0.20154,-0.11489 0.11951,-0.12721 0.32993,-0.16865 0.22708,-0.0447 -0.0863,0.104 -0.13566,0.4385 -0.08,0.54245 0.0463,0.0865 0.05,0.0861 0.13433,-0.018 0.06,-0.0741 0.0721,-0.12164 0.0393,-0.15443 -0.0782,-0.0782 -0.0547,-0.14327 0.0909,-0.25091 0.15115,-0.11176 0.26809,-0.10029 0.39852,0.0391 0.0956,0.10219 0.60628,0.24033 0.75263,0.2036 0.22287,-0.0559 0.82505,0.31021 1.05131,0.63922 0.10774,0.15666 0.45191,0.31432 0.60326,0.27633 0.31131,-0.0781 0.73812,0.23378 0.83793,0.61236 0.0297,0.11275 0.0745,0.21776 0.0996,0.23337 0.0665,0.0414 -0.0331,0.20501 -0.25073,0.41204 -0.13904,0.13227 -0.17224,0.18921 -0.13313,0.22833 0.0391,0.0391 0.10342,0.005 0.25782,-0.13749 0.22456,-0.20699 0.29949,-0.22799 0.41199,-0.1155 0.0684,0.0684 0.0663,0.0824 -0.0275,0.18222 -0.0559,0.0595 -0.13387,0.10941 -0.17335,0.111 -0.0416,0.002 -0.0248,0.0216 0.04,0.0475 0.089,0.0355 0.13542,0.0255 0.22777,-0.0491 0.24051,-0.19433 0.29707,-0.20367 0.51072,-0.0843 0.13889,0.0776 0.19452,0.13668 0.18752,0.19916 -0.0195,0.17371 0.0215,0.21218 0.14193,0.13327 0.0957,-0.0627 0.16139,-0.0657 0.48165,-0.0219 0.34067,0.0466 0.38529,0.0652 0.54873,0.22868 0.12134,0.12134 0.25783,0.20114 0.42929,0.25098 0.23021,0.0669 0.25522,0.0873 0.29697,0.24239 0.0605,0.22481 -0.0104,0.47428 -0.20222,0.71125 -0.0819,0.10123 -0.18238,0.24984 -0.22319,0.33024 -0.0408,0.0804 -0.12762,0.19959 -0.19289,0.26486 -0.11048,0.11048 -0.11663,0.13812 -0.0891,0.40047 0.0538,0.51251 -0.19689,1.46868 -0.43869,1.67317 -0.0787,0.0666 -0.14609,0.0822 -0.27093,0.0629 -0.10261,-0.0159 -0.17857,-0.006 -0.19862,0.0268 -0.0179,0.0289 -0.11734,0.0899 -0.22106,0.13546 -0.10372,0.0456 -0.25814,0.14233 -0.34316,0.21494 -0.14715,0.12569 -0.15207,0.1396 -0.10255,0.28964 0.0571,0.17299 0.0186,0.37782 -0.10372,0.55251 -0.0396,0.0565 -0.0719,0.15256 -0.0719,0.21352 0,0.061 -0.0475,0.17427 -0.10562,0.2518 -0.0581,0.0775 -0.17015,0.255 -0.24902,0.39438 -0.19404,0.34292 -0.31071,0.40233 -0.59206,0.30149 -0.24417,-0.0875 -0.37437,-0.098 -0.37437,-0.0301 0,0.0256 0.0487,0.0687 0.10816,0.0958 0.0595,0.0271 0.15219,0.13745 0.20601,0.24521 0.0801,0.16046 0.0886,0.21618 0.0469,0.30785 -0.0647,0.14201 -0.31212,0.26124 -0.5421,0.26124 -0.20368,0 -0.25421,0.0498 -0.18386,0.18127 0.0434,0.0811 0.0142,0.2117 -0.0698,0.31179 -0.007,0.008 -0.0781,-0.0192 -0.15851,-0.0608 -0.19186,-0.0992 -0.25978,-0.036 -0.16281,0.15149 0.0394,0.0763 0.11443,0.15223 0.16664,0.1688 0.0897,0.0285 0.0907,0.0348 0.0177,0.11542 -0.0425,0.0469 -0.0645,0.11822 -0.049,0.15858 0.0166,0.0434 -0.0205,0.13702 -0.0909,0.22935 -0.11448,0.15009 -0.11612,0.1605 -0.0427,0.2725 0.042,0.0641 0.10743,0.1284 0.14547,0.143 0.13719,0.0526 0.15993,0.23251 0.0553,0.43756 -0.1048,0.20542 -0.12088,0.41137 -0.0397,0.50912 0.0737,0.0888 -0.1744,0.26196 -0.28599,0.19951 z m -3.35728,-19.72994 c 0.12172,-0.25435 0.34821,-0.44378 0.53061,-0.44378 0.13129,0 0.13283,0.0213 0.0126,0.17413 l -0.0945,0.12017 0.097,0.0785 c 0.0781,0.0633 0.11846,0.0687 0.20754,0.0282 0.0608,-0.0277 0.12312,-0.09 0.1385,-0.13842 0.0209,-0.0659 0.0549,-0.0813 0.13512,-0.0612 0.0743,0.0186 0.12073,0.003 0.15128,-0.0519 0.0926,-0.16539 -0.14299,-0.37692 -0.31639,-0.28412 -0.12407,0.0664 -0.28618,-0.0657 -0.25158,-0.20503 0.0128,-0.0516 -0.0136,-0.14151 -0.0592,-0.20181 -0.0942,-0.12427 -0.2374,-0.13736 -0.55092,-0.0503 -0.11275,0.0313 -0.24131,0.0555 -0.2857,0.0538 -0.0444,-0.002 -0.0688,0.0161 -0.0542,0.0397 0.0145,0.0235 0.01,0.0433 -0.0104,0.0438 -0.0203,5.5e-4 -0.0879,0.0402 -0.15021,0.0881 l -0.11335,0.0871 0.1273,0.0484 c 0.0995,0.0378 0.15818,0.0324 0.26872,-0.0247 0.12991,-0.0672 0.15397,-0.0671 0.29575,5e-4 0.0854,0.0407 0.20199,0.0616 0.26104,0.0468 0.0587,-0.0147 0.11929,-0.006 0.13465,0.0184 0.0157,0.0254 -0.0485,0.0581 -0.14655,0.0747 -0.2666,0.045 -0.40511,0.15605 -0.59848,0.47968 -0.16152,0.27032 -0.17079,0.30292 -0.10641,0.37438 0.0632,0.0701 0.0806,0.0712 0.16727,0.0106 0.0532,-0.0372 0.14799,-0.17475 0.21063,-0.30565 z m 0.82764,0.28118 c 0.16216,-0.0827 0.17776,-0.10351 0.12061,-0.16066 -0.0571,-0.0571 -0.0933,-0.0534 -0.27917,0.0288 -0.2183,0.0966 -0.28757,0.22686 -0.12062,0.22686 0.0511,0 0.17674,-0.0428 0.27918,-0.095 z m 0.80772,-0.34422 c 0.0949,-0.0665 0.0984,-0.0795 0.0315,-0.11694 -0.0985,-0.0551 -0.39133,0.0399 -0.39133,0.12695 0,0.0897 0.22644,0.0834 0.35984,-0.01 z m 3.42115,19.67221 c 0,-0.02 0.0246,-0.061 0.0547,-0.0911 0.0301,-0.0301 0.0375,-0.0547 0.0164,-0.0547 -0.021,0 -0.0628,0.0336 -0.0929,0.0747 -0.0431,0.059 -0.0729,0.0641 -0.14169,0.0242 -0.0491,-0.0285 -0.0611,-0.0512 -0.0274,-0.0519 0.0328,-7.7e-4 0.047,-0.0219 0.0315,-0.0469 -0.0297,-0.0481 0.0484,-0.0612 0.27333,-0.0459 0.20072,0.0137 0.2209,0.043 0.0968,0.14061 -0.11557,0.0909 -0.21072,0.11396 -0.21072,0.051 z m 38.04374,-1.14329 c -0.13034,-0.0826 0.14107,-0.2649 0.81396,-0.54682 0.18791,-0.0787 0.47425,-0.24338 0.6363,-0.36588 0.27557,-0.20832 0.29843,-0.21734 0.35303,-0.13938 0.0829,0.11836 0.0341,0.20403 -0.16842,0.29534 -0.0968,0.0436 -0.21841,0.12819 -0.27034,0.18792 -0.0519,0.0597 -0.1355,0.1086 -0.18571,0.1086 -0.0502,0 -0.1682,0.069 -0.26223,0.15342 -0.32186,0.28884 -0.72955,0.4253 -0.91659,0.3068 z m -3.18812,-0.59179 c -0.0473,-0.03 -0.05,-0.0609 -0.0114,-0.13297 0.0276,-0.0517 0.0503,-0.15813 0.0503,-0.23663 0,-0.12833 0.0103,-0.13909 0.10249,-0.10667 0.0564,0.0198 0.17425,0.0387 0.26194,0.042 0.0877,0.003 0.17529,0.009 0.19466,0.0126 0.0755,0.0142 -0.1263,0.24387 -0.30762,0.35013 -0.21595,0.12656 -0.20702,0.12436 -0.29034,0.0716 z m 5.26396,-0.39835 c -0.0159,-0.0159 0.0217,-0.0685 0.0834,-0.1171 0.093,-0.0731 0.1038,-0.10401 0.0632,-0.17996 -0.0588,-0.10988 0.0285,-0.2278 0.23085,-0.3116 0.15672,-0.0649 0.19619,-0.19665 0.15417,-0.51459 -0.0289,-0.21872 -0.0254,-0.23237 0.0451,-0.17408 0.0553,0.0458 0.069,0.10343 0.0492,0.2086 -0.0216,0.11526 -0.002,0.17517 0.094,0.28941 0.10386,0.12343 0.13471,0.13683 0.21551,0.0936 0.0805,-0.0431 0.09,-0.0392 0.0646,0.0269 -0.0163,0.0425 -0.0297,0.0854 -0.0297,0.0952 0,0.01 -0.0666,0.052 -0.14805,0.0937 -0.0814,0.0417 -0.2403,0.15196 -0.35305,0.24505 -0.18333,0.15137 -0.37201,0.27368 -0.42217,0.27368 -0.01,0 -0.0311,-0.013 -0.047,-0.0288 z m -4.81717,-0.58836 c -0.0959,-0.1021 -0.11366,-0.10603 -0.20582,-0.0456 -0.11745,0.077 -0.33812,0.032 -0.515,-0.10494 -0.0944,-0.073 -0.10092,-0.0966 -0.0523,-0.18751 0.0415,-0.0776 0.0429,-0.13198 0.005,-0.21425 -0.0276,-0.0607 -0.0502,-0.1503 -0.0502,-0.19923 0,-0.11038 -0.0717,-0.11564 -0.13098,-0.01 -0.0244,0.0436 -0.0575,0.0663 -0.0734,0.0503 -0.016,-0.016 0.0368,-0.10396 0.11724,-0.19556 0.19794,-0.22545 0.12069,-0.28666 -0.14078,-0.11155 -0.11266,0.0755 -0.21214,0.15789 -0.22106,0.18319 -0.009,0.0253 -0.0631,-0.0528 -0.12033,-0.17349 -0.0621,-0.13089 -0.1693,-0.26243 -0.26565,-0.32591 -0.14476,-0.0954 -0.19382,-0.10321 -0.47189,-0.0755 -0.40778,0.0406 -0.8012,0.14114 -1.05871,0.27059 -0.11706,0.0588 -0.34547,0.11908 -0.52162,0.13756 -0.17236,0.0181 -0.44648,0.083 -0.60915,0.14421 -0.24878,0.0936 -0.31959,0.10347 -0.44563,0.0619 -0.16908,-0.0558 -0.23931,-0.17082 -0.12993,-0.21279 0.0396,-0.0152 0.11148,-0.11973 0.15973,-0.2323 0.0772,-0.18019 0.0815,-0.2363 0.0357,-0.46912 -0.0379,-0.19262 -0.0389,-0.37501 -0.004,-0.67156 0.0265,-0.22391 0.0366,-0.4512 0.0225,-0.50508 -0.0141,-0.0539 0.008,-0.18579 0.0489,-0.29314 0.0723,-0.18926 0.0898,-0.20163 0.57851,-0.40862 0.27718,-0.1174 0.5609,-0.21346 0.63048,-0.21346 0.18829,0 0.42145,-0.17915 0.54998,-0.42258 0.0794,-0.15046 0.13455,-0.2077 0.18222,-0.18928 0.13306,0.0514 0.15933,0.0413 0.14908,-0.0573 -0.007,-0.0635 0.0207,-0.1096 0.0749,-0.12681 0.0469,-0.0149 0.13356,-0.0978 0.19258,-0.18433 0.0604,-0.0885 0.18466,-0.18833 0.28435,-0.22835 0.1663,-0.0668 0.18286,-0.0658 0.27332,0.0165 0.1669,0.1517 0.28517,0.19599 0.34166,0.12793 0.0275,-0.0331 0.0369,-0.0732 0.021,-0.0891 -0.0521,-0.0521 0.18645,-0.35152 0.30307,-0.38028 0.0626,-0.0154 0.19124,-0.0668 0.28578,-0.11419 0.14743,-0.0739 0.19929,-0.0788 0.36444,-0.0344 0.35613,0.0956 0.36796,0.11126 0.23549,0.31143 -0.17037,0.25744 -0.12519,0.3581 0.29267,0.65222 0.19292,0.13579 0.37505,0.2388 0.40472,0.22891 0.0297,-0.01 0.12351,-0.11386 0.20851,-0.23105 0.11584,-0.1597 0.16076,-0.27583 0.17933,-0.46362 0.0264,-0.26676 0.15397,-0.63776 0.21933,-0.63776 0.0216,0 0.0712,0.10971 0.11022,0.24381 0.039,0.13409 0.12066,0.29057 0.18152,0.34775 0.14222,0.13361 0.22484,0.50722 0.16097,0.72796 -0.0423,0.14627 -0.0342,0.16974 0.11088,0.31888 0.0861,0.0886 0.22227,0.30449 0.3026,0.47987 0.0803,0.17539 0.22517,0.42354 0.32187,0.55145 l 0.17581,0.23258 -0.05,0.35932 c -0.0362,0.26067 -0.0924,0.43444 -0.20447,0.63295 -0.1717,0.30409 -0.4284,0.59426 -0.56372,0.63721 -0.0487,0.0154 -0.16139,0.12958 -0.25051,0.25363 -0.0891,0.12405 -0.1821,0.22555 -0.20662,0.22555 -0.0245,0 -0.12872,0.10646 -0.23157,0.23658 -0.17154,0.217 -0.20311,0.23687 -0.38184,0.24023 -0.13717,0.003 -0.24219,0.0398 -0.35481,0.12568 l -0.15998,0.12202 -0.10496,-0.11173 z m -22.21308,-0.95778 c -0.0965,-0.0965 -0.11259,-0.14582 -0.091,-0.27868 0.0203,-0.12504 9.7e-4,-0.19858 -0.0857,-0.32611 -0.0615,-0.0906 -0.11189,-0.18695 -0.11189,-0.21419 0,-0.0272 -0.0806,-0.15749 -0.17901,-0.28946 -0.15217,-0.20395 -0.18344,-0.28544 -0.20853,-0.54348 -0.0443,-0.45532 -0.18966,-0.94814 -0.38508,-1.30536 -0.0961,-0.1756 -0.18834,-0.4036 -0.20507,-0.50667 -0.0356,-0.21931 0.0535,-0.54573 0.25679,-0.94121 l 0.13526,-0.26308 -0.076,-0.22882 c -0.0425,-0.12801 -0.0633,-0.27947 -0.0472,-0.34379 0.0189,-0.0753 -0.001,-0.16495 -0.0588,-0.25975 -0.0482,-0.0796 -0.11983,-0.25752 -0.15913,-0.39532 -0.0525,-0.18406 -0.12567,-0.30374 -0.27576,-0.45099 -0.28871,-0.28327 -0.32625,-0.39478 -0.23664,-0.70301 0.1824,-0.62746 -0.0147,-0.99341 -0.49606,-0.92122 -0.18743,0.0281 -0.1946,0.0246 -0.22109,-0.10782 -0.0203,-0.10159 -0.0754,-0.16136 -0.21365,-0.2319 -0.17968,-0.0917 -0.25658,-0.092 -0.47721,-0.002 -0.0501,0.0204 -0.2551,0.0911 -0.45554,0.15718 -0.30138,0.0993 -0.39188,0.11211 -0.52307,0.0741 -0.12428,-0.0361 -0.22896,-0.0267 -0.48329,0.043 -0.2628,0.0721 -0.35806,0.0798 -0.50006,0.0406 -0.2963,-0.0818 -0.80535,-0.54064 -0.87776,-0.79115 -0.056,-0.19386 -0.40451,-0.64566 -0.52311,-0.67821 -0.0754,-0.0207 -0.0846,-0.0367 -0.0385,-0.0665 0.0464,-0.03 0.0383,-0.0451 -0.0342,-0.0641 -0.11513,-0.0301 -0.12658,-0.1242 -0.0152,-0.12517 0.0681,-6.2e-4 0.0698,-0.007 0.0114,-0.0449 -0.043,-0.0278 -0.0478,-0.0444 -0.0129,-0.0448 0.0362,-4.4e-4 0.0224,-0.0566 -0.0397,-0.16185 -0.0874,-0.1481 -0.0892,-0.16766 -0.0224,-0.24143 0.2038,-0.2252 0.24846,-0.71008 0.0935,-1.01558 -0.074,-0.14584 -0.0264,-0.3473 0.13143,-0.55674 0.0594,-0.0788 0.17545,-0.27073 0.25783,-0.42639 0.1441,-0.27228 0.46532,-0.65084 0.55226,-0.65084 0.0962,0 0.40661,-0.33371 0.40661,-0.43715 0,-0.23351 0.13962,-0.46633 0.36724,-0.6124 0.12231,-0.0785 0.26563,-0.21268 0.3185,-0.29822 0.10813,-0.17496 0.12344,-0.18066 0.24937,-0.0929 0.0494,0.0344 0.17223,0.0764 0.27289,0.0933 0.15354,0.0258 0.22695,0.007 0.45555,-0.11504 0.39334,-0.21036 0.63641,-0.26289 1.08647,-0.23482 0.29684,0.0185 0.43047,0.007 0.57435,-0.0509 0.21189,-0.0848 0.39508,-0.0346 0.34549,0.0946 -0.0149,0.0388 -0.006,0.0963 0.0202,0.12763 0.0327,0.0395 0.0325,0.096 -8.3e-4,0.18365 -0.0419,0.11011 -0.0326,0.14289 0.0712,0.25115 0.0656,0.0685 0.18309,0.13728 0.26107,0.15287 0.3661,0.0732 0.4702,0.12064 0.5458,0.24863 0.0554,0.0937 0.128,0.14188 0.24804,0.1644 0.0933,0.0175 0.22889,0.0624 0.30122,0.0998 0.12282,0.0635 0.13873,0.0612 0.24116,-0.035 0.0688,-0.0647 0.10008,-0.13318 0.0839,-0.18407 -0.0142,-0.0446 -0.003,-0.12282 0.024,-0.17388 0.0705,-0.13169 0.27058,-0.11877 0.58303,0.0377 0.34041,0.17042 0.98594,0.29201 1.2148,0.22882 0.11008,-0.0304 0.2159,-0.0308 0.31226,-0.001 0.31477,0.0967 0.47597,0.021 0.51894,-0.24378 0.0143,-0.088 0.0386,-0.1599 0.0542,-0.1599 0.0294,0 0.0448,-0.13224 0.0491,-0.42138 0.001,-0.094 0.0236,-0.17083 0.0493,-0.17083 0.0307,0 0.0292,-0.033 -0.004,-0.0957 -0.056,-0.10468 -0.16963,-0.10229 -0.44154,0.009 -0.12895,0.0529 -0.16484,0.0507 -0.28035,-0.0176 -0.14979,-0.0885 -0.30351,-0.10175 -0.34784,-0.03 -0.033,0.0533 -0.26588,0.016 -0.39221,-0.063 -0.0908,-0.0567 -0.17557,-0.22539 -0.17557,-0.34927 0,-0.0475 -0.0461,-0.11887 -0.10249,-0.15858 -0.0873,-0.0614 -0.0923,-0.0788 -0.0342,-0.11692 0.0376,-0.0246 0.11489,-0.0338 0.17179,-0.0204 0.0726,0.0171 0.13931,-0.0115 0.22356,-0.0958 0.0793,-0.0793 0.17572,-0.12305 0.28375,-0.12878 0.09,-0.005 0.22039,-0.0461 0.28973,-0.0918 0.15053,-0.0992 0.49229,-0.0716 0.75745,0.0611 0.35757,0.17897 0.67512,0.16845 0.80294,-0.0266 0.0665,-0.10148 0.0669,-0.1228 0.004,-0.21911 -0.0384,-0.0587 -0.22313,-0.19387 -0.41041,-0.30042 l -0.34051,-0.19374 0.0638,-0.12337 c 0.0351,-0.0678 0.0523,-0.13485 0.0383,-0.14889 -0.014,-0.014 -0.009,-0.0525 0.0119,-0.0855 0.0206,-0.033 0.0415,-0.0865 0.0464,-0.1188 0.0105,-0.069 -0.063,-0.0499 -0.42528,0.11026 -0.21031,0.093 -0.24156,0.12151 -0.19491,0.17772 0.0306,0.0368 0.0992,0.0678 0.15248,0.069 0.0748,0.002 0.0571,0.023 -0.0775,0.094 -0.16333,0.0862 -0.18157,0.0873 -0.28776,0.0177 -0.0908,-0.0595 -0.10269,-0.0872 -0.0596,-0.13903 0.0427,-0.0515 0.0363,-0.0713 -0.0311,-0.0966 -0.0467,-0.0175 -0.10683,-0.0612 -0.1337,-0.097 -0.13049,-0.17391 -0.54446,0.2836 -0.66485,0.73478 -0.0565,0.21178 -0.0546,0.2228 0.0517,0.30304 l 0.11041,0.0833 -0.20255,0.0418 c -0.1114,0.023 -0.26154,0.0257 -0.33364,0.006 -0.13305,-0.0363 -0.30167,0.0184 -0.30167,0.098 0,0.0234 -0.031,0.0306 -0.0689,0.0161 -0.0379,-0.0145 -0.0981,-0.002 -0.13372,0.0273 -0.0553,0.0459 -0.049,0.0835 0.0426,0.25576 0.0992,0.18664 0.1023,0.21217 0.0404,0.33625 -0.0776,0.15547 -0.14968,0.14391 -0.25925,-0.0416 -0.0764,-0.1293 -0.0759,-0.13227 0.0252,-0.14662 0.12754,-0.0181 0.13575,-0.0993 0.012,-0.11907 -0.28224,-0.0451 -0.43276,-0.19386 -0.43276,-0.4276 0,-0.1824 -0.16909,-0.38348 -0.37413,-0.44491 -0.10655,-0.0319 -0.22239,-0.099 -0.25741,-0.14896 -0.035,-0.05 -0.13754,-0.12177 -0.22781,-0.15949 -0.0903,-0.0377 -0.1913,-0.10737 -0.22451,-0.15479 -0.0477,-0.068 -0.079,-0.0762 -0.1488,-0.0389 -0.0486,0.026 -0.0884,0.0766 -0.0884,0.11247 0,0.11828 0.58064,0.65336 0.86445,0.79663 0.30092,0.1519 0.34793,0.20615 0.13885,0.16022 -0.1864,-0.0409 -0.23717,3e-5 -0.17342,0.13998 0.0448,0.0983 0.0375,0.12819 -0.0526,0.21476 l -0.10467,0.10056 0.0238,-0.1357 c 0.0378,-0.21541 -0.24621,-0.52483 -0.48173,-0.52483 -0.0863,0 -0.41803,-0.32176 -0.50493,-0.4898 -0.0928,-0.17955 -0.19617,-0.21423 -0.34253,-0.11499 -0.22048,0.1495 -0.3858,0.20004 -0.55873,0.17082 -0.22975,-0.0388 -0.37429,0.0413 -0.33768,0.18716 0.0191,0.0761 0.008,0.11014 -0.0345,0.11014 -0.0342,0 -0.12167,0.0512 -0.19447,0.11383 -0.0728,0.0626 -0.14803,0.11386 -0.16719,0.11389 -0.0564,6e-5 -0.21536,0.28788 -0.21555,0.39013 -1.8e-4,0.0978 -0.17832,0.29047 -0.35022,0.37878 -0.0547,0.0281 -0.18212,0.0511 -0.28311,0.0511 -0.13894,0 -0.19586,0.0229 -0.23397,0.0941 -0.0499,0.0933 -0.0514,0.0931 -0.16818,-0.0237 -0.10953,-0.10953 -0.17258,-0.13694 -0.39362,-0.17113 -0.11614,-0.018 -0.13575,-0.28086 -0.0489,-0.65539 0.0371,-0.16011 0.0554,-0.33953 0.0405,-0.39871 -0.0432,-0.17199 0.092,-0.2734 0.31801,-0.23868 0.52197,0.0802 0.82729,0.0846 0.89886,0.013 0.0983,-0.0983 0.14269,-0.42265 0.0827,-0.60449 -0.0391,-0.1186 -0.093,-0.16709 -0.2536,-0.22844 -0.23624,-0.0902 -0.24122,-0.17749 -0.0103,-0.17981 0.088,-8.9e-4 0.21493,-0.0376 0.28209,-0.0816 0.0672,-0.044 0.14143,-0.0681 0.16504,-0.0535 0.0644,0.0398 0.30824,-0.10075 0.38923,-0.22435 0.0391,-0.0597 0.1162,-0.12008 0.17125,-0.13412 0.0551,-0.014 0.2026,-0.12099 0.32787,-0.23768 0.1776,-0.16544 0.27079,-0.21731 0.42308,-0.23549 0.18867,-0.0225 0.3784,-0.17767 0.28932,-0.23659 -0.0554,-0.0366 -0.10161,-0.25721 -0.0708,-0.33756 0.0146,-0.0381 0.0791,-0.10364 0.14331,-0.14572 l 0.11675,-0.0765 -0.03,0.18744 c -0.026,0.16269 -0.0194,0.18568 0.0502,0.17404 0.0441,-0.007 0.12665,-0.0389 0.1834,-0.0701 0.0864,-0.0475 0.10759,-0.0452 0.13037,0.0142 0.039,0.10173 -0.0695,0.22135 -0.14443,0.15917 -0.0414,-0.0343 -0.0676,-0.0331 -0.0907,0.004 -0.0238,0.0386 -0.0425,0.0365 -0.0699,-0.008 -0.0206,-0.0333 -0.0478,-0.05 -0.0606,-0.0373 -0.0128,0.0128 0.0236,0.082 0.0809,0.15388 0.0966,0.12111 0.11499,0.12686 0.25262,0.0789 0.11788,-0.0411 0.17449,-0.0383 0.27485,0.0136 0.1133,0.0586 0.15155,0.0558 0.36932,-0.0269 0.19079,-0.0725 0.266,-0.0818 0.35044,-0.0433 0.0777,0.0354 0.13523,0.0347 0.20741,-0.003 0.2049,-0.10587 0.26166,-0.18571 0.23622,-0.33225 -0.0377,-0.21722 0.0314,-0.28837 0.21324,-0.21971 0.12376,0.0467 0.15993,0.0449 0.21586,-0.0111 0.0592,-0.0592 0.0541,-0.0811 -0.0429,-0.18442 -0.0934,-0.0994 -0.0999,-0.12411 -0.043,-0.16252 0.0369,-0.0249 0.17531,-0.0338 0.30752,-0.0198 0.24195,0.0256 0.54346,-0.0689 0.49093,-0.15389 -0.046,-0.0744 -0.32372,-0.096 -0.559,-0.0433 -0.20866,0.0467 -0.26342,0.0429 -0.42335,-0.0292 -0.24838,-0.112 -0.27764,-0.24305 -0.10728,-0.48049 0.21929,-0.30562 0.25939,-0.40302 0.19692,-0.47828 -0.0925,-0.11145 -0.18336,-0.0751 -0.39466,0.15781 -0.11166,0.12308 -0.2638,0.24896 -0.33811,0.27974 -0.0743,0.0308 -0.16621,0.11613 -0.20424,0.18968 -0.0619,0.11977 -0.0618,0.14487 9.3e-4,0.24067 0.0386,0.0588 0.11163,0.12015 0.16241,0.13626 0.13974,0.0444 0.11209,0.1276 -0.0878,0.26436 -0.0615,0.0421 -0.14347,0.16107 -0.18221,0.26445 -0.0485,0.12954 -0.12237,0.21794 -0.23749,0.28441 -0.1623,0.0937 -0.16967,0.0941 -0.25936,0.0129 -0.0508,-0.0459 -0.10463,-0.13965 -0.11969,-0.20824 -0.0151,-0.0686 -0.0835,-0.19189 -0.15204,-0.274 l -0.12464,-0.14931 -0.15804,0.0964 c -0.0869,0.053 -0.19904,0.096 -0.24915,0.0955 -0.14455,-0.001 -0.31191,-0.15749 -0.32311,-0.30149 -0.006,-0.0716 -0.0242,-0.16519 -0.0413,-0.20809 -0.0408,-0.10203 0.16318,-0.29339 0.37516,-0.35192 0.21276,-0.0587 0.64427,-0.36117 0.71781,-0.50307 0.0327,-0.0631 0.14354,-0.19013 0.24629,-0.28226 0.10274,-0.0921 0.1868,-0.18779 0.1868,-0.21261 0,-0.0248 0.0974,-0.0798 0.21639,-0.12223 0.11901,-0.0424 0.31888,-0.11935 0.44415,-0.17099 0.1538,-0.0634 0.34612,-0.0969 0.5922,-0.10321 0.42998,-0.011 0.71118,0.046 0.94319,0.19117 0.11642,0.0728 0.20831,0.0977 0.29622,0.0801 0.15728,-0.0315 0.99568,0.22841 1.03062,0.31944 0.0351,0.0915 -0.20535,0.17787 -0.41224,0.14808 -0.0947,-0.0136 -0.29072,-0.0501 -0.43548,-0.0811 -0.19488,-0.0417 -0.2765,-0.043 -0.31442,-0.005 -0.0379,0.0379 -0.019,0.0659 0.073,0.10783 0.0683,0.0311 0.15386,0.11391 0.19008,0.18395 0.0922,0.17834 0.3876,0.32372 0.53999,0.26578 0.14642,-0.0557 0.14541,-0.0732 -0.009,-0.15704 -0.14289,-0.0775 -0.0769,-0.0943 0.10251,-0.026 0.14328,0.0545 0.30561,-0.0133 0.26781,-0.1118 -0.0177,-0.0461 0.0321,-0.0795 0.17252,-0.11544 0.30055,-0.077 0.32255,-0.088 0.29762,-0.14897 -0.0943,-0.23053 -0.0956,-0.22391 0.0416,-0.20824 0.0732,0.008 0.12669,0.0397 0.1206,0.0706 -0.006,0.0306 0.0321,0.0786 0.0848,0.10681 0.0791,0.0423 0.14146,0.0272 0.35889,-0.0867 0.31882,-0.16713 0.56704,-0.22161 0.6596,-0.14479 0.0516,0.0428 0.13719,0.0431 0.3849,10e-4 0.17519,-0.0296 0.33843,-0.0414 0.36275,-0.0264 0.0243,0.015 0.0576,0.006 0.0741,-0.021 0.0359,-0.0581 -0.0634,-0.18988 -0.11773,-0.15629 -0.0656,0.0405 -0.28106,-0.0321 -0.23419,-0.079 0.0472,-0.0472 1.31494,0.24822 1.39081,0.32409 0.0511,0.0511 0.21307,-0.0171 0.21307,-0.0898 0,-0.0245 -0.0904,-0.0885 -0.20091,-0.14216 -0.34262,-0.16645 -0.36462,-0.43305 -0.0424,-0.51392 0.18701,-0.0469 0.26788,0.007 0.52653,0.35252 0.33581,0.44831 0.32725,0.4255 0.21753,0.57958 -0.0812,0.11409 -0.0861,0.14079 -0.0298,0.16242 0.1068,0.041 0.33537,-0.10242 0.36754,-0.2306 0.0377,-0.15018 -0.0327,-0.27817 -0.20076,-0.36508 -0.13213,-0.0683 -0.22777,-0.19353 -0.22777,-0.29818 0,-0.0357 0.0496,-0.0446 0.14805,-0.0266 0.14767,0.027 0.26983,-0.0266 0.60424,-0.26492 0.0765,-0.0545 0.20577,-0.0904 0.33613,-0.0934 0.26443,-0.006 0.35002,-0.0504 0.27393,-0.14208 -0.0298,-0.036 -0.0448,-0.0749 -0.0332,-0.0865 0.0582,-0.0582 0.80813,-0.16301 0.98086,-0.13711 0.16619,0.0249 0.21764,0.0114 0.35437,-0.0928 0.088,-0.0671 0.15996,-0.14007 0.15996,-0.16216 0,-0.0557 -0.39808,-0.0507 -0.43277,0.005 -0.0477,0.0772 -0.10957,0.0504 -0.0922,-0.04 0.0147,-0.0763 -0.0238,-0.0887 -0.35566,-0.11456 -0.90606,-0.0705 -0.9797,-0.0871 -0.87101,-0.1958 0.0956,-0.0956 0.32996,-0.0937 0.52615,0.004 0.0804,0.0401 0.21355,0.0729 0.29591,0.0729 0.0824,0 0.16242,0.0205 0.17791,0.0455 0.0155,0.025 0.0953,0.0455 0.1773,0.0455 0.22721,0 0.66648,0.0981 0.63892,0.14274 -0.0134,0.0217 0.0291,0.0395 0.0944,0.0395 0.0654,0 0.18444,0.0353 0.26463,0.0785 0.10783,0.058 0.25845,0.0789 0.57855,0.0802 0.34408,10e-4 0.45844,0.019 0.55804,0.0862 0.0689,0.0465 0.12498,0.0975 0.12462,0.11342 -3.8e-4,0.0159 -0.1055,0.0868 -0.23363,0.15746 -0.30945,0.17073 -0.24402,0.24513 0.13027,0.14814 0.24244,-0.0628 0.29815,-0.0632 0.49887,-0.004 0.16469,0.0489 0.26752,0.0552 0.3792,0.0232 0.1115,-0.032 0.22595,-0.0251 0.42013,0.0252 0.20261,0.0525 0.30763,0.0579 0.43604,0.0222 0.29306,-0.0814 0.6536,-0.0584 0.86276,0.055 0.10397,0.0564 0.2957,0.16068 0.42607,0.23179 0.23109,0.12606 0.24115,0.12745 0.40143,0.0556 0.13416,-0.0601 0.20901,-0.0652 0.40689,-0.0273 0.19668,0.0376 0.26828,0.033 0.37904,-0.0243 0.10837,-0.056 0.12581,-0.0836 0.0844,-0.13342 -0.08,-0.0964 0.20382,-0.1322 0.55251,-0.0697 0.1597,0.0286 0.36212,0.0572 0.44981,0.0634 0.0877,0.006 0.25902,0.0563 0.38073,0.11105 0.18561,0.0836 0.32568,0.10248 0.86877,0.11739 0.51532,0.0142 0.67936,0.0348 0.80367,0.10103 0.12619,0.0673 0.27,0.0844 0.74841,0.089 0.44012,0.004 0.63731,0.0252 0.76787,0.0813 0.21074,0.0906 0.29506,0.0574 0.18034,-0.0711 -0.0825,-0.0924 -0.082,-0.0925 0.2362,-0.0609 0.53323,0.053 1.17286,0.16966 1.38939,0.25346 0.11275,0.0436 0.32764,0.0943 0.47753,0.11267 0.14989,0.0183 0.36861,0.082 0.48604,0.14154 0.17824,0.0903 0.23616,0.10029 0.35061,0.0604 0.15651,-0.0546 0.25805,-0.0153 0.49707,0.19233 l 0.14851,0.129 -0.11193,0.0281 c -0.11231,0.0282 -0.41059,-0.0456 -0.51337,-0.12709 -0.0302,-0.0239 -0.0726,-0.0326 -0.0942,-0.0193 -0.0216,0.0133 -0.12811,-0.006 -0.23676,-0.0438 -0.25447,-0.0877 -0.36746,-0.0547 -0.25157,0.0733 0.0791,0.0875 0.0774,0.0893 -0.0735,0.0788 -0.28249,-0.0197 -0.20484,0.0637 0.20987,0.22547 0.2255,0.088 0.41965,0.16926 0.43145,0.18069 0.0427,0.0414 -0.0982,0.0927 -0.20078,0.0731 -0.11261,-0.0215 -0.39011,0.0993 -0.39011,0.16991 0,0.0234 -0.0438,0.0835 -0.0974,0.13339 -0.0895,0.0834 -0.10802,0.0853 -0.22777,0.0234 -0.11206,-0.0579 -0.14789,-0.0585 -0.2556,-0.004 -0.0689,0.0347 -0.18666,0.0779 -0.26168,0.0959 -0.075,0.0181 -0.16194,0.054 -0.19313,0.0799 -0.0917,0.0761 0.07,0.29755 0.29765,0.40777 0.12399,0.06 0.21378,0.14045 0.24047,0.21541 0.0234,0.0658 0.0731,0.17385 0.11036,0.24012 0.0608,0.10801 0.0602,0.12339 -0.005,0.14844 -0.0478,0.0183 -0.0619,0.0551 -0.0411,0.10727 0.0174,0.0436 0.0372,0.13059 0.0438,0.19322 0.007,0.0626 0.0267,0.14791 0.0446,0.18949 0.0233,0.0541 0.004,0.0847 -0.0677,0.10744 -0.0799,0.0254 -0.13379,-0.005 -0.26523,-0.1505 -0.0907,-0.10028 -0.24203,-0.23835 -0.33624,-0.30681 -0.0942,-0.0685 -0.26303,-0.2465 -0.37513,-0.39563 -0.19776,-0.26307 -0.20182,-0.27505 -0.1362,-0.40196 0.0372,-0.0719 0.0684,-0.17794 0.0693,-0.23556 9.2e-4,-0.0576 0.0298,-0.15567 0.0642,-0.2179 0.0658,-0.11885 0.0404,-0.21374 -0.10022,-0.3751 -0.0923,-0.10595 -0.25666,-0.0265 -0.21523,0.10403 0.0382,0.12028 -0.0789,0.15925 -0.21365,0.0711 -0.0584,-0.0382 -0.19284,-0.0833 -0.29876,-0.10022 -0.18185,-0.029 -0.19536,-0.0234 -0.24247,0.10019 -0.0274,0.072 -0.039,0.18585 -0.0256,0.25298 0.0208,0.10459 0.006,0.12599 -0.10125,0.14962 -0.0732,0.0161 -0.19859,-0.003 -0.30078,-0.0456 -0.11224,-0.0469 -0.21795,-0.0611 -0.29404,-0.0394 -0.0653,0.0186 -0.28627,0.0354 -0.49095,0.0375 -0.32424,0.003 -0.3867,0.0174 -0.48524,0.10995 -0.0622,0.0584 -0.13694,0.20193 -0.16609,0.31888 -0.0291,0.11695 -0.0825,0.25826 -0.11868,0.31403 -0.0624,0.0964 -0.0564,0.10614 0.12211,0.19721 0.19377,0.0989 0.40503,0.1249 0.56519,0.0697 0.12354,-0.0426 0.5004,0.25122 0.61807,0.48187 0.0482,0.0945 0.12787,0.19331 0.17704,0.21963 0.18607,0.0996 0.22387,0.75295 0.0683,1.1801 -0.10773,0.29576 -0.22829,0.39246 -0.40534,0.32514 -0.0676,-0.0257 -0.12985,-0.0468 -0.13821,-0.0468 -0.008,0 -0.0591,0.0841 -0.11262,0.18688 -0.0704,0.13498 -0.0841,0.20297 -0.0494,0.24478 0.0664,0.08 0.0172,0.18403 -0.11548,0.2445 -0.0613,0.0279 -0.11138,0.0706 -0.11138,0.0949 0,0.0243 0.14253,0.14219 0.31672,0.26207 0.22161,0.15252 0.34003,0.26966 0.39434,0.3901 0.0427,0.0947 0.0693,0.17965 0.0591,0.18885 -0.0102,0.009 -0.10329,0.0594 -0.20692,0.11169 l -0.18839,0.095 -0.11336,-0.26021 c -0.12687,-0.29123 -0.23571,-0.40835 -0.42742,-0.45994 -0.0965,-0.026 -0.13017,-0.0628 -0.13017,-0.14259 0,-0.0731 -0.0473,-0.13525 -0.14765,-0.19407 -0.14625,-0.0857 -0.14916,-0.0856 -0.30479,0.0106 -0.15578,0.0963 -0.15756,0.0963 -0.2054,0.007 -0.0265,-0.0496 -0.0482,-0.12154 -0.0482,-0.15988 0,-0.0384 -0.0383,-0.0902 -0.0851,-0.11526 -0.0696,-0.0373 -0.11354,-0.0148 -0.24146,0.12367 -0.086,0.0931 -0.1962,0.19185 -0.24487,0.21953 -0.0755,0.0429 -0.0795,0.0611 -0.0275,0.12382 0.0336,0.0404 0.14939,0.1229 0.25741,0.18328 0.17183,0.096 0.20472,0.10149 0.26265,0.0436 0.0551,-0.0551 0.0999,-0.0571 0.26614,-0.012 l 0.19991,0.0543 -0.11141,0.0745 c -0.20664,0.13812 -0.27179,0.21062 -0.30129,0.33526 -0.0242,0.1023 -0.01,0.13307 0.0821,0.17491 0.0613,0.0279 0.15447,0.13934 0.20707,0.24759 0.0526,0.10824 0.15763,0.23345 0.23343,0.27822 0.16673,0.0985 0.21509,0.20313 0.11879,0.25702 -0.0898,0.0502 -0.0469,0.12532 0.0716,0.12532 0.14188,0 0.1427,0.0846 0.006,0.57309 -0.16607,0.59156 -0.31599,0.78894 -0.70823,0.93243 -0.15448,0.0565 -0.34237,0.10615 -0.41753,0.11031 -0.17472,0.01 -0.31021,0.0837 -0.42842,0.23393 l -0.0938,0.11928 -0.0438,-0.11509 c -0.0571,-0.15016 -0.188,-0.18791 -0.3759,-0.10841 -0.1722,0.0728 -0.28572,0.18902 -0.33151,0.33925 -0.041,0.13443 0.10411,0.37088 0.34433,0.56113 0.19722,0.1562 0.41847,0.54814 0.47044,0.83334 0.0452,0.24805 -0.0349,0.41087 -0.24969,0.50774 -0.0979,0.0441 -0.18944,0.11649 -0.2035,0.16081 -0.0338,0.10642 -0.23605,0.23892 -0.27314,0.17892 -0.0155,-0.025 -0.0161,-0.0834 -10e-4,-0.12974 0.0147,-0.0464 0.014,-0.11754 -0.002,-0.1582 -0.0225,-0.0585 -0.0473,-0.0638 -0.11927,-0.0253 -0.0749,0.0401 -0.10381,0.0299 -0.1643,-0.0578 -0.14867,-0.21556 -0.57956,-0.56197 -0.69903,-0.56197 -0.0421,0 -0.0583,0.0506 -0.0511,0.15944 0.006,0.0877 -0.0121,0.25866 -0.0397,0.37993 -0.045,0.19759 -0.0404,0.23379 0.0444,0.34848 0.052,0.0704 0.10755,0.17951 0.12336,0.24249 0.0161,0.0639 0.14781,0.21 0.29847,0.33085 0.25111,0.2014 0.27758,0.24116 0.38327,0.57573 0.0624,0.19766 0.11353,0.37882 0.11353,0.40258 0,0.0773 -0.0952,0.046 -0.29376,-0.0967 -0.20531,-0.14744 -0.33644,-0.3807 -0.44578,-0.79298 -0.0475,-0.17902 -0.0995,-0.25576 -0.24727,-0.36444 -0.18117,-0.13328 -0.18665,-0.14492 -0.17205,-0.36543 0.008,-0.12528 0.0288,-0.30284 0.0456,-0.3946 0.0237,-0.12916 0.004,-0.22171 -0.0867,-0.40998 -0.0644,-0.13374 -0.14068,-0.33915 -0.16938,-0.45645 -0.0641,-0.26207 -0.15467,-0.30596 -0.31477,-0.15257 -0.0662,0.0634 -0.13314,0.1153 -0.14877,0.1153 -0.0725,0 -0.17212,-0.15433 -0.14822,-0.22963 0.0434,-0.13674 -0.22348,-0.61339 -0.37966,-0.67808 -0.0854,-0.0354 -0.16357,-0.12123 -0.21586,-0.23718 -0.0908,-0.20145 -0.19274,-0.27853 -0.29455,-0.22281 -0.0369,0.0202 -0.1848,0.0609 -0.32858,0.0904 -0.26358,0.0541 -0.35814,0.13388 -0.32206,0.27186 0.0133,0.0508 -0.0328,0.0999 -0.14344,0.15262 -0.0897,0.0428 -0.18626,0.12875 -0.21467,0.1911 -0.0284,0.0623 -0.0909,0.12583 -0.13899,0.14107 -0.048,0.0153 -0.12215,0.085 -0.16469,0.15493 -0.0426,0.07 -0.16926,0.19783 -0.28157,0.28414 -0.15373,0.11814 -0.20171,0.18423 -0.19407,0.26733 0.0447,0.48578 -0.0239,0.89222 -0.19114,1.13358 -0.16315,0.23543 -0.17461,0.24199 -0.31264,0.1791 -0.076,-0.0346 -0.12276,-0.10223 -0.14212,-0.20545 -0.0159,-0.0846 -0.10763,-0.32303 -0.2039,-0.52979 -0.58248,-1.25107 -0.6686,-1.48978 -0.61898,-1.71569 0.0335,-0.15267 -0.0469,-0.38301 -0.12465,-0.35693 -0.0312,0.0105 -0.0572,0.048 -0.0579,0.0834 -0.004,0.20793 -0.23748,0.23986 -0.41994,0.0574 l -0.12091,-0.1209 0.10401,-0.0385 c 0.11704,-0.0433 0.1063,-0.16005 -0.0128,-0.13865 -0.0423,0.008 -0.13912,-0.0385 -0.21515,-0.1025 -0.076,-0.064 -0.15579,-0.11632 -0.17723,-0.11632 -0.0215,0 -0.0521,-0.0412 -0.0681,-0.0916 -0.042,-0.13229 -0.28364,-0.24738 -0.40475,-0.19277 -0.10899,0.0491 -1.0978,0.0389 -1.26331,-0.0131 -0.0596,-0.0187 -0.16989,-0.10444 -0.24505,-0.19046 -0.13583,-0.15545 -0.13792,-0.15607 -0.34166,-0.10115 -0.19305,0.052 -0.2211,0.0471 -0.48113,-0.0841 -0.2247,-0.11342 -0.29202,-0.1746 -0.36138,-0.32842 -0.0885,-0.19626 -0.28505,-0.33837 -0.40456,-0.29251 -0.0376,0.0145 -0.0816,0.0862 -0.0977,0.15946 -0.0231,0.10521 4.4e-4,0.17358 0.11215,0.32546 0.0778,0.10575 0.1625,0.27065 0.1883,0.36645 0.0554,0.20575 0.16481,0.26696 0.2555,0.14293 0.0547,-0.0748 0.0695,-0.0774 0.10656,-0.0188 0.0237,0.0375 0.0364,0.0886 0.0284,0.11367 -0.0253,0.0787 0.23754,0.20832 0.36019,0.17754 0.062,-0.0156 0.19443,-0.12113 0.29431,-0.2346 0.15738,-0.1788 0.21233,-0.19086 0.18543,-0.0407 -0.0181,0.10105 0.0614,0.21949 0.19301,0.28753 0.20328,0.10509 0.48648,0.33918 0.48648,0.40213 0,0.029 -0.0532,0.10247 -0.11832,0.16321 -0.0651,0.0607 -0.15873,0.18926 -0.20813,0.2856 -0.12002,0.23408 -0.4679,0.57648 -0.5857,0.57648 -0.13613,0 -0.33867,0.11497 -0.41929,0.23801 -0.0382,0.0583 -0.13862,0.14053 -0.22315,0.18273 -0.43298,0.21615 -0.95429,0.43529 -1.101,0.46281 -0.15685,0.0294 -0.16956,0.0223 -0.25266,-0.14157 -0.0481,-0.0949 -0.10272,-0.2853 -0.12132,-0.4231 -0.0242,-0.17923 -0.0711,-0.29315 -0.16486,-0.40019 -0.0721,-0.0823 -0.13102,-0.1694 -0.13102,-0.19355 0,-0.0241 -0.0822,-0.12862 -0.18268,-0.23215 -0.12514,-0.12895 -0.20599,-0.26888 -0.25668,-0.44421 -0.0407,-0.14078 -0.12352,-0.31746 -0.18405,-0.39263 -0.41807,-0.51918 -0.54187,-0.70224 -0.60419,-0.89341 -0.0826,-0.25337 -0.15245,-0.29428 -0.18469,-0.10817 l -0.0229,0.1321 -0.15411,-0.19458 c -0.23746,-0.29982 -0.26738,-0.16353 -0.0445,0.20249 0.10549,0.17321 0.27366,0.47892 0.3737,0.67935 0.10003,0.20044 0.22973,0.42787 0.2882,0.5054 0.0602,0.0798 0.10631,0.2046 0.10631,0.28771 0,0.17166 0.0512,0.27879 0.25238,0.52796 0.0809,0.10022 0.16085,0.24654 0.17763,0.32516 0.0215,0.10083 0.10947,0.20626 0.2985,0.35788 0.28729,0.23042 0.47344,0.47093 0.51964,0.67137 0.0174,0.0753 0.0831,0.15259 0.16647,0.1957 0.12704,0.0657 0.17176,0.0639 0.57324,-0.0231 0.23949,-0.0519 0.49319,-0.1242 0.56377,-0.1607 l 0.12833,-0.0664 0.0305,0.18031 c 0.0277,0.16386 -0.002,0.24278 -0.3264,0.86477 -0.34869,0.66876 -0.365,0.69087 -0.71171,0.96458 -0.19516,0.15407 -0.39938,0.34269 -0.45383,0.41916 -0.0545,0.0765 -0.22867,0.283 -0.38714,0.45896 -0.46249,0.5135 -0.52536,0.96511 -0.21862,1.57043 0.0779,0.15375 0.10835,0.27014 0.0899,0.34372 -0.0154,0.0612 -0.006,0.21575 0.0219,0.34347 0.0431,0.20108 0.0382,0.25485 -0.0364,0.4011 -0.10771,0.21104 -0.1934,0.2869 -0.49449,0.43779 -0.13153,0.0659 -0.23916,0.13931 -0.23916,0.16311 0,0.0238 -0.0922,0.14713 -0.20499,0.27408 -0.11275,0.12694 -0.20499,0.25144 -0.20499,0.27666 0,0.0252 0.0423,0.12869 0.0939,0.22994 0.15486,0.30355 0.0508,0.52351 -0.3204,0.67727 -0.15649,0.0648 -0.20787,0.19716 -0.16916,0.43571 0.0203,0.12499 0.007,0.16657 -0.0634,0.20448 -0.0489,0.0262 -0.13728,0.12356 -0.19642,0.21644 -0.18674,0.29327 -0.72353,0.81219 -0.96738,0.93519 -0.20349,0.10264 -0.25554,0.11169 -0.40505,0.0704 -0.13181,-0.0364 -0.23818,-0.0306 -0.45918,0.0249 -0.35797,0.0899 -0.31999,0.0936 -0.45862,-0.045 z m 6.00013,-14.5296 c 0.11759,-0.0608 0.1344,-0.0943 0.1344,-0.26775 0,-0.12435 -0.0266,-0.22031 -0.0713,-0.25745 -0.0392,-0.0326 -0.1028,-0.12005 -0.14127,-0.19443 -0.0636,-0.12304 -0.0633,-0.13271 0.003,-0.10725 0.0876,0.0336 0.20959,-0.007 0.20959,-0.0695 0,-0.0248 -0.0424,-0.10455 -0.0942,-0.1773 -0.078,-0.10957 -0.10928,-0.12418 -0.18221,-0.0851 -0.059,0.0316 -0.088,0.0318 -0.088,8.9e-4 0,-0.0254 -0.0813,-0.0877 -0.18069,-0.13842 -0.21992,-0.11219 -0.29818,-0.2365 -0.22958,-0.36467 0.0519,-0.097 0.23737,-0.16497 0.31657,-0.11602 0.10679,0.066 0.13826,-0.0313 0.0502,-0.15502 -0.21365,-0.30006 -0.51114,-0.28031 -0.88009,0.0584 -0.23808,0.21859 -0.25876,0.27668 -0.1241,0.34875 0.0501,0.0268 0.0911,0.0792 0.0911,0.1165 0,0.0373 0.081,0.15565 0.18007,0.26309 0.22809,0.24745 0.26992,0.36052 0.2417,0.65338 l -0.0227,0.23577 0.31296,0.16058 c 0.17213,0.0883 0.31911,0.1616 0.32661,0.16283 0.008,0.001 0.0741,-0.029 0.14805,-0.0673 z m -1.25501,12.72468 c -0.12862,-0.0729 -0.1469,-0.11145 -0.18049,-0.38034 -0.0268,-0.21487 -0.0156,-0.26157 0.11289,-0.47047 0.13064,-0.21231 0.14004,-0.25321 0.11123,-0.48383 -0.0416,-0.33298 0.0292,-0.50796 0.22274,-0.55042 0.18234,-0.04 0.57687,-0.3883 0.6714,-0.59273 l 0.0722,-0.15622 0.0502,0.1102 c 0.12633,0.27727 0.11348,0.39906 -0.10631,1.00721 -0.1176,0.32539 -0.24376,0.71461 -0.28037,0.86494 -0.11714,0.48111 -0.1837,0.59711 -0.37557,0.6546 -0.20428,0.0612 -0.18451,0.0614 -0.29797,-0.003 z m 22.44,-0.79199 c -0.14535,-0.15904 -0.23234,-0.29549 -0.23234,-0.36444 0,-0.15285 0.0245,-0.13951 0.156,0.0848 0.0629,0.10725 0.17646,0.25459 0.25247,0.3274 0.076,0.0728 0.13817,0.14905 0.13817,0.16942 0,0.0876 -0.097,0.0206 -0.3143,-0.21719 z m -20.32173,-0.0647 c 0,-0.0251 0.0205,-0.0456 0.0456,-0.0456 0.025,0 0.0455,0.0205 0.0455,0.0456 0,0.025 -0.0205,0.0455 -0.0455,0.0455 -0.0251,0 -0.0456,-0.0205 -0.0456,-0.0455 z m 23.98922,-0.0831 c -0.0161,-0.026 -0.007,-0.061 0.0201,-0.0778 0.0677,-0.0418 0.0917,-0.009 0.0465,0.0645 -0.0242,0.0392 -0.0477,0.0438 -0.0666,0.0132 z m -23.67034,-0.0736 c 0,-0.0111 0.0205,-0.0328 0.0456,-0.0482 0.025,-0.0155 0.0455,-0.006 0.0455,0.0201 0,0.0265 -0.0205,0.0482 -0.0455,0.0482 -0.0251,0 -0.0456,-0.009 -0.0456,-0.0201 z m 22.4857,-0.46234 c -0.0444,-0.11563 0.012,-0.15616 0.13752,-0.099 0.10837,0.0494 0.11075,0.0569 0.0352,0.11217 -0.10564,0.0772 -0.139,0.0747 -0.17274,-0.0132 z m 0.28863,-0.20259 c -0.089,-0.055 -0.0274,-0.099 0.11427,-0.0815 0.11097,0.0137 0.11351,0.0187 0.0342,0.0676 -0.0506,0.0312 -0.11129,0.0369 -0.14852,0.0139 z m -2.12691,-0.16717 c -0.0935,-0.20145 -0.0608,-0.27883 0.036,-0.0849 0.10069,0.20178 0.10244,0.20838 0.0551,0.20789 -0.0188,-1.8e-4 -0.0598,-0.0555 -0.0911,-0.12296 z m 0.17443,-0.0323 c -0.002,-0.048 0.009,-0.0749 0.0239,-0.0598 0.0151,0.0151 0.0168,0.0544 0.004,0.0873 -0.0145,0.0363 -0.0253,0.0255 -0.0275,-0.0275 z m 3.70856,-0.43737 c -0.0417,-0.0674 -0.002,-0.10192 0.0951,-0.0829 0.0712,0.0139 0.0719,0.0213 0.008,0.0746 -0.0512,0.0425 -0.0802,0.0448 -0.10276,0.008 z m -26.922,-0.22696 c -0.0155,-0.025 -0.006,-0.0455 0.0201,-0.0455 0.0265,0 0.0482,0.0205 0.0482,0.0455 0,0.0251 -0.009,0.0456 -0.0201,0.0456 -0.0111,0 -0.0328,-0.0205 -0.0482,-0.0456 z m 19.99827,-0.42798 c -0.28828,-0.0909 -0.41899,-0.17535 -0.53244,-0.34397 -0.12962,-0.19264 -0.36681,-0.33847 -0.48797,-0.30001 -0.049,0.0155 -0.1314,0.10005 -0.18318,0.18779 -0.0881,0.14937 -0.10503,0.1576 -0.26524,0.12913 -0.0941,-0.0167 -0.22557,-0.0812 -0.29211,-0.14321 -0.0846,-0.0789 -0.14943,-0.10377 -0.21547,-0.0828 -0.052,0.0165 -0.12723,0.0116 -0.16728,-0.0108 -0.0626,-0.035 -0.0565,-0.0515 0.0437,-0.1171 0.11602,-0.076 0.11619,-0.077 0.0384,-0.24026 -0.0625,-0.1311 -0.14877,-0.19941 -0.43081,-0.34122 -0.19396,-0.0975 -0.41322,-0.17731 -0.48725,-0.17731 -0.16941,0 -0.23936,-0.15615 -0.11176,-0.24946 0.0759,-0.0555 0.0648,-0.0693 -0.13322,-0.1655 -0.21028,-0.10217 -0.21328,-0.10649 -0.11284,-0.16226 0.0567,-0.0315 0.14815,-0.058 0.2031,-0.0589 0.10673,-0.002 0.24174,0.15226 0.24174,0.2757 0,0.0412 0.0443,0.13115 0.0984,0.19998 0.097,0.12334 0.0995,0.12384 0.17082,0.0348 0.0398,-0.0497 0.16689,-0.14451 0.2824,-0.2107 l 0.21,-0.12034 0.29109,0.13132 c 0.1601,0.0722 0.38737,0.16602 0.50504,0.20842 0.11768,0.0424 0.35305,0.16846 0.52305,0.28013 0.32466,0.21323 0.4657,0.39301 0.38481,0.49048 -0.0659,0.0795 0.19308,0.44136 0.4612,0.64441 0.2947,0.22318 0.28972,0.24383 -0.0342,0.1417 z m 1.98252,-0.004 c -0.0359,-0.0433 -0.0394,-0.0694 -0.009,-0.0694 0.0551,0 0.11924,0.0864 0.0876,0.11801 -0.0115,0.0115 -0.0468,-0.0104 -0.0785,-0.0486 z m -7.65408,-0.18543 c -0.066,-0.0365 -0.0851,-0.0634 -0.0455,-0.0639 0.0814,-0.001 0.21147,0.0747 0.18082,0.10537 -0.0118,0.0118 -0.0727,-0.007 -0.13534,-0.0415 z m 0.77021,-0.0602 c 0.12918,-0.18142 0.33137,-0.25907 0.51828,-0.19904 0.1362,0.0437 0.13833,0.0474 0.0302,0.0517 -0.064,0.003 -0.21333,0.0661 -0.33185,0.14131 -0.27045,0.17152 -0.33575,0.17333 -0.21661,0.006 z m 6.60964,0.0623 c -0.0616,-0.0742 -0.0468,-0.0834 0.0646,-0.0407 0.0396,0.0152 0.0721,0.046 0.0721,0.0683 0,0.063 -0.0738,0.0481 -0.13666,-0.0276 z m 0.21335,-0.0402 c -0.0171,-0.0446 -0.0298,-0.11534 -0.0282,-0.15714 0.002,-0.0503 0.0177,-0.0389 0.0469,0.034 0.0242,0.0605 0.0369,0.1312 0.0283,0.15713 -0.009,0.0259 -0.0297,0.0106 -0.0469,-0.034 z m 3.52208,0.0429 c 0,-0.0111 0.0205,-0.0328 0.0456,-0.0482 0.0251,-0.0155 0.0456,-0.006 0.0456,0.0201 0,0.0265 -0.0205,0.0483 -0.0456,0.0483 -0.0251,0 -0.0456,-0.009 -0.0456,-0.0201 z m -11.65075,-0.19133 c -0.0315,-0.0133 -0.0456,-0.0429 -0.0315,-0.0658 0.0348,-0.0563 0.32676,-0.0532 0.36203,0.004 0.0155,0.025 0.001,0.0458 -0.0315,0.0462 -0.0328,3.7e-4 -0.10063,0.009 -0.15074,0.0202 -0.0501,0.0108 -0.11686,0.009 -0.14833,-0.005 z m 0.6763,-0.0342 c -0.0828,-0.0998 0.0126,-0.1301 0.22722,-0.0723 0.2162,0.0582 0.21547,0.0673 -0.009,0.10777 -0.11638,0.021 -0.18035,0.0106 -0.2186,-0.0354 z m 6.8396,-0.0277 c -0.0315,-0.0505 -0.0371,-0.0911 -0.0126,-0.0911 0.0244,0 0.0663,0.041 0.0931,0.0911 0.0268,0.0501 0.0325,0.0911 0.0126,0.0911 -0.0199,0 -0.0618,-0.041 -0.0931,-0.0911 z m 0.28528,-0.0458 c -0.12179,-0.13457 -0.0566,-0.15574 0.0687,-0.0223 0.0588,0.0625 0.0859,0.11371 0.0604,0.11371 -0.0255,0 -0.0837,-0.0411 -0.12914,-0.0914 z m -8.54115,-0.008 c -0.16286,-0.0226 -0.39248,-0.0727 -0.51027,-0.11132 -0.11778,-0.0386 -0.25656,-0.0568 -0.3084,-0.0404 -0.10429,0.0331 -0.54796,-0.0973 -0.54796,-0.16108 0,-0.14562 0.40838,-0.15668 0.6254,-0.0169 0.081,0.0522 0.14488,0.0557 0.31618,0.0173 0.18976,-0.0425 0.22929,-0.0373 0.34078,0.0451 0.0694,0.0513 0.14677,0.0933 0.17198,0.0933 0.0901,0 0.36349,0.15239 0.34041,0.18973 -0.0129,0.0209 -0.0479,0.0352 -0.0778,0.0317 -0.0298,-0.003 -0.1875,-0.0248 -0.35035,-0.0474 z m 8.17697,-0.21959 c -0.0454,-0.0501 -0.062,-0.0911 -0.0369,-0.0911 0.025,0 0.0827,0.041 0.12801,0.0911 0.0453,0.0501 0.0619,0.0911 0.0369,0.0911 -0.025,0 -0.0827,-0.041 -0.128,-0.0911 z m -0.28728,-0.0577 c -0.0259,-0.0312 -0.0602,-0.11808 -0.0764,-0.19311 -0.026,-0.12084 -0.0231,-0.12601 0.0255,-0.0453 0.0302,0.0501 0.084,0.12494 0.11973,0.1663 0.0378,0.0438 0.0468,0.0864 0.0216,0.102 -0.0238,0.0147 -0.0645,0.001 -0.0904,-0.0299 z m -0.96476,-0.14484 -0.11318,-0.0626 0.17545,-0.0329 c 0.0965,-0.0181 0.2448,-0.0938 0.32956,-0.16822 0.0925,-0.0812 0.15384,-0.11067 0.15342,-0.0737 -0.001,0.0926 -0.0571,0.16401 -0.22735,0.28963 -0.17786,0.13122 -0.16948,0.12996 -0.3179,0.0478 z m -8.54527,-0.17738 c -0.16737,-0.0953 -0.46923,-0.46423 -0.5675,-0.69351 -0.053,-0.12368 -0.1745,-0.32736 -0.26997,-0.45264 -0.0955,-0.12527 -0.20507,-0.28927 -0.24354,-0.36443 -0.0385,-0.0752 -0.15533,-0.21866 -0.25968,-0.31888 -0.22001,-0.2113 -0.35532,-0.43335 -0.2631,-0.43176 0.11952,0.002 0.42723,0.17314 0.55921,0.31092 0.36408,0.38007 0.43868,0.44771 0.61054,0.55361 0.16587,0.10219 0.24441,0.20855 0.25229,0.34165 0.001,0.0251 0.0487,0.0968 0.10482,0.15944 0.0562,0.0626 0.16215,0.18044 0.23551,0.26179 0.0734,0.0813 0.14664,0.20827 0.16284,0.28204 0.053,0.24148 -0.14143,0.45431 -0.32142,0.35177 z m -9.176,-0.0301 c 0,-0.025 0.0205,-0.0455 0.0455,-0.0455 0.0251,0 0.0456,0.0205 0.0456,0.0455 0,0.0251 -0.0205,0.0456 -0.0456,0.0456 -0.025,0 -0.0455,-0.0205 -0.0455,-0.0456 z m 12.04882,-4.3e-4 c -0.0156,-0.0253 -0.0157,-0.0858 -4.3e-4,-0.13459 0.0155,-0.0488 -0.003,-0.13664 -0.0419,-0.19548 -0.0634,-0.0968 -0.0628,-0.11711 0.006,-0.216 0.042,-0.06 0.0917,-0.22121 0.11024,-0.35819 0.0229,-0.16901 0.0682,-0.28348 0.14091,-0.35617 0.0994,-0.0994 0.1244,-0.10383 0.3479,-0.0614 0.19189,0.0364 0.2674,0.0319 0.37186,-0.0221 0.17493,-0.0905 0.18769,-0.0864 0.1296,0.0411 -0.0738,0.16206 -0.22138,0.21386 -0.37696,0.13234 -0.2778,-0.14555 -0.64638,0.0708 -0.45192,0.26523 0.0715,0.0715 0.11103,0.078 0.24343,0.04 0.22693,-0.0651 0.3164,-0.0531 0.17548,0.0234 -0.15952,0.0867 -0.18979,0.18286 -0.10758,0.34183 0.0374,0.0723 0.068,0.18451 0.068,0.24927 0,0.10366 -0.0109,0.11191 -0.0912,0.069 -0.0502,-0.0268 -0.12251,-0.12376 -0.16078,-0.21538 -0.0691,-0.16531 -0.0703,-0.1659 -0.15868,-0.0775 -0.0775,0.0775 -0.0828,0.11197 -0.0403,0.26563 0.0383,0.13887 0.0358,0.18478 -0.0121,0.21511 -0.0805,0.051 -0.11785,0.0495 -0.15218,-0.006 z m 6.25006,-0.24297 c -0.0429,-0.0655 -0.14128,-0.15185 -0.21854,-0.1918 -0.0773,-0.04 -0.13022,-0.0829 -0.11769,-0.0954 0.0708,-0.0708 0.46613,0.2509 0.43244,0.35196 -0.0103,0.031 -0.0516,0.003 -0.0962,-0.0647 z m -7.15366,-0.15162 c -0.0687,-0.036 -0.16132,-0.0539 -0.20576,-0.0398 -0.11332,0.036 -0.56351,-0.0557 -0.60811,-0.12376 -0.0355,-0.0542 -0.13983,-0.38795 -0.19566,-0.62583 -0.0153,-0.0654 0,-0.15028 0.0359,-0.19938 0.0522,-0.0712 0.0791,-0.0766 0.16167,-0.0325 0.0872,0.0466 0.10563,0.0387 0.15342,-0.0662 0.0299,-0.0656 0.12936,-0.15752 0.22105,-0.2043 0.0971,-0.0495 0.19043,-0.14229 0.2235,-0.22214 0.0381,-0.0921 0.10777,-0.15391 0.21202,-0.18831 0.0854,-0.0282 0.20869,-0.12132 0.27402,-0.20698 0.0653,-0.0857 0.14309,-0.15574 0.17278,-0.15574 0.0297,0 0.11958,0.0677 0.19974,0.15038 l 0.14576,0.15038 -0.11684,0.15711 c -0.13273,0.17849 -0.12577,0.332 0.0246,0.5432 l 0.091,0.12787 -0.11345,0.0743 c -0.0624,0.0409 -0.11337,0.0995 -0.11328,0.13023 4.4e-4,0.10435 -0.29151,0.70575 -0.36467,0.75144 -0.0509,0.0318 -0.11024,0.0258 -0.19771,-0.02 z m 2.6463,-8.4e-4 c -0.0943,-0.0246 -0.10735,-0.10526 -0.0171,-0.10526 0.0344,0 0.13086,0.0136 0.21425,0.0303 0.12838,0.0257 0.13798,0.0357 0.0626,0.0651 -0.0989,0.0387 -0.14291,0.0404 -0.25981,0.01 z m 7.2545,-0.58089 c 0,-0.0111 0.0205,-0.0328 0.0455,-0.0482 0.0251,-0.0155 0.0456,-0.006 0.0456,0.0201 0,0.0265 -0.0205,0.0482 -0.0456,0.0482 -0.025,0 -0.0455,-0.009 -0.0455,-0.0201 z m -7.41408,-0.12355 c -0.0364,-0.0364 -0.0386,-0.0786 -0.007,-0.13761 0.025,-0.0468 0.0334,-0.10472 0.0185,-0.12874 -0.0411,-0.0665 0.0618,-0.22777 0.14533,-0.22777 0.067,0 0.0667,0.008 -0.003,0.0847 -0.0602,0.0665 -0.0669,0.11051 -0.0311,0.20459 0.0723,0.19018 -0.006,0.32129 -0.12285,0.20479 z m -22.87944,-0.14978 c 0,-0.011 0.0205,-0.0327 0.0456,-0.0482 0.0251,-0.0155 0.0456,-0.006 0.0456,0.0201 0,0.0265 -0.0205,0.0482 -0.0456,0.0482 -0.0251,0 -0.0456,-0.009 -0.0456,-0.0201 z m 31.59181,-0.11657 c -0.0155,-0.0251 -0.006,-0.0455 0.0201,-0.0455 0.0265,0 0.0482,0.0205 0.0482,0.0455 0,0.025 -0.009,0.0455 -0.0201,0.0455 -0.0111,0 -0.0328,-0.0205 -0.0482,-0.0455 z m -31.31848,-0.43008 c 0,-0.011 0.0205,-0.0328 0.0455,-0.0482 0.0251,-0.0155 0.0456,-0.006 0.0456,0.0201 0,0.0265 -0.0205,0.0482 -0.0456,0.0482 -0.025,0 -0.0455,-0.009 -0.0455,-0.0201 z m 21.91201,-0.68491 c -0.0869,-0.20269 -0.0985,-0.2118 -0.23218,-0.18244 -0.13329,0.0293 -0.13795,0.0257 -0.088,-0.0676 0.0413,-0.0773 0.0797,-0.0926 0.17769,-0.0711 0.0945,0.0207 0.15483,-2.4e-4 0.24738,-0.086 0.0673,-0.0624 0.12287,-0.1503 0.12342,-0.19535 0.001,-0.11497 0.17059,0.27062 0.20919,0.47677 0.0293,0.15653 0.0257,0.16505 -0.0455,0.10608 -0.10567,-0.0875 -0.20741,0.003 -0.12071,0.10775 0.0346,0.0417 0.039,0.0703 0.0109,0.0703 -0.0261,0 -0.0797,0.0124 -0.11906,0.0275 -0.0529,0.0203 -0.0956,-0.0284 -0.16311,-0.18585 z m -8.30582,0.0805 c -0.0509,-0.0827 -0.0799,-0.45393 -0.0431,-0.55244 0.039,-0.10446 0.0419,-0.10319 0.15801,0.0683 0.13909,0.20557 0.18361,0.3374 0.13771,0.40779 -0.0439,0.0674 -0.22454,0.12194 -0.25262,0.0763 z m 10.17308,-0.23563 c 0,-0.0251 0.0205,-0.0582 0.0456,-0.0737 0.0251,-0.0155 0.0456,-0.008 0.0456,0.0174 0,0.0251 -0.0205,0.0582 -0.0456,0.0737 -0.0251,0.0155 -0.0456,0.008 -0.0456,-0.0174 z m 7.152,-0.005 c 0,-0.0251 0.009,-0.0456 0.0201,-0.0456 0.011,0 0.0328,0.0205 0.0482,0.0456 0.0155,0.025 0.006,0.0455 -0.0201,0.0455 -0.0265,0 -0.0482,-0.0205 -0.0482,-0.0455 z m -10.34079,-0.26315 c 0,-0.0195 0.0913,-0.13735 0.20295,-0.26194 0.16357,-0.18256 0.20335,-0.20836 0.205,-0.13293 0.001,0.0515 -0.0674,0.16935 -0.15216,0.26194 -0.1438,0.157 -0.25579,0.21519 -0.25579,0.13293 z m 0.98667,-0.12155 c -0.0166,-0.0433 -0.0132,-0.10892 0.007,-0.14594 0.0321,-0.0573 0.0455,-0.0579 0.0904,-0.004 0.0403,0.0485 0.0385,0.0831 -0.007,0.14594 -0.0565,0.0772 -0.0621,0.0774 -0.0904,0.004 z M 108.972,145.7631 c 0.0279,-0.0336 0.0373,-0.0746 0.0208,-0.0911 -0.0165,-0.0165 0.0125,-0.03 0.0645,-0.03 0.072,0 0.0888,0.0216 0.0706,0.0911 -0.0138,0.0529 -0.0621,0.0911 -0.1152,0.0911 -0.0713,0 -0.0802,-0.0134 -0.0406,-0.0611 z m 35.19061,-0.0121 c -0.017,-0.0474 -0.0392,-0.10162 -0.0493,-0.12041 -0.0102,-0.0188 8.6e-4,-0.0342 0.0245,-0.0342 0.0454,0 0.10945,0.18706 0.0756,0.22092 -0.0109,0.0109 -0.0338,-0.0189 -0.0508,-0.0663 z m -0.46162,-0.11886 c -0.064,-0.0771 -0.002,-0.18683 0.094,-0.16547 0.06,0.0134 0.0622,0.0323 0.0141,0.12145 -0.0464,0.086 -0.0665,0.0942 -0.10811,0.044 z m 0.53857,-0.15656 c -0.0523,-0.0665 -0.0875,-0.12844 -0.0782,-0.13773 0.037,-0.037 0.16512,0.0446 0.23324,0.14851 0.10476,0.15989 -0.0281,0.15065 -0.15509,-0.0108 z m -0.74889,-0.17634 c -0.0406,-0.0406 -0.0737,-0.0974 -0.0737,-0.12618 0,-0.0288 0.045,-0.007 0.1,0.0475 0.055,0.055 0.0882,0.11176 0.0738,0.12618 -0.0144,0.0144 -0.0594,-0.007 -0.1,-0.0475 z m -35.75784,-0.007 c -0.0167,-0.0167 -0.0304,-0.0515 -0.0304,-0.0774 0,-0.0285 0.0212,-0.0259 0.0539,0.007 0.0296,0.0297 0.0433,0.0645 0.0304,0.0774 -0.0129,0.0129 -0.0372,0.01 -0.0539,-0.007 z m -0.25814,-0.0607 c 0,-0.0251 0.009,-0.0456 0.0201,-0.0456 0.011,0 0.0327,0.0205 0.0482,0.0456 0.0155,0.0251 0.006,0.0455 -0.0201,0.0455 -0.0265,0 -0.0482,-0.0205 -0.0482,-0.0455 z m 2.14104,-0.0911 c 0,-0.025 0.009,-0.0455 0.0201,-0.0455 0.0111,0 0.0328,0.0205 0.0483,0.0455 0.0155,0.0251 0.006,0.0456 -0.0201,0.0456 -0.0265,0 -0.0482,-0.0205 -0.0482,-0.0456 z m 34.33315,-0.007 c -0.0457,-0.0258 -0.13224,-0.0345 -0.19239,-0.0194 -0.0882,0.0221 -0.14902,-0.0134 -0.31414,-0.18323 -0.23325,-0.24 -0.2786,-0.34119 -0.21017,-0.46904 0.0264,-0.0494 0.0481,-0.15147 0.0481,-0.22681 0,-0.24727 0.16562,-0.23727 0.28703,0.0173 0.0673,0.14106 0.0677,0.17134 0.004,0.32263 -0.0681,0.16288 -0.0667,0.17014 0.0547,0.29685 0.0877,0.0915 0.15348,0.1226 0.22277,0.10521 0.0586,-0.0147 0.12174,0.004 0.15621,0.0451 0.082,0.0988 0.0462,0.16938 -0.0565,0.1114 z m -34.60647,-0.28647 c 0,-0.0111 0.0205,-0.0328 0.0456,-0.0482 0.0251,-0.0155 0.0456,-0.006 0.0456,0.0201 0,0.0265 -0.0205,0.0483 -0.0456,0.0483 -0.0251,0 -0.0456,-0.009 -0.0456,-0.0201 z m 7.152,-0.16213 c 0,-0.0251 0.0205,-0.0456 0.0456,-0.0456 0.0251,0 0.0456,0.0205 0.0456,0.0456 0,0.0251 -0.0205,0.0455 -0.0456,0.0455 -0.0251,0 -0.0456,-0.0205 -0.0456,-0.0455 z m -7.28866,-0.17684 c 0,-0.0251 0.0205,-0.0582 0.0456,-0.0737 0.0251,-0.0155 0.0456,-0.008 0.0456,0.0174 0,0.0251 -0.0205,0.0582 -0.0456,0.0737 -0.0251,0.0155 -0.0456,0.008 -0.0456,-0.0174 z m -0.38689,-0.18707 c -0.016,-0.0258 0.002,-0.0335 0.0429,-0.0179 0.0789,0.0303 0.0934,0.0629 0.0278,0.0629 -0.0236,0 -0.0554,-0.0203 -0.0707,-0.045 z m 7.24279,-5e-4 c -0.0155,-0.025 -0.006,-0.0455 0.0201,-0.0455 0.0265,0 0.0482,0.0205 0.0482,0.0455 0,0.0251 -0.009,0.0456 -0.0201,0.0456 -0.011,0 -0.0328,-0.0205 -0.0482,-0.0456 z m -7.0609,-0.0911 c -0.0155,-0.0251 -0.006,-0.0456 0.0201,-0.0456 0.0265,0 0.0482,0.0205 0.0482,0.0456 0,0.025 -0.009,0.0455 -0.0201,0.0455 -0.0111,0 -0.0328,-0.0205 -0.0483,-0.0455 z m 0.205,0 c 0,-0.0251 0.009,-0.0456 0.0201,-0.0456 0.011,0 0.0327,0.0205 0.0482,0.0456 0.0155,0.025 0.006,0.0455 -0.0201,0.0455 -0.0265,0 -0.0482,-0.0205 -0.0482,-0.0455 z m -3.13185,-0.12128 c -0.0313,-0.0126 -0.0569,-0.0418 -0.0569,-0.0647 0,-0.0657 0.20108,-0.0488 0.29878,0.0251 0.084,0.0635 0.0816,0.0668 -0.0482,0.0647 -0.0752,-0.001 -0.16228,-0.0125 -0.1936,-0.0251 z m 1.15271,-0.0258 c -0.0408,-0.0229 -0.13111,-0.0291 -0.20057,-0.0138 -0.0695,0.0153 -0.1763,0.008 -0.23742,-0.0167 -0.0983,-0.0393 -0.0896,-0.0439 0.0752,-0.0401 0.2422,0.006 0.30685,-0.0338 0.24496,-0.14943 -0.0439,-0.0821 -0.0307,-0.0884 0.18659,-0.0884 0.21022,0 0.5135,0.0964 0.56491,0.17959 0.0342,0.0553 -0.55209,0.17449 -0.63367,0.12883 z m 0.87381,0.0288 c -0.054,-0.054 0.0131,-0.10946 0.1324,-0.10946 0.0716,0 0.10792,0.0215 0.0962,0.057 -0.021,0.0638 -0.1807,0.10045 -0.22864,0.0525 z m 32.95736,-0.0724 c -0.12062,-0.12063 -0.001,-0.26479 0.21929,-0.26479 0.0978,0 0.0978,8e-4 0.014,0.1444 -0.0978,0.16739 -0.15613,0.19751 -0.23326,0.12039 z m -32.5809,-0.009 c 0,-0.01 0.0308,-0.0297 0.0683,-0.0441 0.0376,-0.0144 0.0683,-0.006 0.0683,0.0179 0,0.0243 -0.0307,0.0441 -0.0683,0.0441 -0.0376,0 -0.0683,-0.008 -0.0683,-0.0179 z m -1.96921,-0.32655 c -0.0141,-0.0141 -0.11022,-0.0267 -0.21369,-0.0282 -0.14275,-0.002 -0.177,-0.016 -0.14198,-0.0582 0.0338,-0.0408 -0.0148,-0.0951 -0.18223,-0.20359 -0.32836,-0.21277 -0.5117,-0.25435 -0.73231,-0.16609 -0.20685,0.0828 -0.2227,0.0851 -0.2227,0.033 0,-0.0953 0.36256,-0.20021 0.62362,-0.18037 0.24967,0.019 0.38946,0.0721 0.87967,0.33438 0.40294,0.21556 0.40338,0.21597 0.27333,0.25306 -0.14769,0.0421 -0.25173,0.048 -0.28371,0.016 z m 0.32926,-0.38442 c 0.0883,-0.0571 0.13666,-0.0571 0.13666,0 0,0.0251 -0.0461,0.0452 -0.10249,0.0449 -0.0829,-5.6e-4 -0.0894,-0.009 -0.0342,-0.0449 z m 36.27932,-0.0808 c -0.0276,-0.0182 -0.075,-0.0803 -0.10534,-0.1379 -0.0458,-0.0869 -0.041,-0.1291 0.0278,-0.2469 0.10626,-0.18192 0.17801,-0.20462 0.2125,-0.0672 0.0363,0.14454 -0.0686,0.49583 -0.13492,0.45202 z m -35.98023,-0.0607 c 0.0304,-0.0492 0.20202,-0.0548 0.20197,-0.007 -1e-5,0.0188 -0.0511,0.0371 -0.11358,0.0407 -0.0625,0.004 -0.10223,-0.0118 -0.0884,-0.0342 z m -0.90081,-0.43903 c -0.0728,-0.0836 -0.0623,-0.19389 0.0186,-0.19389 0.0259,0 0.0366,0.04 0.0238,0.0889 -0.0128,0.0489 1.9e-4,0.0974 0.0289,0.10764 0.0286,0.0103 0.04,0.0319 0.0252,0.048 -0.0148,0.0161 -0.0582,-0.007 -0.0966,-0.0507 z m 0.26462,-0.35788 c -0.0162,-0.0422 -0.0192,-0.0871 -0.007,-0.0996 0.0125,-0.0125 0.036,0.0118 0.0523,0.054 0.0162,0.0422 0.0192,0.0871 0.007,0.0996 -0.0125,0.0125 -0.036,-0.0118 -0.0523,-0.054 z m -0.28547,-0.041 c 0,-0.0376 0.039,-0.0683 0.0868,-0.0683 0.0771,0 0.0792,0.008 0.0184,0.0683 -0.0376,0.0376 -0.0766,0.0683 -0.0868,0.0683 -0.0101,0 -0.0184,-0.0308 -0.0184,-0.0683 z m 38.20475,-0.9987 c 0,-0.0357 -0.0498,-0.12397 -0.11058,-0.19626 -0.14438,-0.17158 -0.0932,-0.2861 0.0777,-0.17407 0.12291,0.0805 0.18715,0.24507 0.14181,0.36322 -0.0344,0.0896 -0.10897,0.0945 -0.10897,0.007 z m -35.35003,-0.27413 c 0,-0.0111 0.0205,-0.0328 0.0456,-0.0482 0.0251,-0.0155 0.0456,-0.006 0.0456,0.0201 0,0.0265 -0.0205,0.0482 -0.0456,0.0482 -0.0251,0 -0.0456,-0.009 -0.0456,-0.0201 z m 35.60391,-0.056 c -0.0295,-0.077 0.0402,-0.14971 0.14472,-0.15099 0.0724,-8.9e-4 0.0737,0.10095 0.002,0.1724 -0.0743,0.0743 -0.11241,0.0687 -0.147,-0.0214 z m 0.41621,-0.16628 c -0.0884,-0.13499 -0.21338,-0.15352 -0.49941,-0.0741 -0.1163,0.0323 -0.19642,0.0327 -0.25054,0.001 -0.0438,-0.0255 -0.0555,-0.047 -0.0261,-0.0477 0.0294,-7.6e-4 0.11521,-0.0534 0.19069,-0.11687 0.0974,-0.0819 0.16875,-0.10758 0.24569,-0.0883 0.0815,0.0205 0.16954,-0.0187 0.35465,-0.15778 0.36039,-0.27079 0.39298,-0.35618 0.24635,-0.64553 -0.14072,-0.27771 -0.1015,-0.36712 0.10702,-0.24395 0.15177,0.0897 0.29478,0.34646 0.25323,0.45473 -0.0149,0.039 0.007,0.16126 0.0495,0.27177 0.0597,0.15637 0.0654,0.22212 0.0255,0.29656 -0.0585,0.10933 -0.22133,0.1824 -0.40646,0.1824 -0.10375,0 -0.13474,0.0266 -0.16865,0.14484 l -0.0415,0.14485 -0.08,-0.12207 z m -18.45444,-0.15549 c -0.0544,-0.0544 -0.0255,-0.10325 0.0611,-0.10325 0.0486,0 0.10109,-0.0205 0.11658,-0.0455 0.0423,-0.0685 0.11456,-0.0548 0.0872,0.0166 -0.0281,0.0732 -0.22535,0.17168 -0.26484,0.13219 z m -1.55339,-0.0788 -0.13666,-0.0626 0.18221,-0.003 c 0.22695,-0.004 0.39414,0.0387 0.36124,0.092 -0.0366,0.0593 -0.24996,0.0455 -0.40679,-0.0263 z m -1.84023,-0.45443 c -0.18232,-0.0933 -0.1909,-0.10498 -0.0957,-0.12987 0.11398,-0.0298 0.36628,0.007 0.36113,0.0531 -0.002,0.0157 -0.0171,0.0624 -0.0342,0.1039 -0.028,0.0682 -0.0502,0.0656 -0.23125,-0.0271 z m -0.91307,-0.49285 c -0.0394,-0.11309 -0.0363,-0.15638 0.0149,-0.20761 0.0926,-0.0926 0.16458,-0.0275 0.16458,0.14886 0,0.20834 -0.1143,0.24575 -0.17949,0.0588 z m -1.06821,0.0379 c 0.0323,-0.0842 0.17092,-0.0985 0.14303,-0.0147 -0.0104,0.0313 -0.0531,0.0636 -0.0947,0.0716 -0.0528,0.0103 -0.0675,-0.007 -0.0483,-0.0569 z m 23.80215,-0.51996 c -0.0834,-0.11711 -0.0857,-0.1387 -0.0241,-0.22661 0.0605,-0.0864 0.0603,-0.11225 -0.002,-0.23273 -0.10248,-0.19818 -0.0881,-0.21017 0.0896,-0.0746 0.0878,0.067 0.26122,0.15197 0.38526,0.1888 0.2563,0.0761 0.31816,0.13587 0.18453,0.17828 -0.0505,0.016 -0.0918,0.0589 -0.0918,0.0953 0,0.0495 -0.0314,0.0581 -0.12527,0.0341 -0.24035,-0.0615 -0.30866,-0.0465 -0.29323,0.0645 0.0189,0.13596 -0.0118,0.12924 -0.123,-0.0269 z m -22.66074,0.0535 c -0.0528,-0.0528 -0.0329,-0.14112 0.038,-0.16832 0.0494,-0.0189 0.0683,0.005 0.0683,0.0862 0,0.10934 -0.0446,0.14378 -0.10629,0.0821 z m 22.37167,-0.96043 c -0.0387,-0.0439 -0.1318,-0.20276 -0.207,-0.35313 -0.0752,-0.15038 -0.27403,-0.42653 -0.44183,-0.61367 -0.18748,-0.20908 -0.28274,-0.3477 -0.2471,-0.35958 0.0319,-0.0106 0.10029,0.037 0.15199,0.10585 0.12533,0.1669 0.27967,0.31182 0.5232,0.49128 0.20186,0.14876 0.30168,0.28645 0.17143,0.23647 -0.15019,-0.0576 -0.11271,0.0792 0.0817,0.29801 0.11331,0.12759 0.20602,0.24154 0.20602,0.25323 0,0.0554 -0.17606,0.0122 -0.23837,-0.0585 z m -33.33504,-0.0797 c 0,-0.0376 0.0199,-0.0683 0.0441,-0.0683 0.0243,0 0.0323,0.0308 0.0179,0.0683 -0.0144,0.0376 -0.0343,0.0683 -0.0441,0.0683 -0.01,0 -0.0179,-0.0308 -0.0179,-0.0683 z m -0.23804,-0.147 -0.16971,-0.0178 0.31935,-0.31619 c 0.17564,-0.17391 0.34231,-0.3162 0.37038,-0.3162 0.0296,0 0.0207,0.0335 -0.0212,0.0798 -0.0948,0.10479 -0.0302,0.22252 0.14314,0.26059 0.0756,0.0166 0.15107,0.0746 0.18021,0.13856 0.0468,0.10265 0.0388,0.11311 -0.11898,0.15694 -0.16558,0.046 -0.36323,0.05 -0.70324,0.0144 z m -11.10013,-0.32682 c -0.157797,-0.14741 -0.175398,-0.20951 -0.0708,-0.24966 0.0937,-0.036 0.26669,0.0813 0.33225,0.22517 0.0688,0.15099 0.0676,0.15665 -0.0337,0.15665 -0.0475,0 -0.14995,-0.0595 -0.22777,-0.13216 z m 20.06179,-0.23145 c 0.0501,-0.0247 0.14872,-0.0657 0.21913,-0.0911 0.15513,-0.056 0.12941,-0.11559 -0.0668,-0.15484 -0.1346,-0.0269 -0.13933,-0.0338 -0.0623,-0.0901 0.0458,-0.0335 0.07,-0.0826 0.0537,-0.10897 -0.0167,-0.027 0.0302,-0.0689 0.10692,-0.0956 0.0751,-0.0262 0.13661,-0.0679 0.13661,-0.0926 0,-0.10522 -0.095,-0.28222 -0.14771,-0.27534 -0.12161,0.0159 -0.17795,-0.006 -0.15834,-0.0603 0.0112,-0.0313 0.002,-0.0928 -0.0206,-0.13666 -0.0586,-0.11401 0.0761,-0.34979 0.20136,-0.35235 0.0188,-3.7e-4 0.029,0.0244 0.0228,0.0552 -0.006,0.0307 0.0367,0.0632 0.0955,0.0721 l 0.10692,0.0162 -0.10216,0.10875 -0.10216,0.10874 0.11516,0.0438 c 0.12361,0.047 0.24275,0.2001 0.36407,0.46786 0.0581,0.12829 0.0963,0.16183 0.16419,0.14409 0.13921,-0.0364 0.15572,0.0579 0.0251,0.14351 -0.0885,0.058 -0.10528,0.0906 -0.0665,0.1294 0.0388,0.0387 -0.0376,0.0648 -0.30262,0.10299 -0.19496,0.0281 -0.42621,0.0645 -0.51391,0.0807 -0.12197,0.0226 -0.13802,0.019 -0.0683,-0.0154 z m -0.76822,-0.25164 c -0.0156,-0.0406 0.002,-0.13287 0.0395,-0.20502 0.0428,-0.0828 0.0511,-0.14154 0.0225,-0.15924 -0.0789,-0.0488 -0.0494,-0.11106 0.0666,-0.14016 0.0616,-0.0155 0.13587,-0.0569 0.16502,-0.092 0.0607,-0.0731 0.34131,-0.0866 0.38345,-0.0184 0.0155,0.025 -0.004,0.0911 -0.0429,0.1468 -0.039,0.0557 -0.071,0.15583 -0.071,0.22245 0,0.10159 -0.0312,0.13197 -0.19361,0.18833 -0.10648,0.037 -0.22683,0.0816 -0.26744,0.0991 -0.0476,0.0206 -0.0839,0.006 -0.10218,-0.0419 z m 0.83655,-0.45258 c 0,-0.011 0.0205,-0.0328 0.0456,-0.0482 0.0251,-0.0155 0.0456,-0.006 0.0456,0.0201 0,0.0265 -0.0205,0.0482 -0.0456,0.0482 -0.0251,0 -0.0456,-0.009 -0.0456,-0.0201 z m -20.21694,-0.21949 c -0.04463,-0.0538 -0.04178,-0.0788 0.0142,-0.1253 0.0926,-0.0768 0.1385,-0.0247 0.0846,0.096 -0.0372,0.0833 -0.0507,0.0873 -0.0988,0.0293 z m -0.07124,-0.3426 c -0.01538,-0.0249 0.0026,-0.0706 0.03986,-0.10155 0.07407,-0.0615 0.08954,-0.0133 0.02727,0.085 -0.02378,0.0375 -0.05014,0.044 -0.06713,0.0165 z m -2.944438,-0.0291 c 0,-0.032 0.13813,-0.0881 0.334083,-0.13556 0.07428,-0.018 0.118204,-0.0137 0.103446,0.0102 -0.01411,0.0228 -0.08245,0.053 -0.15187,0.067 -0.06942,0.014 -0.162096,0.0394 -0.205941,0.0563 -0.04384,0.017 -0.07972,0.0179 -0.07972,0.002 z m 27.070558,-0.51223 c -0.084,-0.0339 -0.0692,-0.0862 0.0266,-0.0934 0.0459,-0.003 0.0835,0.0229 0.0835,0.0586 0,0.0678 -0.0158,0.0728 -0.11009,0.0348 z m -10.01053,-0.23286 c -0.28827,-0.1572 -0.42607,-0.39873 -0.34254,-0.60038 0.0395,-0.0954 0.0407,-0.15545 0.004,-0.22318 -0.0754,-0.14095 0.023,-0.30614 0.27468,-0.461 0.11955,-0.0736 0.23891,-0.17401 0.26524,-0.22322 0.073,-0.13635 0.008,-0.37 -0.119,-0.42786 -0.0643,-0.0293 -0.0992,-0.0756 -0.085,-0.11259 0.0323,-0.0843 -0.11932,-0.3721 -0.27038,-0.51313 -0.11118,-0.10379 -0.15901,-0.11412 -0.5397,-0.11662 -0.5184,-0.003 -0.61497,-0.0322 -0.60639,-0.18096 0.004,-0.0618 0.0173,-0.11235 0.0304,-0.11237 0.0132,-2e-5 0.19768,-0.0214 0.40999,-0.0475 0.27108,-0.0333 0.51412,-0.10211 0.81628,-0.23096 0.46782,-0.1995 0.50345,-0.20339 1.61967,-0.17716 0.35248,0.008 0.67674,-0.0178 1.0933,-0.088 0.38793,-0.0653 0.67337,-0.09 0.82751,-0.0714 0.13096,0.0158 0.32058,0.005 0.42764,-0.0235 0.24843,-0.0669 0.8939,0.0136 1.14777,0.14309 0.15009,0.0766 0.2295,0.0867 0.48276,0.0615 0.27356,-0.0272 0.29423,-0.0237 0.21201,0.0367 -0.0501,0.0368 -0.20386,0.0818 -0.34166,0.0999 -0.29902,0.0394 -0.57378,0.25249 -0.50096,0.38857 0.0314,0.0587 0.009,0.1088 -0.0927,0.20611 -0.0738,0.0707 -0.14498,0.16259 -0.15818,0.20418 -0.0317,0.0999 -0.43445,0.28592 -0.63414,0.29285 -0.22178,0.008 -0.24498,0.0549 -0.0735,0.14932 0.081,0.0446 0.19931,0.12067 0.26284,0.16898 l 0.11552,0.0878 -0.10444,0.0386 c -0.0801,0.0296 -0.145,0.0105 -0.27822,-0.0818 -0.18077,-0.12528 -0.37527,-0.12591 -0.27151,-8.8e-4 0.0405,0.0488 0.0307,0.0677 -0.045,0.0875 -0.16928,0.0443 -0.0495,0.13181 0.13716,0.10026 0.11883,-0.0201 0.18565,-0.009 0.22281,0.0353 0.0442,0.0533 -0.0135,0.0779 -0.34524,0.14768 -0.21907,0.046 -0.51106,0.0854 -0.64886,0.0875 -0.25599,0.004 -0.44048,0.0773 -0.71186,0.28357 -0.0885,0.0673 -0.27655,0.13392 -0.49661,0.17603 -0.45994,0.088 -0.61537,0.18977 -0.89251,0.58439 -0.22259,0.31697 -0.35681,0.4351 -0.49561,0.43622 -0.0376,3.1e-4 -0.17082,-0.0553 -0.2961,-0.12366 z m -3.23,-0.30467 c -0.0978,-0.0601 -0.21771,-0.17222 -0.26641,-0.24913 -0.0951,-0.15015 -0.18271,-0.16922 -0.43936,-0.0956 -0.0869,0.0249 -0.18438,0.0273 -0.22337,0.006 -0.1349,-0.0755 0.10876,-0.14974 0.38013,-0.11584 0.20638,0.0258 0.25224,0.0184 0.27631,-0.0443 0.0483,-0.12602 0.26966,-0.21632 0.39272,-0.16026 0.0757,0.0345 0.14462,0.0336 0.24136,-0.003 0.13017,-0.0497 0.13197,-0.0542 0.0469,-0.1166 -0.0486,-0.0357 -0.10415,-0.0649 -0.12335,-0.0649 -0.0192,0 -0.0886,-0.0915 -0.15411,-0.20336 -0.0656,-0.11185 -0.1884,-0.24614 -0.273,-0.29843 -0.14379,-0.0889 -0.16281,-0.0904 -0.29141,-0.0239 -0.11244,0.0581 -0.17739,0.0622 -0.35529,0.0223 -0.11974,-0.0269 -0.28691,-0.0359 -0.37151,-0.0201 -0.14675,0.0274 -0.41562,-0.0444 -0.41562,-0.11101 0,-0.12242 0.38581,-0.39714 0.61498,-0.43792 l 0.18222,-0.0324 -0.13025,0.13877 c -0.17968,0.19142 -0.11211,0.27952 0.083,0.10821 0.0828,-0.0727 0.2258,-0.14625 0.31787,-0.16352 0.14067,-0.0264 0.20093,-0.009 0.37757,0.10782 0.23501,0.15566 0.25312,0.15984 0.38566,0.0889 0.0798,-0.0427 0.10941,-0.031 0.19608,0.0777 0.06,0.0752 0.19383,0.15705 0.32438,0.19836 0.20807,0.0658 0.2223,0.0802 0.2223,0.22366 0,0.10761 0.031,0.17552 0.1041,0.22777 0.30572,0.21863 0.29905,0.2096 0.2329,0.31553 -0.0907,0.14523 -0.16232,0.15575 -0.36306,0.0533 -0.13965,-0.0712 -0.20066,-0.081 -0.27096,-0.0434 -0.086,0.046 -0.0869,0.0559 -0.0177,0.18978 0.0568,0.1099 0.062,0.1654 0.0234,0.25016 -0.0476,0.10445 -0.0552,0.10606 -0.18439,0.0392 -0.25403,-0.13136 -0.42509,-0.0449 -0.18812,0.0951 0.0743,0.0439 0.12465,0.0965 0.112,0.11694 -0.0441,0.0714 -0.2695,0.0335 -0.44603,-0.0749 z m 9.35704,0.059 c 0,-0.0209 0.0308,-0.038 0.0683,-0.038 0.0376,0 0.0683,0.0171 0.0683,0.038 0,0.0209 -0.0307,0.038 -0.0683,0.038 -0.0376,0 -0.0683,-0.0171 -0.0683,-0.038 z m -11.07464,-0.24499 c -0.0898,-0.0472 -0.15956,-0.0512 -0.28533,-0.0165 -0.21383,0.059 -0.28861,0.0158 -0.1801,-0.10406 0.13891,-0.15349 0.23312,-0.18368 0.40066,-0.12839 0.18858,0.0622 0.27227,0.15474 0.2214,0.2447 -0.0324,0.0574 -0.0545,0.058 -0.15663,0.004 z m 9.04748,-0.0207 c -0.0752,-0.0494 -0.17084,-0.079 -0.21261,-0.0658 -0.0575,0.0182 -0.0703,0.002 -0.0526,-0.0651 0.0271,-0.10364 0.42735,-0.25322 0.56266,-0.21028 0.0472,0.015 0.16774,0.003 0.26793,-0.0274 0.15728,-0.0471 0.19898,-0.0436 0.30531,0.0261 l 0.12314,0.0807 -0.10969,0.0855 c -0.0926,0.0721 -0.2643,0.13476 -0.67912,0.24758 -0.0376,0.0102 -0.12983,-0.0219 -0.20499,-0.0713 z m -12.36796,-0.85038 c -0.0626,-0.01 -0.21522,-0.0635 -0.33907,-0.11907 l -0.22519,-0.10107 0.3163,-0.0228 c 0.17396,-0.0125 0.3163,-0.0433 0.3163,-0.0683 0,-0.0251 -0.123,-0.0565 -0.27333,-0.07 -0.19848,-0.0177 -0.2359,-0.0302 -0.13666,-0.0455 0.16616,-0.0257 0.17813,-0.0977 0.0228,-0.13691 -0.11188,-0.0282 -0.11106,-0.03 0.0463,-0.0978 0.27273,-0.11751 0.56323,-0.14002 0.8206,-0.0636 0.21131,0.0628 0.24433,0.0625 0.34395,-0.003 0.0705,-0.0462 0.11226,-0.0539 0.1159,-0.0214 0.003,0.0279 0.008,0.0747 0.0114,0.10394 0.0106,0.0987 0.10144,0.0859 0.20987,-0.0295 0.10037,-0.10684 0.27436,-0.15802 0.27397,-0.0806 -6e-5,0.0188 -0.0406,0.1005 -0.0901,0.18159 l -0.0899,0.14742 0.147,0.0767 0.147,0.0767 -0.24137,0.11017 c -0.2178,0.0994 -0.26248,0.1051 -0.45771,0.0583 -0.1893,-0.0454 -0.2436,-0.0402 -0.43434,0.0415 -0.21542,0.0924 -0.26085,0.0983 -0.48376,0.063 z m 1.82701,-0.0321 c -0.0412,-0.0496 -0.0242,-0.074 0.0822,-0.11802 0.074,-0.0307 0.18019,-0.0409 0.23708,-0.0228 0.0987,0.0313 0.0964,0.0362 -0.0536,0.11611 -0.19134,0.1019 -0.20087,0.10279 -0.26566,0.0247 z m 12.56811,-0.21083 c 0.0883,-0.0571 0.13666,-0.0571 0.13666,0 0,0.0251 -0.0461,0.0452 -0.1025,0.0449 -0.0829,-5.6e-4 -0.0894,-0.009 -0.0342,-0.0449 z m 8.35919,-0.12638 c -0.23291,-0.092 -0.22812,-0.087 -0.16036,-0.16862 0.0317,-0.0382 0.0397,-0.0701 0.0179,-0.0709 -0.0219,-8e-4 0.001,-0.0324 0.0514,-0.0703 0.0501,-0.0379 0.0915,-0.0833 0.0919,-0.10105 0.002,-0.0674 0.18706,-0.24507 0.31812,-0.30478 0.0752,-0.0342 0.2699,-0.0728 0.43276,-0.0858 0.16286,-0.0129 0.38099,-0.0366 0.48475,-0.0526 0.11042,-0.017 0.20042,-0.0101 0.21704,0.0168 0.0323,0.0523 -0.0293,0.0745 -0.38291,0.13799 -0.35085,0.063 -0.56174,0.16126 -0.70064,0.32633 -0.14632,0.1739 -0.15122,0.2837 -0.0168,0.37744 l 0.1025,0.0715 -0.13666,-0.002 c -0.0752,-0.001 -0.21866,-0.0344 -0.31888,-0.074 z M 104.68472,133.585 c -0.0735,-0.0735 -0.0567,-0.0895 0.29575,-0.28242 0.41298,-0.22608 0.62051,-0.2561 0.99093,-0.14332 l 0.20499,0.0624 -0.27332,0.0542 c -0.22353,0.0443 -0.69725,0.20274 -1.07133,0.35826 -0.0382,0.0159 -0.10404,-0.006 -0.14702,-0.0491 z m 3.29106,-0.059 c 0,-0.0243 -0.0564,-0.0765 -0.12527,-0.11601 l -0.12527,-0.0719 0.16773,0.0264 c 0.11918,0.0187 0.17852,0.008 0.20499,-0.0386 0.0315,-0.0549 0.32143,-0.16471 0.43703,-0.16554 0.0194,-1.2e-4 0.004,0.0612 -0.0352,0.13625 -0.0915,0.17684 -0.52396,0.36619 -0.52396,0.22939 z m 0.70925,-0.13301 c -0.0653,-0.10561 0.38048,-0.26907 0.56983,-0.20897 0.138,0.0438 0.0458,0.11906 -0.19494,0.15907 -0.1077,0.0179 -0.22963,0.0469 -0.27094,0.0645 -0.0413,0.0176 -0.0881,0.011 -0.10395,-0.0147 z m 1.45458,-0.33545 c -0.30066,-0.0239 -0.55226,-0.0487 -0.55911,-0.0551 -0.0407,-0.0378 0.0609,-0.16082 0.17019,-0.20611 0.1075,-0.0445 0.15704,-0.0386 0.30422,0.0363 0.14345,0.073 0.23591,0.0851 0.50241,0.0659 0.17963,-0.0129 0.38462,-0.009 0.45554,0.009 l 0.12894,0.0326 -0.15944,0.0852 c -0.0877,0.0469 -0.19019,0.083 -0.22777,0.0803 -0.0376,-0.003 -0.31433,-0.0244 -0.61498,-0.0483 z m 13.10947,-0.18618 c -0.22377,-0.11456 -0.24536,-0.16651 -0.0696,-0.16749 0.0689,-3.7e-4 0.15603,-0.0228 0.19361,-0.0498 0.0591,-0.0425 0.0583,-0.046 -0.006,-0.0256 -0.0408,0.0129 -0.098,-3.7e-4 -0.12717,-0.0295 -0.0403,-0.0403 -0.0613,-0.0396 -0.0876,0.003 -0.0243,0.0394 -0.0744,0.0441 -0.16893,0.0157 -0.24022,-0.0719 -0.29377,-0.10387 -0.29377,-0.1752 0,-0.0604 0.0602,-0.0659 0.43276,-0.0398 0.28373,0.0199 0.43277,0.0144 0.43277,-0.016 0,-0.0897 0.12639,-0.0454 0.15991,0.056 l 0.0339,0.1025 0.0202,-0.1025 c 0.0111,-0.0564 0.0495,-0.1025 0.0853,-0.1025 0.0358,0 0.0652,-0.0246 0.0652,-0.0547 0,-0.0425 0.0121,-0.0425 0.0547,0 0.0318,0.0318 0.18424,0.0547 0.36444,0.0547 0.32569,0 0.40217,0.0582 0.18497,0.14082 -0.11288,0.0429 -0.3092,0.0308 -0.52435,-0.0324 -0.0439,-0.0129 -0.0796,-0.007 -0.0794,0.0138 3.1e-4,0.042 0.25627,0.19667 0.32553,0.19667 0.0248,0 0.0739,0.0288 0.10903,0.0639 0.0548,0.0548 0.0544,0.0676 -0.003,0.0897 -0.0369,0.0142 -0.0672,0.004 -0.0672,-0.0234 0,-0.0318 -0.0579,-0.0383 -0.16393,-0.0185 -0.11477,0.0215 -0.15457,0.0156 -0.13274,-0.0197 0.0172,-0.0277 0.006,-0.0803 -0.0239,-0.11679 -0.0584,-0.0704 -0.22612,-0.0919 -0.22612,-0.0291 0,0.0205 -0.0666,0.11094 -0.14805,0.20097 l -0.14805,0.16368 -0.19233,-0.0985 z m -12.0845,-0.10021 c -0.079,-0.0464 -0.1907,-0.0598 -0.36444,-0.0438 -0.16239,0.0149 -0.28725,0.002 -0.35486,-0.0366 -0.0932,-0.0533 -0.0704,-0.0594 0.21407,-0.0571 0.35577,0.003 0.51201,-0.0733 0.31934,-0.15566 -0.0915,-0.0391 -0.0782,-0.0427 0.0787,-0.0209 0.20482,0.0284 0.28445,-0.0265 0.17285,-0.11912 -0.119,-0.0988 0.0118,-0.12942 0.43526,-0.10199 0.26202,0.017 0.42666,0.007 0.49397,-0.0286 0.12893,-0.069 0.0783,-0.15684 -0.069,-0.11985 -0.10186,0.0256 -0.80872,-0.0164 -0.77889,-0.0462 0.0213,-0.0213 1.02278,-0.11407 1.68035,-0.15563 0.34108,-0.0215 0.72032,-0.0516 0.84275,-0.0668 l 0.2226,-0.0276 -0.36747,0.17652 c -0.34453,0.16549 -0.90481,0.32683 -1.13499,0.32683 -0.056,0 -0.21713,0.0615 -0.35798,0.13666 -0.14086,0.0752 -0.28435,0.13666 -0.31887,0.13666 -0.0345,0 -0.18354,0.0612 -0.33113,0.13609 -0.1476,0.0748 -0.26836,0.13562 -0.26836,0.13505 0,-5.6e-4 -0.0512,-0.0311 -0.11388,-0.0679 z m -0.88831,-0.41619 c -0.22078,-0.0488 -0.22887,-0.0672 -0.0666,-0.15132 0.23649,-0.12256 0.46027,-0.15398 0.56201,-0.0789 0.0806,0.0594 0.0759,0.0686 -0.0823,0.16198 -0.16489,0.0973 -0.2318,0.10834 -0.41306,0.0682 z" style="fill:none;fill-rule:evenodd;stroke:#000000;stroke-width:0.20517802;stroke-linejoin:round;stroke-miterlimit:4;stroke-dasharray:none" inkscape:connector-curvature="0"/>
      <circle r="1.3395534" cy="141.79573" cx="140.4015" id="path3546-0-2-5" style="opacity:1;fill:#ff001e;fill-opacity:0.99215686;fill-rule:evenodd;stroke:#000000;stroke-width:0.45236459;stroke-miterlimit:4;stroke-dasharray:none;stroke-dashoffset:0;stroke-opacity:1"/>
      <circle r="1.3395535" cy="147.72997" cx="107.37553" id="path3546-0-2-5-6" style="opacity:1;fill:#ff001e;fill-opacity:0.99215686;fill-rule:evenodd;stroke:#000000;stroke-width:0.45236459;stroke-miterlimit:4;stroke-dasharray:none;stroke-dashoffset:0;stroke-opacity:1"/>
      <circle r="1.3395535" cy="149.33359" cx="110.24868" id="path3546-0-2-5-8" style="opacity:1;fill:#ff001e;fill-opacity:0.99215686;fill-rule:evenodd;stroke:#000000;stroke-width:0.45236459;stroke-miterlimit:4;stroke-dasharray:none;stroke-dashoffset:0;stroke-opacity:1"/>
      <circle r="1.3395535" cy="153.14218" cx="109.58051" id="path3546-0-2-5-84" style="opacity:1;fill:#ff001e;fill-opacity:0.99215686;fill-rule:evenodd;stroke:#000000;stroke-width:0.45236459;stroke-miterlimit:4;stroke-dasharray:none;stroke-dashoffset:0;stroke-opacity:1"/>
      <circle r="1.3395535" cy="140.31323" cx="100.89425" id="path3546-0-2-5-3" style="opacity:1;fill:#ff001e;fill-opacity:0.99215686;fill-rule:evenodd;stroke:#000000;stroke-width:0.45236459;stroke-miterlimit:4;stroke-dasharray:none;stroke-dashoffset:0;stroke-opacity:1"/>
      <circle r="1.3395535" cy="137.841" cx="104.23512" id="path3546-0-2-5-1" style="opacity:1;fill:#ff001e;fill-opacity:0.99215686;fill-rule:evenodd;stroke:#000000;stroke-width:0.45236459;stroke-miterlimit:4;stroke-dasharray:none;stroke-dashoffset:0;stroke-opacity:1"/>
      <circle r="1.3395535" cy="138.64281" cx="108.71188" id="path3546-0-2-5-4" style="opacity:1;fill:#ff001e;fill-opacity:0.99215686;fill-rule:evenodd;stroke:#000000;stroke-width:0.45236459;stroke-miterlimit:4;stroke-dasharray:none;stroke-dashoffset:0;stroke-opacity:1"/>
      <circle r="1.3395535" cy="141.18187" cx="105.03693" id="path3546-0-2-5-9" style="opacity:1;fill:#ff001e;fill-opacity:0.99215686;fill-rule:evenodd;stroke:#000000;stroke-width:0.45236459;stroke-miterlimit:4;stroke-dasharray:none;stroke-dashoffset:0;stroke-opacity:1"/>
    </g>
  </g>
</svg>