<?xml version="1.0" encoding="UTF-8" standalone="no"?>
<!-- Created with Inkscape (http://www.inkscape.org/) -->

<svg
   width="26.833853mm"
   height="30.985064mm"
   viewBox="0 0 26.833853 30.985064"
   version="1.1"
   id="svg71171"
   inkscape:version="1.2.2 (b0a8486541, 2022-12-01)"
   sodipodi:docname="drawing.svg"
   xmlns:inkscape="http://www.inkscape.org/namespaces/inkscape"
   xmlns:sodipodi="http://sodipodi.sourceforge.net/DTD/sodipodi-0.dtd"
   xmlns="http://www.w3.org/2000/svg"
   xmlns:svg="http://www.w3.org/2000/svg">
  <sodipodi:namedview
     id="namedview71173"
     pagecolor="#ffffff"
     bordercolor="#cccccc"
     borderopacity="1"
     inkscape:showpageshadow="0"
     inkscape:pageopacity="0"
     inkscape:pagecheckerboard="0"
     inkscape:deskcolor="#d1d1d1"
     inkscape:document-units="mm"
     showgrid="false"
     inkscape:zoom="1.6018185"
     inkscape:cx="-164.18839"
     inkscape:cy="-30.590232"
     inkscape:window-width="316"
     inkscape:window-height="1037"
     inkscape:window-x="640"
     inkscape:window-y="20"
     inkscape:window-maximized="1"
     inkscape:current-layer="layer1" />
  <defs
     id="defs71168" />
  <g
     inkscape:label="Layer 1"
     inkscape:groupmode="layer"
     id="layer1"
     transform="translate(-150.7559,-134.57475)">
    <g
       id="g7278-3-9"
       transform="matrix(0.93550486,0,0,0.93550486,-209.54004,136.07679)"
       inkscape:export-filename="logo.png"
       inkscape:export-xdpi="300"
       inkscape:export-ydpi="300">
      <path
         sodipodi:type="star"
         style="fill:#e5ecf6;stroke:#000000;stroke-width:0.75;stroke-miterlimit:4;stroke-dasharray:none;stroke-opacity:1"
         id="path1070-9-61-1-1-5-3"
         sodipodi:sides="6"
         sodipodi:cx="27.137175"
         sodipodi:cy="116.99262"
         sodipodi:r1="16.127598"
         sodipodi:r2="13.966911"
         sodipodi:arg1="1.0471976"
         sodipodi:arg2="1.5707963"
         inkscape:flatsided="true"
         inkscape:rounded="0"
         inkscape:randomized="0"
         transform="rotate(-30,22.902418,-628.82213)"
         inkscape:export-xdpi="300"
         inkscape:export-ydpi="300"
         d="m 35.200973,130.95953 -16.127598,0 -8.063798,-13.96691 8.063799,-13.96691 16.127598,0 8.063798,13.96691 z" />
    </g>
    <path
       id="path123000"
       style="fill:none;stroke:#000000;stroke-width:0.565;stroke-linecap:butt;stroke-linejoin:miter;stroke-miterlimit:4;stroke-dasharray:none;stroke-opacity:1"
       d="m 159.32093,143.1094 0.78276,1.98795 m 8.14137,0 0.77966,-1.98795 m -2.85771,4.47291 1.42574,-1.49097 m -6.83675,0 1.41953,1.49097 m 6.0509,7.4549 0.79208,1.98795 m -2.87946,-4.47292 1.42885,1.49098 m -6.81501,0 c 0.41387,-0.56485 0.76707,-1.00737 1.42264,-1.49098 m -2.8577,4.47292 0.78276,-1.98795 m -2.88256,2.42594 c -0.0342,0.29509 0.1957,0.55291 0.49389,0.55291 l 1.0033,0.003 c 0.2516,0 0.46282,-0.18327 0.497,-0.43176 0.0217,-0.15221 -0.004,-0.27692 0.10561,-0.56223 h 9.70068 c 0.0876,0.22112 0.0901,0.41002 0.10871,0.56223 0.0342,0.24849 0.24539,0.43487 0.497,0.43176 l 1.0033,-0.003 c 0.29819,0 0.53116,-0.25782 0.49389,-0.55291 -0.14289,-1.17725 -0.79519,-4.007 -3.69329,-6.45158 -0.54668,0.38517 -1.15239,0.7517 -1.81712,1.09959 0.19258,0.14289 0.42661,0.32189 0.52805,0.44108 h -3.96352 c 0.66163,-0.56222 1.45992,-1.10581 2.44459,-1.59659 5.34578,-2.6558 6.32733,-6.79637 6.5075,-8.28425 0.0342,-0.29509 -0.19569,-0.5529 -0.49389,-0.5529 l -1.00641,-0.003 c -0.25161,0 -0.46282,0.18326 -0.49699,0.43176 -0.0217,0.15221 -0.0559,0.34479 -0.10561,0.56223 h -9.70379 c -0.088,-0.21241 -0.0839,-0.40692 -0.10561,-0.56223 -0.0342,-0.2485 -0.24539,-0.43487 -0.49699,-0.43176 l -1.00331,0.003 c -0.2982,0 -0.53116,0.25781 -0.49699,0.5529 0.16152,1.33257 0.97224,4.78045 4.96682,7.39588 -3.99147,2.61543 -4.8053,6.06331 -4.96682,7.39587 z m 6.9548,-8.52653 c -0.77966,-0.42555 -1.47039,-0.78671 -1.9973,-1.35431 h 3.99148 c -0.3792,0.457 -1.21453,0.93187 -1.99418,1.35431 z m 4.07223,-3.83927 c -0.10838,0.32072 -0.39846,0.74061 -0.65231,0.99399 H 160.756 c -0.29087,-0.30985 -0.50283,-0.5643 -0.65231,-0.99399 z m -8.14447,9.93986 c 0.1352,-0.34104 0.36989,-0.67101 0.6523,-0.99399 h 6.81501 c 0.32084,0.33349 0.52926,0.66514 0.65853,0.99399 z"
       sodipodi:nodetypes="ccccccccccccccccccccccccccccccccccccccccccccccccccccccccc" />
    <path
       style="fill:#bf202f;fill-opacity:1;fill-rule:evenodd;stroke:#000000;stroke-width:0.0489008;stroke-linejoin:round;stroke-miterlimit:4;stroke-dasharray:none;stroke-opacity:1"
       d="m 160.0344,144.12052 c -0.14768,-0.37542 -0.2685,-0.68971 -0.2685,-0.69845 0,-0.009 1.98479,-0.0159 4.41065,-0.0159 4.19071,0 4.40995,0.002 4.39661,0.0401 -0.008,0.022 -0.12959,0.33634 -0.27082,0.69844 l -0.25677,0.65837 h -3.87133 -3.87133 z"
       id="path123014" />
    <path
       style="fill:#bf202f;fill-opacity:1;fill-rule:evenodd;stroke:#000000;stroke-width:0.0489008;stroke-linejoin:round;stroke-miterlimit:4;stroke-dasharray:none;stroke-opacity:1"
       d="m 161.88185,146.84688 -0.43181,-0.45227 1.35454,-0.006 c 0.74499,-0.003 1.97074,-0.003 2.72389,0 l 1.36935,0.006 -0.43263,0.45227 -0.43262,0.45227 h -1.85946 -1.85945 z"
       id="path123016" />
    <path
       style="fill:#bf202f;fill-opacity:1;fill-rule:evenodd;stroke:#000000;stroke-width:0.0489008;stroke-linejoin:round;stroke-miterlimit:4;stroke-dasharray:none;stroke-opacity:1"
       d="m 161.41829,153.65956 c 0.11459,-0.14645 0.51307,-0.53938 0.69737,-0.68765 l 0.16283,-0.13101 h 1.86506 1.86506 l 0.4281,0.44464 c 0.23547,0.24455 0.42811,0.45065 0.42811,0.45799 0,0.007 -1.2426,0.0134 -2.76134,0.0134 h -2.76135 z"
       id="path123018" />
    <path
       style="fill:#bf202f;fill-opacity:1;fill-rule:evenodd;stroke:#000000;stroke-width:0.0489008;stroke-linejoin:round;stroke-miterlimit:4;stroke-dasharray:none;stroke-opacity:1"
       d="m 159.84488,156.48768 c 0.054,-0.13539 0.1779,-0.44969 0.27544,-0.69844 l 0.17735,-0.45227 h 3.86519 3.86519 l 0.26828,0.66982 c 0.14755,0.3684 0.27336,0.6827 0.27957,0.69844 0.009,0.0228 -0.88197,0.0286 -4.4089,0.0286 h -4.4202 z"
       id="path123020" />
  </g>
</svg>
